<svg width="104" height="32" viewBox="0 0 104 32" fill="none" xmlns="http://www.w3.org/2000/svg">
<g clip-path="url(#clip0_216_1799)">
<path d="M20.6824 18.8165V13.1836H5.62738V18.8165H20.6824Z" fill="url(#paint0_linear_216_1799)"/>
<path d="M23.0124 0H8.73981C3.91206 0 0 3.91293 0 8.74174V32H5.62735V8.74174C5.62735 7.02177 7.02022 5.62859 8.73981 5.62859H23.0124V0Z" fill="url(#paint1_linear_216_1799)"/>
<path d="M0 12.6289C0 10.9089 2.60518 5.62859 8.73981 5.62859H23.0124V0H8.73981C3.91206 0 0 3.91293 0 8.74174V12.6289Z" fill="url(#paint2_linear_216_1799)"/>
<path d="M28.7945 0V19.0228C28.7945 23.082 25.5058 26.3714 21.4476 26.3714H13.6879V32H21.4175C28.6011 32 34.4219 26.1779 34.4219 18.9927V0H28.7945Z" fill="url(#paint3_linear_216_1799)"/>
<path d="M34.4261 16.043C34.4261 20.1021 30.8709 26.3714 21.4518 26.3714H13.6879V32H21.4174C28.601 32 34.4218 26.1779 34.4218 18.9927V16.043H34.4261Z" fill="url(#paint4_linear_216_1799)"/>
<path d="M57.6535 0H48.1657C43.798 0 40.2556 3.54313 40.2556 7.91185V32H45.883V7.79145C45.883 6.59608 46.8502 5.62859 48.0453 5.62859H57.6535V0Z" fill="url(#paint5_linear_216_1799)"/>
<path d="M48.1657 0C43.798 0 40.2556 3.54313 40.2556 7.91185V32H45.883V7.79145C45.883 5.233 47.0781 0 51.6608 0L48.1657 0Z" fill="url(#paint6_linear_216_1799)"/>
<path d="M45.8828 32H55.3706C59.7383 32 63.2807 28.4569 63.2807 24.0881V0H57.6533V24.2085C57.6533 25.4039 56.6861 26.3714 55.491 26.3714H45.8828V32Z" fill="url(#paint7_linear_216_1799)"/>
<path d="M55.3751 32C59.7429 32 63.2852 28.4569 63.2852 24.0881V0H57.6579V24.2085C57.6579 26.767 56.4628 32 51.8801 32H55.3751Z" fill="url(#paint8_linear_216_1799)"/>
<path d="M74.7419 32V12.9772C74.7419 8.91803 78.0306 5.62859 82.0888 5.62859H89.8484V0H82.1189C74.9353 0 69.1145 5.82209 69.1145 13.0073V32H74.7419Z" fill="url(#paint9_linear_216_1799)"/>
<path d="M69.1145 15.957C69.1145 11.8979 72.6698 5.62859 82.0888 5.62859H89.8484V0H82.1189C74.9353 0 69.1145 5.82209 69.1145 13.0073V15.957Z" fill="url(#paint10_linear_216_1799)"/>
<path d="M97.9089 11.6143H88.4211C84.0533 11.6143 80.511 15.1574 80.511 19.5261V32.0002H86.1383V19.41C86.1383 18.2146 87.1056 17.2472 88.3007 17.2472H97.9089V11.6143Z" fill="url(#paint11_linear_216_1799)"/>
<path d="M88.4211 11.6143C84.0533 11.6143 80.511 15.1574 80.511 19.5261V32.0002H86.1383V19.41C86.1383 16.8516 87.3335 11.6186 91.9162 11.6186H88.4211V11.6143Z" fill="url(#paint12_linear_216_1799)"/>
<path d="M86.1383 32H95.6261C99.9939 32 103.536 28.4569 103.536 24.0881V0H97.9089V24.2085C97.9089 25.4039 96.9416 26.3714 95.7465 26.3714H86.1383V32Z" fill="url(#paint13_linear_216_1799)"/>
<path d="M95.6259 32C99.9937 32 103.536 28.4569 103.536 24.0881V0H97.9087V24.2085C97.9087 26.767 96.7136 32 92.1309 32H95.6259Z" fill="url(#paint14_linear_216_1799)"/>
</g>
<defs>
<linearGradient id="paint0_linear_216_1799" x1="20.681" y1="15.9999" x2="5.62836" y2="15.9999" gradientUnits="userSpaceOnUse">
<stop stop-color="#EDEEFF"/>
<stop offset="1" stop-color="#9FA2FF"/>
</linearGradient>
<linearGradient id="paint1_linear_216_1799" x1="11.5055" y1="0" x2="11.5055" y2="31.9997" gradientUnits="userSpaceOnUse">
<stop offset="0.25" stop-color="#EDEEFF"/>
<stop offset="1" stop-color="#9FA2FF"/>
</linearGradient>
<linearGradient id="paint2_linear_216_1799" x1="11.5055" y1="0" x2="11.5055" y2="12.6297" gradientUnits="userSpaceOnUse">
<stop stop-color="#EDEEFF"/>
<stop offset="1" stop-color="#9FA2FF"/>
</linearGradient>
<linearGradient id="paint3_linear_216_1799" x1="24.0568" y1="31.9997" x2="24.0568" y2="0" gradientUnits="userSpaceOnUse">
<stop offset="0.5" stop-color="#EDEEFF"/>
<stop offset="0.9" stop-color="#9FA2FF"/>
</linearGradient>
<linearGradient id="paint4_linear_216_1799" x1="13.6888" y1="24.0202" x2="34.4247" y2="24.0202" gradientUnits="userSpaceOnUse">
<stop stop-color="#EDEEFF"/>
<stop offset="1" stop-color="#9FA2FF"/>
</linearGradient>
<linearGradient id="paint5_linear_216_1799" x1="40.2552" y1="15.9998" x2="57.6542" y2="15.9998" gradientUnits="userSpaceOnUse">
<stop stop-color="#EDEEFF"/>
<stop offset="1" stop-color="#9FA2FF"/>
</linearGradient>
<linearGradient id="paint6_linear_216_1799" x1="45.9581" y1="31.9997" x2="45.9581" y2="0" gradientUnits="userSpaceOnUse">
<stop stop-color="#EDEEFF"/>
<stop offset="1" stop-color="#9FA2FF"/>
</linearGradient>
<linearGradient id="paint7_linear_216_1799" x1="63.2823" y1="15.9998" x2="45.8833" y2="15.9998" gradientUnits="userSpaceOnUse">
<stop stop-color="#EDEEFF"/>
<stop offset="1" stop-color="#9FA2FF"/>
</linearGradient>
<linearGradient id="paint8_linear_216_1799" x1="57.5796" y1="0" x2="57.5796" y2="31.9996" gradientUnits="userSpaceOnUse">
<stop stop-color="#EDEEFF"/>
<stop offset="1" stop-color="#9FA2FF"/>
</linearGradient>
<linearGradient id="paint9_linear_216_1799" x1="79.4807" y1="0" x2="79.4807" y2="31.9996" gradientUnits="userSpaceOnUse">
<stop offset="0.5" stop-color="#EDEEFF"/>
<stop offset="0.9" stop-color="#9FA2FF"/>
</linearGradient>
<linearGradient id="paint10_linear_216_1799" x1="89.8487" y1="7.97937" x2="69.1127" y2="7.97937" gradientUnits="userSpaceOnUse">
<stop stop-color="#EDEEFF"/>
<stop offset="1" stop-color="#9FA2FF"/>
</linearGradient>
<linearGradient id="paint11_linear_216_1799" x1="80.5113" y1="21.8079" x2="97.9091" y2="21.8079" gradientUnits="userSpaceOnUse">
<stop stop-color="#EDEEFF"/>
<stop offset="1" stop-color="#9FA2FF"/>
</linearGradient>
<linearGradient id="paint12_linear_216_1799" x1="86.2142" y1="31.9998" x2="86.2142" y2="11.6159" gradientUnits="userSpaceOnUse">
<stop stop-color="#EDEEFF"/>
<stop offset="1" stop-color="#9FA2FF"/>
</linearGradient>
<linearGradient id="paint13_linear_216_1799" x1="103.537" y1="15.9998" x2="86.1396" y2="15.9998" gradientUnits="userSpaceOnUse">
<stop stop-color="#EDEEFF"/>
<stop offset="1" stop-color="#9FA2FF"/>
</linearGradient>
<linearGradient id="paint14_linear_216_1799" x1="97.8342" y1="0" x2="97.8342" y2="31.9996" gradientUnits="userSpaceOnUse">
<stop stop-color="#EDEEFF"/>
<stop offset="1" stop-color="#9FA2FF"/>
</linearGradient>
<clipPath id="clip0_216_1799">
<rect width="103.536" height="32" fill="white"/>
</clipPath>
</defs>
</svg>
