<svg width="125" height="52" viewBox="0 0 125 52" fill="none" xmlns="http://www.w3.org/2000/svg">
<path fill-rule="evenodd" clip-rule="evenodd" d="M58.0576 40.3436V25.3907H65.7751C68.9375 25.3907 71.6067 24.331 73.7827 22.2412L74.305 21.7113C78.2798 17.3844 78.0186 10.6438 73.7827 6.64068C71.6648 4.52136 68.7635 3.3734 65.7751 3.43227H53.3865V40.3436H58.0576ZM58.0581 20.8575V7.96502H65.8929C67.5759 7.96502 69.1719 8.61259 70.3616 9.78999C72.8861 12.2625 72.9442 16.3834 70.5067 18.9442C69.317 20.2099 67.6339 20.9164 65.8929 20.8575H58.0581ZM96.0941 17.0604C94.0922 15.206 91.3649 14.2641 87.9124 14.2641C83.4734 14.2641 80.1369 15.9125 77.9319 19.1798L82.0517 21.7995C83.5604 19.5624 85.6204 18.4439 88.2315 18.4439C89.8853 18.4439 91.481 19.062 92.7286 20.1805C93.9471 21.2402 94.6434 22.7708 94.6434 24.3897V25.4788C92.8446 24.478 90.5816 23.9482 87.7963 23.9482C84.5469 23.9482 81.9357 24.7135 79.9918 26.2736C78.0479 27.8336 77.0615 29.8941 77.0615 32.5138C77.0035 34.898 78.0189 37.1645 79.8177 38.6951C81.6456 40.3435 83.9666 41.1676 86.6938 41.1676C89.9143 41.1676 92.4674 39.7253 94.4113 36.8407H94.6144V40.3435H99.0824V24.7724C99.0824 21.5051 98.096 18.9148 96.0941 17.0604ZM83.416 35.6926C82.4584 34.9862 81.878 33.8382 81.878 32.6019C81.878 31.2185 82.5164 30.0705 83.7642 29.1581C85.0409 28.2456 86.6369 27.7746 88.5231 27.7746C91.1347 27.7452 93.1659 28.3339 94.6168 29.5113C94.6168 31.5129 93.8333 33.2495 92.2954 34.7213C90.9025 36.1341 89.0164 36.9289 87.0432 36.9289C85.7374 36.9583 84.4606 36.5168 83.416 35.6926ZM109.121 51.4403L124.73 15.0882H119.652L112.428 33.2201H112.341L104.943 15.0882H99.8656L110.107 38.7244L104.305 51.4403H109.121Z" fill="white"/>
<path d="M41.9312 22.153C41.9312 20.7107 41.8152 19.2683 41.5831 17.8555H21.8832V26.0089H33.1693C32.7051 28.6286 31.1964 30.9834 28.9914 32.4552V37.7535H35.7224C39.6682 34.0741 41.9312 28.6286 41.9312 22.153Z" fill="#4285F4"/>
<path d="M21.8843 42.875C27.5128 42.875 32.271 40.9912 35.7235 37.7533L28.9925 32.4551C27.1066 33.7502 24.6986 34.4861 21.8843 34.4861C16.4298 34.4861 11.8168 30.7478 10.163 25.7439H3.22888V31.2188C6.76848 38.3715 13.9927 42.875 21.8843 42.875Z" fill="#34A853"/>
<path d="M10.1636 25.7439C9.29308 23.1242 9.29308 20.269 10.1636 17.6198V12.1744H3.22837C0.239549 18.1497 0.239549 25.214 3.22837 31.1893L10.1636 25.7439Z" fill="#FBBC04"/>
<path d="M21.8843 8.87778C24.8726 8.81891 27.7449 9.96687 29.8919 12.0567L35.8686 5.99316C32.0679 2.4021 27.0776 0.42996 21.8843 0.48883C13.9927 0.48883 6.76848 5.0218 3.22888 12.1745L10.163 17.6494C11.8168 12.616 16.4298 8.87778 21.8843 8.87778Z" fill="white"/>
</svg>
