<svg width="97" height="61" viewBox="0 0 97 61" fill="none" xmlns="http://www.w3.org/2000/svg">
<path d="M58.659 30.5989C58.659 46.9711 45.539 60.2435 29.3546 60.2435C13.1702 60.2435 0.0501442 46.9711 0.0501442 30.5989C0.0501442 14.2266 13.1702 0.954224 29.3546 0.954224C45.539 0.954224 58.659 14.2266 58.659 30.5989Z" fill="white"/>
<path d="M96.6756 30.5989C96.6756 46.9711 83.5555 60.2435 67.3711 60.2435C51.1867 60.2435 38.0667 46.9711 38.0667 30.5989C38.0667 14.2266 51.1867 0.954224 67.3711 0.954224C83.5555 0.954224 96.6756 14.2266 96.6756 30.5989Z" fill="white"/>
<path fill-rule="evenodd" clip-rule="evenodd" d="M48.363 53.1617C54.6638 47.7243 58.659 39.6336 58.659 30.5989C58.659 21.5642 54.6638 13.4734 48.363 8.03607C42.0623 13.4734 38.067 21.5642 38.067 30.5989C38.067 39.6336 42.0623 47.7243 48.363 53.1617Z" fill="white"/>
</svg>
