<svg width="3152" height="1056" viewBox="0 0 3152 1056" fill="none" xmlns="http://www.w3.org/2000/svg">
<path d="M1147.74 802V343H1225.14V430.3C1260.24 370.9 1317.84 335.8 1389.84 335.8H1404.24V415.9H1389.84C1287.24 415.9 1225.14 477.1 1225.14 571.6V802H1147.74ZM1649.6 812.8C1510.1 812.8 1404.8 709.3 1404.8 572.5C1404.8 435.7 1510.1 332.2 1649.6 332.2C1788.2 332.2 1893.5 435.7 1893.5 572.5C1893.5 709.3 1788.2 812.8 1649.6 812.8ZM1649.6 738.1C1743.2 738.1 1813.4 667 1813.4 572.5C1813.4 478 1743.2 406.9 1649.6 406.9C1555.1 406.9 1484.9 478 1484.9 572.5C1484.9 667 1555.1 738.1 1649.6 738.1ZM2183.35 812.8C2043.85 812.8 1938.55 709.3 1938.55 572.5C1938.55 435.7 2043.85 332.2 2183.35 332.2C2321.95 332.2 2427.25 435.7 2427.25 572.5C2427.25 709.3 2321.95 812.8 2183.35 812.8ZM2183.35 738.1C2276.95 738.1 2347.15 667 2347.15 572.5C2347.15 478 2276.95 406.9 2183.35 406.9C2088.85 406.9 2018.65 478 2018.65 572.5C2018.65 667 2088.85 738.1 2183.35 738.1ZM2669.12 802C2576.42 802 2524.22 752.5 2524.22 667V413.2H2440.52V343H2494.52C2516.12 343 2527.82 331.3 2527.82 308.8V216.1H2601.62V343H2724.92V413.2H2601.62V654.4C2601.62 701.2 2631.32 730.9 2679.92 730.9H2724.92V802H2669.12ZM2944.25 812.8C2837.15 812.8 2766.95 756.1 2766.95 671.5H2846.15C2846.15 714.7 2885.75 742.6 2945.15 742.6C3000.95 742.6 3037.85 716.5 3037.85 679.6C3037.85 580.6 2774.15 632.8 2774.15 470.8C2774.15 387.1 2840.75 332.2 2940.65 332.2C3043.25 332.2 3109.85 386.2 3109.85 468.1H3030.65C3030.65 428.5 2994.65 402.4 2939.75 402.4C2887.55 402.4 2853.35 426.7 2853.35 461.8C2853.35 558.1 3117.05 506.8 3117.05 671.5C3117.05 756.1 3048.65 812.8 2944.25 812.8Z" fill="white"/>
<path fill-rule="evenodd" clip-rule="evenodd" d="M638.4 120.067C561.099 50.6444 443.901 50.6444 366.6 120.067L67.8999 388.321C-33.5408 479.422 -13.7169 626.887 77.1481 699.626L367.128 439.202C444.43 369.78 561.627 369.78 638.929 439.202L928.409 699.177C1018.8 626.283 1038.33 479.235 937.1 388.321L638.4 120.067Z" fill="#E0E0E0"/>
<path fill-rule="evenodd" clip-rule="evenodd" d="M366.6 959.736C443.902 1029.16 561.099 1029.16 638.401 959.736L937.1 691.482C1012.3 623.947 1020.86 525.437 983.237 449.357C972.251 471.002 956.829 491.443 936.572 509.635L637.872 777.89C560.571 847.312 443.373 847.312 366.072 777.89L67.3719 509.635C47.4437 491.738 32.1955 471.666 21.2466 450.413C-15.7772 526.346 -6.95224 624.259 67.9006 691.482L366.6 959.736Z" fill="white"/>
</svg>
