<svg width="138" height="134" viewBox="0 0 138 134" fill="none" xmlns="http://www.w3.org/2000/svg">
<path d="M35.8649 115.201C35.8649 126.627 45.5343 133.088 57.4547 133.088H80.6989C92.6194 133.088 102.697 126.627 102.697 115.201H35.8649Z" stroke="#FCD729" stroke-opacity="0.1" stroke-width="0.676215" stroke-linecap="round" stroke-dasharray="4.51 4.51"/>
<path d="M13.0354 89.6499C13.0354 101.076 22.2892 107.627 34.2097 107.627H103.942C115.863 107.627 124.507 101.076 124.507 89.6499H13.0354Z" stroke="#FCD729" stroke-opacity="0.1" stroke-width="0.676215" stroke-linecap="round" stroke-dasharray="4.51 4.51"/>
<path d="M15.9427 82.1607C7.69006 82.1607 1 75.748 1 67.8376C1 59.9273 7.69005 53.5146 15.9427 53.5146H122.202C130.454 53.5146 137.145 59.9273 137.145 67.8376C137.145 75.748 130.454 82.1607 122.202 82.1607H15.9427Z" stroke="#FCD729" stroke-opacity="0.1" stroke-width="0.676215" stroke-linecap="round" stroke-dasharray="4.51 4.51"/>
<path d="M14.281 47.15C14.281 35.7239 23.9444 26.4612 35.8649 26.4612H105.597C117.518 26.4612 127.181 35.7239 127.181 47.15H14.281Z" stroke="#FCD729" stroke-opacity="0.1" stroke-width="0.676215" stroke-linecap="round" stroke-dasharray="4.51 4.51"/>
<path d="M57.4547 1.00069C45.5343 1.00069 35.8649 8.53984 35.8649 19.9659H71.1945H105.121C105.121 8.53984 94.2797 1.00069 82.3592 1.00069H57.4547Z" stroke="#FCD729" stroke-opacity="0.1" stroke-width="0.676215" stroke-linecap="round" stroke-dasharray="4.51 4.51"/>
</svg>
