<svg width="1512" height="182" fill="none" xmlns="http://www.w3.org/2000/svg" viewBox="0 0 1512 182"><path d="m1.531 18.826 290.418 1.433 225.095.236 237.757.372 389.699-.608 187.11-.913 189.92-.439v-1.04H1.531v.959Z" fill="#21201F"/><path d="M753.641 4.259c10.643 1.349 31.883 4.8 41.893 8.112 12.11 4.007 30.923 11.869 22.03 17.833-3.426 2.296-20.534 3.33-24.836 3.705-4.015.35-9.643.584-15.272.817-5.633.235-11.267.468-15.285.818-2.902.253-5.986.568-8.274 2.146-6.861 4.73-3.008 17.702-11.643 18.939-8.487 1.214-10.182-12.138-18.622-13.36-8.544-1.239-11.926 17.896-20.224 20.221-6.126 1.717-8.314-19.303-18.399-18.801-10.086.502-8.183 12.1-14.345 12.407-6.162.306-8.978-9.912-19.5-9.145-15.709 1.145-41.817 5.862-56.693 10.487-12.748 3.964-26.458 10.472-38.878 6.107-5.701-2.005-10.117-6.095-15.813-8.115-6.088-2.158-17.311 5.691-23.919 6.143-5.791.398-10.5-1.064-15.21-2.526-4.708-1.46-9.416-2.922-15.208-2.526-5.22.358-11.419 1.273-13.622 5.376-.911 1.698-3.009 9.908-4.083 11.537-3.594 5.446-10.888-4.212-17.528-6.608-11.707-4.223-25.101-2.743-37.768-1.192-8.529 1.045-17.835 2.436-23.558 8.02-3.677 3.586-7.686 9.286-12.74 7.444-3.287-1.199-4.308-5.214-7.711-6.15-4.559-1.255-7.917 3.767-9.24 7.755l-6.808 20.514c-1.002 3.018-3.043 6.717-6.674 6.532-3.405-.174-4.924-3.648-5.65-6.503-2.02-7.957 1.421-24.242-6.067-23.87-7.489.373-7.967 12.787-15.914 12.816-9.62.034-3.129-22.983-10.464-22.618-7.335.365.862 17.308-8.307 17.765-9.169.456-12.997-14.462-25.772-19.223-2.545-.948-26.116-3.05-27.82-4.924-5.491-6.046 13.59-17.023 20.847-21.685 12.885-8.28 28.493-16.84 43.781-13.053 8.543 2.114 15.48 7.893 24.243 9.242 9.833 1.513 19.177-2.76 28.489-7.033 9.621-4.415 19.207-8.828 29.261-6.853 4.208.827 8.024 2.75 12.234 3.564 8.259 1.597 16.324-1.185 24.477-3.972 6.702-2.29 13.465-4.585 20.445-4.45 7.681.148 14.808 3.242 22.385 4.262 18.142 2.44 35.728-7.11 54.09-8.456 12.971-.953 25.864 2.192 38.64 5.342 16.285 4.016 32.382 8.042 48.207 3.6 10.973-3.079 20.621-10.075 32.098-10.752 9.498-.56 18.453 3.349 27.848 4.508 13.976 1.727 27.579-2.637 41.211-7.004 13.079-4.189 26.183-8.379 39.668-7.193Z" fill="#FEA62C"/><mask id="a" style="mask-type:luminance" maskUnits="userSpaceOnUse" x="244" y="4" width="576" height="107"><path d="M753.641 4.259c10.643 1.349 31.883 4.8 41.893 8.112 12.11 4.007 30.923 11.869 22.031 17.833-3.427 2.296-20.535 3.33-24.838 3.705-4.015.35-9.643.584-15.272.817-5.633.235-11.266.468-15.285.818-2.901.253-5.985.568-8.273 2.146-6.86 4.73-3.008 17.702-11.643 18.939-8.486 1.214-10.182-12.138-18.623-13.36-8.543-1.239-11.926 17.896-20.223 20.221-6.126 1.717-8.314-19.303-18.399-18.801-10.086.502-8.182 12.1-14.345 12.407-6.162.306-8.978-9.912-19.5-9.145-15.709 1.145-41.817 5.862-56.693 10.487-12.749 3.964-26.459 10.472-38.878 6.107-5.702-2.005-10.117-6.095-15.813-8.115-6.088-2.158-17.312 5.691-23.919 6.143-5.792.398-10.5-1.064-15.209-2.526-4.709-1.46-9.417-2.922-15.209-2.526-5.221.358-11.42 1.273-13.623 5.376-.91 1.698-3.008 9.908-4.083 11.537-3.593 5.446-10.887-4.212-17.527-6.608-11.706-4.223-25.101-2.743-37.769-1.192-8.528 1.045-17.834 2.436-23.557 8.02-3.677 3.586-7.687 9.286-12.741 7.444-3.285-1.199-4.307-5.214-7.71-6.15-4.56-1.255-7.917 3.767-9.241 7.755l-6.807 20.514c-1.002 3.018-3.044 6.717-6.674 6.532-3.406-.174-4.923-3.648-5.649-6.503-2.022-7.957 1.42-24.242-6.068-23.87-7.489.373-7.967 12.787-15.915 12.816-9.619.034-3.127-22.983-10.462-22.618-7.336.365.861 17.308-8.308 17.765-9.169.456-12.997-14.462-25.773-19.223-2.545-.948-26.115-3.05-27.819-4.924-5.492-6.046 13.59-17.023 20.846-21.685 12.885-8.28 28.494-16.84 43.783-13.053 8.542 2.114 15.479 7.893 24.242 9.242 9.833 1.513 19.177-2.76 28.488-7.033 9.622-4.415 19.208-8.828 29.262-6.853 4.208.827 8.023 2.75 12.235 3.564 8.258 1.597 16.323-1.185 24.475-3.972 6.704-2.29 13.465-4.585 20.445-4.45 7.682.148 14.809 3.242 22.385 4.262 18.143 2.44 35.729-7.11 54.091-8.456 12.97-.953 25.864 2.192 38.639 5.342 16.286 4.016 32.382 8.042 48.209 3.6 10.973-3.079 20.62-10.075 32.096-10.752 9.499-.56 18.454 3.349 27.848 4.508 13.976 1.727 27.58-2.637 41.212-7.004 13.079-4.189 26.183-8.379 39.668-7.193Z" fill="#fff"/></mask><g mask="url(#a)"><path d="M345.508 104.807c.74-.586 1.491-1.168 2.019-1.998 5.611-8.792 1.198-20.674 11.502-27.703 2.122-1.447 4.316-2.222 6.507-2.331 2.54-.127 5.074.642 7.486 2.296 1.536 1.053 3.463 3.74 5.338 4.208.213.053.428.071.646.06 2.134-.106 4.543-3.018 5.979-4.304 4.426-3.969 8.3-7.367 14.348-9.42a77.794 77.794 0 0 1 20.963-4.007 71.182 71.182 0 0 1 6.54-.03c9.13.384 18.246 2.428 26.577 5.547 1.812.68 4.523 2.488 6.662 2.383a2.878 2.878 0 0 0 1.042-.24c2.407-1.08 4.136-6.329 5.723-8.257 3.949-4.802 8.722-6.51 13.881-6.767 8.309-.414 17.621 2.936 26.124 3.184.614.018 1.225.01 1.835-.02 7.869-.392 15.264-4.544 23.054-5.556.774-.1 1.522-.168 2.249-.204 6.771-.337 11.603 2.054 17.017 5.862 5.137 3.614 10.994 4.746 17.083 4.443 11.666-.58 24.191-6.424 34.185-10.159 11.312-4.228 23.732-8.2 36.216-8.822 4.063-.202 8.132-.05 12.175.565 3.717.563 7.458 1.598 10.811 3.067 2.185.957 5.922 4.248 8.184 4.355.14.008.277.008.415.001 2.885-.144 5.189-3.185 7.306-4.59 2.254-1.496 4.725-2.594 7.537-2.734.265-.014.532-.019.803-.015 5.238.084 8.601 3.05 10.906 6.779 1.237 2.002 3.389 9.56 7.01 9.38.285-.014.578-.076.882-.192 3.671-1.41 4.257-10.234 5.71-13.196 2.127-4.329 6.57-7.72 12.057-7.992a14.354 14.354 0 0 1 1.525.005c8.504.469 10.212 7.25 14.852 11.92.999 1.007 1.814 1.401 2.499 1.367 1.415-.07 2.281-1.967 3.103-4.091 1.105-2.862 1.104-6.06 2.594-8.813 3.137-5.793 10.222-6.038 16.679-6.383 7.798-.418 15.593-1.255 23.392-1.75 7.643-.486 15.342-.802 22.952-1.672 1.379-.158 5.597-.201 6.634-1.198 1.696-1.642-.826-5.563-2.689-7.608-1.907-1.144-4.121-2.254-6.458-3.294.667 1.983.518 3.9-3.234 5.514-4.455 1.92-11.49 2.862-18.044 3.189-3.916.195-7.66.17-10.573.003a83.647 83.647 0 0 0-8.847-.034c-8.821.44-17.601 2.363-21.155 6.655-2.102 1.655-2.806 9.793-5.909 10.547a2.704 2.704 0 0 1-.487.07c-3.87.193-7.279-8.359-18.28-7.811-11.461.57-12.807 10.495-17.589 11.223a3.724 3.724 0 0 1-.351.035c-4.195.209-8.673-7.004-14.952-7.208a11.64 11.64 0 0 0-.97.01c-2.616.13-5.301 1.075-7.956 2.02-2.657.944-5.287 1.888-7.797 2.013a9.474 9.474 0 0 1-2.676-.224c-5.38-1.28-10.306-3.742-15.822-4.85-7.797-1.566-15.711-1.96-23.618-1.567-11.218.558-22.421 2.705-33.221 5.345-8.971 2.192-17.839 4.695-26.79 6.943-2.641.663-4.794 1.002-6.68 1.096-5.938.296-9.257-1.84-16.938-3.974a27.265 27.265 0 0 0-8.784-.986c-7.646.381-14.422 3.782-22.213 6.013-1.718.493-3.267.747-4.697.818-7.697.383-11.913-4.559-19.95-6.576a18.645 18.645 0 0 0-5.527-.537c-7.578.377-14.176 4.98-22.163 5.741-.75.072-1.502.126-2.255.163-9.156.456-18.429-1.459-27.49-2.047-4.161-.27-8.306-.352-12.419-.147-6.16.307-12.247 1.255-18.188 3.167-8.598 2.766-14.414 14.336-23.071 14.765a10.334 10.334 0 0 1-2.854-.261c-9.167-2.119-16.617-10.648-25.516-10.205-.988.05-1.996.21-3.026.502-5.08 1.442-11.463 10.92-16.971 11.193a4.91 4.91 0 0 1-.37.005c-5.336-.145-7.872-10.203-13.226-10.392-12.429-6.471-33.164 1.66-41.758-10.517-1.267-1.399-1.333-1.76-1.434-3.382-.078-2.212 1.822-4.91 3.765-7.099-.475.254-.946.51-1.415.77a95.648 95.648 0 0 0-8.269 6.442c-3.803 3.31-10.459 8.279-12.012 12.865-.735 2.17.415 2.548 3.443 3.504 5.68 1.792 11.835 2.23 17.493 4.172 5.288 1.814 9.253 4.572 12.436 8.602 1.274 1.614 2.623 4.966 4.582 6.006.712.379 1.243.53 1.645.51 1.549-.076 1.16-2.715 1.775-4.764 1.255-4.178 4.415-7.637 9.355-7.883.609-.03 1.246-.012 1.91.06 7.212.784 9.053 6.843 10.426 11.977.229.853.942 5.138 2.078 5.276.007 0 .014.002.021.001.754-.037 5.113-6.414 6.413-7.113 1.459-.786 2.928-1.174 4.358-1.245 5.232-.26 9.951 3.703 11.782 7.923 2.852 6.567-.275 13.032 1.051 19.553.08.388.59 1.181 1.109 2.055Zm356.469-56.252a.69.69 0 0 1 .085 0c-.248.526-.434.706-.54.711-.107.006-.134-.165-.064-.341a.577.577 0 0 1 .519-.37Z" fill="#FFD280"/><path d="M346.219 110.745c3.314-.165 5.212-3.658 6.166-6.533 2.269-6.838 4.54-13.675 6.808-20.514 1.157-3.485 3.867-7.76 7.575-7.944a5.238 5.238 0 0 1 1.666.19c3.402.936 4.424 4.95 7.709 6.15a5.656 5.656 0 0 0 2.246.35c4.025-.2 7.38-4.756 10.495-7.795 5.724-5.583 15.029-6.974 23.558-8.02 4.936-.604 9.984-1.198 14.997-1.447 7.854-.391 15.626.063 22.771 2.64 5.295 1.91 11.007 8.438 14.925 8.243.995-.05 1.874-.533 2.602-1.635 1.075-1.63 3.173-9.84 4.084-11.537 2.203-4.103 8.401-5.018 13.623-5.377.177-.01.353-.022.527-.03 5.55-.277 10.115 1.14 14.681 2.557 4.564 1.417 9.13 2.833 14.682 2.557.174-.009.35-.019.527-.031 5.655-.387 14.69-6.19 20.993-6.505 1.063-.052 2.048.051 2.926.362 5.696 2.02 10.111 6.11 15.813 8.114 3.457 1.215 7.008 1.587 10.614 1.407 9.357-.465 19.061-4.652 28.264-7.513 14.877-4.626 40.984-9.343 56.693-10.487.122-.009.243-.017.364-.023 10.222-.509 13.046 9.47 19.137 9.167 6.162-.307 4.259-11.904 14.344-12.407 9.761-.485 12.123 19.182 17.818 18.899.19-.01.385-.042.582-.097 7.949-2.228 11.385-19.886 19.174-20.273.341-.017.691 0 1.048.05 8.2 1.19 10.035 13.822 17.911 13.43.232-.012.47-.035.712-.069 8.635-1.237 4.783-14.209 11.643-18.938 2.289-1.578 5.372-1.894 8.273-2.146 2.064-.18 4.552-.329 7.248-.463 2.555-.127 5.297-.241 8.038-.355a963.75 963.75 0 0 0 8.037-.355c2.69-.134 5.175-.282 7.234-.462 4.303-.376 21.411-1.41 24.838-3.706 1.669-1.123 2.363-2.316 2.302-3.536-.106-2.143-2.54-4.375-6.045-6.487 1.862 2.046 4.384 5.966 2.688 7.608-1.037.997-5.254 1.04-6.634 1.198-7.609.87-15.309 1.186-22.952 1.672-7.799.495-15.594 1.332-23.391 1.75-6.457.344-13.542.59-16.68 6.383-1.489 2.752-1.488 5.95-2.594 8.813-.821 2.124-1.688 4.02-3.102 4.091-.686.034-1.5-.36-2.499-1.366-4.641-4.67-6.348-11.452-14.853-11.922a14.361 14.361 0 0 0-1.524-.005c-5.488.274-9.929 3.664-12.057 7.993-1.454 2.962-2.04 11.786-5.711 13.196a2.857 2.857 0 0 1-.881.193c-3.621.18-5.773-7.379-7.01-9.382-2.304-3.728-5.669-6.695-10.906-6.778a12.57 12.57 0 0 0-.803.015c-2.812.14-5.283 1.237-7.537 2.734-2.118 1.405-4.421 4.446-7.306 4.59a4.134 4.134 0 0 1-.415 0c-2.262-.109-6-3.4-8.184-4.356-3.354-1.47-7.094-2.504-10.811-3.067-4.043-.616-8.111-.767-12.175-.565-12.484.622-24.905 4.594-36.217 8.822-9.994 3.735-22.518 9.579-34.185 10.159-6.088.303-11.945-.829-17.082-4.443-5.414-3.808-10.246-6.2-17.017-5.862-.727.036-1.475.104-2.25.204-7.789 1.012-15.184 5.164-23.054 5.556-.61.03-1.22.038-1.834.02-8.503-.248-17.816-3.598-26.124-3.184-5.159.257-9.932 1.965-13.882 6.767-1.587 1.928-3.316 7.176-5.723 8.257a2.866 2.866 0 0 1-1.042.24c-2.138.105-4.848-1.704-6.661-2.383-8.332-3.118-17.447-5.163-26.577-5.547a71.18 71.18 0 0 0-6.54.03 77.804 77.804 0 0 0-20.964 4.006c-6.048 2.054-9.921 5.452-14.348 9.42-1.436 1.287-3.844 4.199-5.978 4.305a2.199 2.199 0 0 1-.645-.06c-1.876-.469-3.803-3.155-5.339-4.209-2.412-1.653-4.946-2.422-7.486-2.295-2.192.109-4.386.884-6.506 2.33-10.305 7.03-5.893 18.912-11.503 27.704-.529.83-1.279 1.411-2.019 1.997-.519-.872-1.029-1.666-1.109-2.054-1.327-6.522 1.8-12.985-1.051-19.553-1.831-4.22-6.551-8.183-11.782-7.923-1.43.071-2.9.459-4.358 1.245-1.3.7-5.659 7.076-6.413 7.113l-.021-.001c-1.136-.138-1.85-4.423-2.078-5.276-1.374-5.134-3.214-11.193-10.427-11.976-.663-.073-1.3-.091-1.91-.061-4.94.246-8.099 3.705-9.354 7.883-.615 2.049-.226 4.688-1.775 4.765-.403.02-.933-.132-1.645-.51-1.96-1.041-3.308-4.393-4.582-6.007-3.184-4.03-7.148-6.788-12.436-8.602-5.658-1.943-11.813-2.38-17.494-4.172-3.028-.956-4.177-1.335-3.443-3.504 1.555-4.586 8.211-9.556 12.013-12.865a95.785 95.785 0 0 1 8.268-6.443c-3.237 1.79-6.367 3.723-9.349 5.639-6.427 4.129-22.131 13.212-21.82 19.436.039.803.347 1.558.974 2.248 1.704 1.875 25.275 3.977 27.819 4.925 12.776 4.761 16.604 19.678 25.773 19.223 9.169-.457.972-17.4 8.308-17.765 7.335-.366.843 22.652 10.462 22.618.116-.001.229-.005.343-.01 7.62-.38 8.193-12.439 15.573-12.806 3.963-.197 4.864 4.272 5.135 9.703.14 2.826.109 5.912.251 8.736.1 2.003.286 3.876.681 5.43.726 2.856 2.244 6.329 5.65 6.504.172.009.342.008.507 0Z" fill="#FFA931"/><path d="M732.343 26.205c1.246-.062 1.162-1.722-.083-1.66-1.247.062-1.161 1.722.083 1.66Zm-2.269-8.659c1.109-.055 1.034-1.53-.073-1.474-1.107.055-1.032 1.53.073 1.474Zm-74 18.264c1.093-.055 1.02-1.511-.072-1.457-1.094.054-1.021 1.511.072 1.457Zm-15.281-2.35c.567-.029.529-.784-.038-.756-.568.028-.53.784.038.756Zm-102.062-.73c1.316-.066 1.226-1.817-.087-1.752-1.316.066-1.227 1.817.087 1.752Zm-26.026-5.819c.694-.034.646-.956-.045-.922-.693.035-.646.957.045.922Zm-127.068 4.644c.539-.027.502-.745-.036-.718-.541.027-.505.745.036.718Zm7.512 3.25c.598-.03 1.181-.414.934-1.11l-.063-.18c-.137-.389-.552-.565-.958-.545-.405.02-.802.237-.901.638l-.045.185c-.176.72.437 1.042 1.033 1.012Zm-98.606 3.934c.969-.049.904-1.34-.064-1.292-.97.048-.904 1.34.064 1.291Zm490.662-21.565c.526-.026.491-.727-.035-.7-.526.026-.49.726.035.7Zm9.765 2.323c1.192-.059 1.11-1.644-.079-1.585-1.19.06-1.11 1.645.079 1.585ZM575.832 39.443c1.135-.056 1.058-1.568-.076-1.512-1.136.057-1.059 1.569.076 1.512Zm13.671-2.346c1.01-.05.941-1.396-.068-1.346-1.012.05-.942 1.396.068 1.346Zm99.573-12.264c.693-.034.645-.956-.046-.922-.692.034-.646.956.046.922Zm-231.92 12.461c.888-.044.828-1.224-.059-1.18-.886.045-.826 1.224.059 1.18Zm-22.052.106c.581-.029.541-.803-.038-.774-.582.029-.543.803.038.774ZM331.94 51.454c.941-.047.877-1.3-.062-1.254-.942.047-.879 1.3.062 1.254Zm188.39-19.108c1.73-.086 1.613-2.39-.116-2.305-1.731.087-1.614 2.392.116 2.305Z" fill="#FFD280"/><path d="M742.142 19.95c2.063-.102 1.923-2.85-.137-2.748-2.064.103-1.923 2.851.137 2.749Zm-93.128 12.507c.858-.043.8-1.186-.056-1.143-.859.043-.801 1.186.056 1.143Zm-119.761-5.519c1.967-.098 1.833-2.717-.131-2.619-1.966.098-1.831 2.716.131 2.619ZM286.771 42.66c1.928-.095 1.797-2.663-.128-2.567-1.929.095-1.798 2.664.128 2.568Zm11.261 1.538c1.136-.056 1.058-1.57-.076-1.513-1.136.057-1.059 1.57.076 1.513Zm407.869-13.74c.927-.046.863-1.28-.062-1.234-.928.046-.865 1.28.062 1.234Zm-259.242-.926c1.469-.074 1.369-2.029-.096-1.956-1.468.073-1.369 2.029.096 1.956Zm-70.322 27.513c.817-.04.762-1.128-.054-1.087-.817.04-.761 1.128.054 1.087Zm-7.607-5.125c.845-.042.787-1.168-.056-1.126-.846.042-.789 1.168.056 1.126Z" fill="#B0EAC8"/></g><path d="M805.483 1.163c-8.25 1.278-24.752 4.588-32.587 7.831-9.48 3.924-24.26 11.655-17.605 17.67 2.563 2.316 15.723 3.46 19.026 3.863 3.084.375 7.417.645 11.749.915 4.337.27 8.674.54 11.764.916 2.223.271 4.596.606 6.3 2.197 5.132 4.77 1.714 17.702 8.33 18.994 6.502 1.268 8.268-12.058 14.823-13.225 6.634-1.181 8.576 17.955 14.903 20.331 4.657 1.755 7.073-19.228 14.832-18.66 7.767.566 5.896 12.139 10.641 12.485 4.736.347 7.266-9.842 15.35-9.007 12.082 1.245 32.054 6.126 43.363 10.843 9.701 4.042 20.043 10.632 29.778 6.353 4.464-1.965 8.014-6.022 12.478-8.003 4.762-2.116 13.153 5.797 18.232 6.292 4.455.434 8.137-.995 11.818-2.425 3.682-1.428 7.362-2.858 11.822-2.425 4.01.392 8.76 1.347 10.31 5.46.65 1.701 1.98 9.916 2.75 11.55 2.59 5.463 8.54-4.137 13.75-6.487 9.18-4.142 19.46-2.577 29.18-.945 6.53 1.1 13.66 2.55 17.89 8.164 2.7 3.606 5.6 9.325 9.56 7.518 2.58-1.176 3.5-5.18 6.16-6.092 3.56-1.225 5.98 3.814 6.86 7.805 1.51 6.845 3.03 13.691 4.54 20.536.67 3.022 2.12 6.731 4.92 6.569 2.64-.152 3.93-3.612 4.59-6.46 1.83-7.935-.27-24.225 5.5-23.803 5.76.42 5.7 12.823 11.83 12.905 7.42.096 3.21-22.938 8.85-22.526 5.64.413-1.26 17.284 5.79 17.8 7.06.515 10.53-14.362 20.55-19.034 1.99-.93 20.24-2.877 21.62-4.74 4.45-6.003-9.89-17.091-15.32-21.795-9.66-8.355-21.4-17.007-33.32-13.323-6.66 2.056-12.22 7.784-19.02 9.075-7.63 1.447-14.69-2.883-21.73-7.211-7.26-4.472-14.5-8.944-22.32-7.036-3.28.799-6.29 2.694-9.56 3.48-6.43 1.542-12.55-1.289-18.75-4.126-5.08-2.331-10.22-4.667-15.61-4.578-5.93.098-11.54 3.142-17.42 4.112-14.07 2.32-27.305-7.333-41.417-8.798-9.973-1.036-20.025 2.021-29.989 5.085-12.697 3.906-25.253 7.823-37.3 3.284-8.356-3.147-15.562-10.199-24.383-10.95-7.311-.62-14.349 3.226-21.634 4.323-10.842 1.634-21.184-2.814-31.544-7.264-9.947-4.27-19.902-8.54-30.35-7.443Z" fill="#FEA62C"/><mask id="b" style="mask-type:luminance" maskUnits="userSpaceOnUse" x="753" y="0" width="443" height="111"><path d="M805.482 1.159c-8.25 1.278-24.752 4.588-32.586 7.831-9.48 3.924-24.26 11.655-17.605 17.67 2.563 2.316 15.722 3.46 19.025 3.863 3.084.376 7.417.645 11.75.915 4.337.27 8.674.54 11.763.917 2.223.27 4.596.606 6.3 2.197 5.132 4.769 1.714 17.701 8.33 18.993 6.502 1.268 8.269-12.058 14.823-13.225 6.634-1.18 8.576 17.955 14.903 20.331 4.666 1.756 7.073-19.228 14.841-18.66 7.759.566 5.887 12.139 10.632 12.485 4.736.347 7.266-9.842 15.35-9.007 12.082 1.245 32.054 6.126 43.363 10.843 9.701 4.043 20.051 10.632 29.778 6.353 4.464-1.965 8.014-6.022 12.478-8.003 4.771-2.116 13.153 5.797 18.232 6.292 4.455.434 8.137-.995 11.819-2.425 3.682-1.428 7.362-2.858 11.822-2.425 4.01.392 8.76 1.347 10.31 5.46.65 1.701 1.98 9.916 2.75 11.55 2.58 5.463 8.55-4.137 13.75-6.487 9.18-4.142 19.46-2.577 29.18-.945 6.53 1.1 13.66 2.55 17.89 8.164 2.7 3.606 5.6 9.325 9.56 7.518 2.58-1.176 3.5-5.18 6.16-6.092 3.56-1.225 5.98 3.814 6.86 7.805 1.51 6.845 3.03 13.691 4.54 20.536.67 3.022 2.12 6.731 4.92 6.569 2.64-.152 3.93-3.612 4.59-6.46 1.82-7.934-.27-24.224 5.5-23.803 5.76.42 5.7 12.823 11.83 12.905 7.42.096 3.21-22.938 8.85-22.526 5.64.413-1.26 17.284 5.79 17.8 7.06.515 10.53-14.361 20.55-19.034 1.99-.93 20.24-2.877 21.62-4.74 4.45-6.002-9.89-17.091-15.32-21.795-9.66-8.354-21.4-17.007-33.32-13.323-6.66 2.056-12.22 7.784-19.02 9.075-7.63 1.447-14.69-2.883-21.73-7.211-7.26-4.472-14.5-8.944-22.33-7.035-3.27.798-6.28 2.694-9.56 3.48-6.42 1.541-12.54-1.29-18.74-4.127-5.08-2.33-10.23-4.667-15.61-4.578-5.93.098-11.54 3.142-17.42 4.112-14.07 2.32-27.306-7.333-41.418-8.798-9.973-1.036-20.025 2.021-29.989 5.085-12.697 3.907-25.253 7.823-37.3 3.284-8.356-3.147-15.561-10.198-24.383-10.95-7.311-.62-14.349 3.226-21.633 4.323-10.843 1.634-21.185-2.814-31.545-7.264-9.947-4.27-19.902-8.54-30.35-7.443Z" fill="#fff"/></mask><g mask="url(#b)"><path d="M843.802 45.744a.454.454 0 0 0-.07 0c.176.524.316.705.395.711.079.006.105-.164.061-.34-.044-.174-.166-.356-.386-.371Z" fill="#FFD280"/><path fill-rule="evenodd" clip-rule="evenodd" d="m1116.78 104.248-.04-.049c-.54-.574-1.07-1.15-1.44-1.96-4.03-8.818-.21-20.659-7.92-27.747-1.58-1.459-3.25-2.248-4.94-2.371-1.95-.143-3.93.609-5.85 2.245-1.22 1.042-2.79 3.713-4.26 4.169a1.36 1.36 0 0 1-.5.056c-1.64-.12-3.4-3.044-4.47-4.339-3.27-3.992-6.14-7.413-10.73-9.503-5.04-2.293-10.53-3.736-16.03-4.138-1.69-.124-3.37-.15-5.04-.073-7.06.325-14.16 2.308-20.7 5.369-1.41.666-3.57 2.456-5.22 2.337a1.777 1.777 0 0 1-.79-.246c-1.82-1.096-2.97-6.35-4.13-8.285-2.88-4.823-6.5-6.56-10.47-6.85-6.4-.468-13.69 2.818-20.254 3.01-.474.014-.949.003-1.415-.031-6.062-.443-11.616-4.639-17.591-5.7a16.941 16.941 0 0 0-1.731-.219c-5.21-.38-9.015 1.977-13.329 5.746-4.086 3.576-8.638 4.668-13.321 4.326-8.98-.655-18.435-6.573-26.018-10.369-8.575-4.298-18.021-8.346-27.625-9.048-3.128-.228-6.274-.103-9.411.485-2.882.539-5.808 1.548-8.444 2.994-1.722.941-4.718 4.204-6.467 4.297a2.38 2.38 0 0 1-.316-.002c-2.223-.162-3.893-3.215-5.474-4.632-1.688-1.51-3.559-2.622-5.721-2.78a7.302 7.302 0 0 0-.615-.02c-4.042.049-6.739 2.99-8.646 6.7-1.028 1.992-2.944 9.529-5.729 9.325a1.76 1.76 0 0 1-.677-.198c-2.785-1.432-2.934-10.25-3.945-13.218-1.494-4.338-4.806-7.754-9.024-8.063a8.54 8.54 0 0 0-1.177-.005c-6.573.414-8.128 7.177-11.871 11.812-.8.998-1.441 1.387-1.968 1.349-1.09-.08-1.696-1.98-2.259-4.107-.747-2.866-.641-6.061-1.696-8.82-2.214-5.807-7.67-6.099-12.644-6.485-5.996-.468-11.978-1.355-17.976-1.9 3.012.22 6.723-4.838 8.976-4.986a49.876 49.876 0 0 1 6.825.024c6.788.496 13.493 2.474 16.085 6.784 1.564 1.668 1.827 9.802 4.191 10.575.123.04.255.064.378.073 2.979.217 5.896-8.303 14.366-7.684 8.822.644 9.516 10.567 13.18 11.325.088.018.176.03.264.037 3.234.236 6.933-6.94 11.783-7.103a7.45 7.45 0 0 1 .747.016c2.012.147 4.051 1.109 6.072 2.07l.07.035c1.995.949 3.963 1.887 5.87 2.026a5.76 5.76 0 0 0 2.073-.207c4.191-1.244 8.075-3.67 12.372-4.741 6.063-1.514 12.178-1.857 18.268-1.412 8.628.63 17.195 2.848 25.437 5.555 6.845 2.248 13.594 4.806 20.421 7.11 2.012.679 3.664 1.032 5.114 1.138 4.569.334 7.205-1.777 13.198-3.86 2.425-.843 4.665-1.084 6.809-.927 5.888.43 10.993 3.871 16.924 6.15 1.309.503 2.495.767 3.593.848 5.923.432 9.348-4.477 15.618-6.44 1.49-.469 2.91-.6 4.28-.5 5.83.426 10.76 5.067 16.89 5.879.58.076 1.16.135 1.74.177 7.04.515 14.26-1.338 21.28-1.866 3.21-.243 6.41-.297 9.57-.066 4.75.346 9.4 1.333 13.92 3.282 6.54 2.818 10.62 14.413 17.28 14.898.71.052 1.45-.021 2.22-.243 7.14-2.056 13.18-10.527 20.02-10.027.77.056 1.54.223 2.32.52 3.87 1.474 8.47 10.983 12.71 11.292.09.007.18.009.28.007 4.12-.11 6.42-10.141 10.56-10.294 9.81-6.384 25.52 1.872 32.57-10.235 1.02-1.389 1.09-1.748 1.23-3.369.13-2.209-1.24-4.917-2.67-7.115.36.256.72.515 1.07.778a77.937 77.937 0 0 1 6.16 6.488c2.82 3.331 7.77 8.338 8.82 12.93.48 2.171-.41 2.542-2.78 3.477-4.44 1.754-9.21 2.15-13.63 4.054-4.15 1.778-7.3 4.506-9.9 8.512-1.04 1.604-2.19 4.943-3.74 5.97-.56.373-.98.522-1.28.5-1.2-.088-.8-2.721-1.21-4.772-.82-4.181-3.14-7.657-6.94-7.935-.47-.035-.96-.02-1.48.048-5.58.736-7.21 6.776-8.45 11.895-.21.851-.9 5.126-1.78 5.257l-.02.001c-.58-.042-3.73-6.44-4.7-7.147-1.1-.794-2.22-1.191-3.32-1.271-4.03-.295-7.81 3.634-9.36 7.837-2.43 6.542-.24 13.02-1.49 19.525-.07.387-.5 1.176-.93 2.045ZM843.733 45.743a.48.48 0 0 1 .071 0c.219.015.342.197.386.372.044.176.018.347-.061.341-.079-.006-.22-.188-.396-.713Z" fill="#FFD280"/><path d="M1116.04 110.179c-2.56-.186-3.9-3.688-4.54-6.567-1.51-6.844-3.03-13.69-4.54-20.535-.77-3.489-2.72-7.776-5.56-7.984a3.16 3.16 0 0 0-1.29.179c-2.67.912-3.59 4.916-6.16 6.092-.61.276-1.19.376-1.75.335-3.1-.226-5.53-4.798-7.82-7.853-4.23-5.615-11.36-7.065-17.89-8.164-3.79-.636-7.66-1.262-11.52-1.544-6.05-.442-12.06-.038-17.65 2.49-4.16 1.873-8.79 8.357-11.81 8.137-.76-.056-1.42-.545-1.95-1.651-.77-1.634-2.1-9.849-2.75-11.551-1.55-4.112-6.3-5.067-10.31-5.459-.14-.012-.27-.024-.41-.034-4.27-.312-7.83 1.072-11.401 2.457l-.009.002c-3.568 1.386-7.144 2.771-11.414 2.459-.132-.01-.273-.021-.405-.035-4.349-.423-11.115-6.279-15.965-6.633-.817-.06-1.582.037-2.267.342-4.464 1.98-8.014 6.037-12.477 8.003-2.707 1.19-5.466 1.54-8.233 1.336-7.206-.526-14.543-4.77-21.546-7.689-11.308-4.717-31.281-9.598-43.362-10.843a7.917 7.917 0 0 0-.273-.025c-7.873-.575-10.395 9.375-15.078 9.032-4.745-.346-2.873-11.919-10.632-12.486-7.513-.549-10.017 19.082-14.401 18.762a1.585 1.585 0 0 1-.44-.1c-6.054-2.278-8.101-19.938-14.094-20.376a3.268 3.268 0 0 0-.808.044c-6.362 1.134-8.216 13.74-14.279 13.298a4.718 4.718 0 0 1-.545-.073c-6.616-1.292-3.198-14.224-8.329-18.994-1.705-1.59-4.077-1.926-6.301-2.197-1.587-.193-3.501-.357-5.576-.509a600.392 600.392 0 0 0-6.187-.407 639.312 639.312 0 0 1-5.555-.361c5.721.304 10.585-2.316 16.369-1.864 4.974.386 10.43.678 12.645 6.484 1.054 2.76.949 5.954 1.696 8.82.562 2.128 1.168 4.028 2.258 4.107.527.039 1.168-.35 1.968-1.349 3.743-4.634 5.298-11.398 11.871-11.811a8.556 8.556 0 0 1 1.177.005c4.218.308 7.531 3.724 9.024 8.062 1.02 2.968 1.16 11.786 3.946 13.218.228.118.457.183.676.199 2.786.203 4.701-7.333 5.729-9.326 1.907-3.709 4.604-6.65 8.646-6.7a7.47 7.47 0 0 1 .616.02c2.161.158 4.033 1.27 5.72 2.78 1.581 1.417 3.251 4.47 5.474 4.633.105.007.211.008.316.002 1.749-.093 4.745-3.356 6.467-4.297 2.636-1.446 5.562-2.456 8.444-2.994 3.137-.589 6.283-.714 9.411-.485 9.604.702 19.05 4.75 27.626 9.048 7.583 3.796 17.037 9.714 26.017 10.369 4.684.342 9.235-.75 13.321-4.327 4.314-3.768 8.119-6.126 13.33-5.745.562.04 1.133.113 1.731.219 5.975 1.061 11.528 5.257 17.591 5.7.465.034.94.044 1.414.03 6.564-.191 13.854-3.477 20.254-3.01 3.97.29 7.59 2.028 10.47 6.85 1.16 1.936 2.31 7.19 4.13 8.285.25.148.51.225.79.246 1.66.12 3.81-1.67 5.22-2.337 6.54-3.06 13.64-5.044 20.7-5.368 1.67-.078 3.35-.051 5.04.072 5.5.402 10.99 1.845 16.03 4.138 4.59 2.091 7.46 5.511 10.73 9.504 1.07 1.294 2.83 4.219 4.47 4.338.17.013.33-.005.5-.056 1.47-.456 3.04-3.127 4.26-4.169 1.92-1.636 3.9-2.387 5.85-2.244 1.69.123 3.36.912 4.94 2.37 7.71 7.088 3.89 18.93 7.92 27.748.37.809.9 1.385 1.44 1.959l.04.049c.43-.869.86-1.658.93-2.044 1.25-6.506-.94-12.984 1.49-19.526 1.55-4.203 5.33-8.131 9.36-7.837 1.1.08 2.22.477 3.32 1.272.97.707 4.12 7.104 4.7 7.147l.02-.001c.88-.131 1.57-4.406 1.78-5.257 1.24-5.12 2.87-11.16 8.45-11.895a7.264 7.264 0 0 1 1.48-.049c3.8.278 6.12 3.754 6.94 7.935.41 2.051.01 4.684 1.21 4.772.3.022.72-.126 1.29-.5 1.54-1.026 2.69-4.366 3.73-5.97 2.6-4.005 5.75-6.734 9.9-8.512 4.42-1.903 9.19-2.3 13.63-4.053 2.37-.935 3.27-1.306 2.78-3.478-1.05-4.591-6-9.598-8.82-12.93a77.938 77.938 0 0 0-6.16-6.488c2.43 1.809 4.79 3.76 7.02 5.693 4.81 4.166 16.61 13.341 16.16 19.556a4.211 4.211 0 0 1-.84 2.24c-1.38 1.862-19.63 3.808-21.62 4.738-10.02 4.673-13.49 19.55-20.55 19.035-7.05-.516-.14-17.388-5.79-17.8-5.64-.412-1.43 22.622-8.84 22.525-.1-.002-.18-.005-.27-.012-5.87-.428-5.89-12.478-11.57-12.893-3.05-.223-3.9 4.236-4.3 9.66-.2 2.822-.29 5.904-.49 8.725-.15 1.999-.36 3.868-.71 5.419-.66 2.847-1.95 6.307-4.59 6.459-.13.008-.26.007-.38-.002Z" fill="#FFA931"/><path d="M821.151 23.219c-.958-.07-.835-1.728.123-1.658.958.07.835 1.728-.123 1.658Zm2.055-8.631c-.852-.063-.747-1.535.106-1.473.852.063.746 1.535-.106 1.473Zm56.439 18.724c-.844-.061-.73-1.516.105-1.455.844.062.738 1.517-.105 1.455Zm11.869-2.244c-.439-.032-.386-.786.053-.755.439.032.378.787-.053.755Zm78.739-.07c-1.011-.074-.888-1.823.123-1.75 1.019.074.887 1.823-.123 1.75Zm20.271-5.646c-.536-.04-.466-.96.07-.921.527.039.466.96-.07.92Zm97.836 5.462c-.41-.03-.36-.746.06-.715.41.03.36.745-.06.715Zm-5.9 3.204c-.46-.034-.9-.421-.68-1.115l.06-.18c.11-.387.44-.56.75-.537.31.022.61.242.68.642l.03.185c.1.72-.38 1.038-.84 1.005Zm75.92 4.571c-.75-.055-.65-1.345.09-1.29.74.054.66 1.344-.09 1.29ZM780.697 13.855c-.404-.03-.353-.727.051-.698.404.03.352.728-.051.698Zm-7.612 2.261c-.917-.066-.8-1.65.116-1.583.916.067.799 1.65-.116 1.583Zm168.322 21.341c-.87-.064-.765-1.573.114-1.51.87.064.756 1.574-.114 1.51Zm-10.466-2.424c-.773-.057-.676-1.4.106-1.344.773.057.676 1.4-.106 1.344Zm-76.364-12.9c-.536-.04-.466-.96.061-.92.536.038.466.959-.061.92ZM1033.01 36.09c-.69-.05-.6-1.228.09-1.178.68.05.59 1.227-.09 1.178Zm17 .243c-.45-.032-.39-.806.06-.773.45.032.39.806-.06.773Zm79.08 14.713c-.72-.053-.63-1.304.1-1.251.72.053.63 1.304-.1 1.251ZM984.462 30.738c-1.335-.097-1.168-2.399.167-2.301 1.327.097 1.16 2.399-.167 2.301Z" fill="#FFD280"/><path d="M813.812 16.912c-1.59-.116-1.388-2.86.202-2.744 1.591.116 1.38 2.86-.202 2.744Zm71.394 13.098c-.659-.048-.58-1.19.079-1.141.667.048.58 1.19-.079 1.141Zm92.562-4.74c-1.521-.11-1.318-2.725.193-2.614 1.511.11 1.318 2.725-.193 2.615Zm186.462 17.286c-1.48-.108-1.29-2.673.19-2.564 1.49.108 1.3 2.673-.19 2.564Zm-8.73 1.464c-.88-.063-.77-1.574.11-1.51.87.064.76 1.574-.11 1.51ZM841.403 27.645c-.721-.053-.624-1.285.087-1.233.712.052.624 1.285-.087 1.233Zm199.967.755c-1.13-.082-.98-2.035.14-1.952 1.14.082.99 2.035-.14 1.952Zm53.29 27.945c-.63-.046-.55-1.132.08-1.086.63.046.55 1.132-.08 1.086Zm6.04-5.071c-.65-.047-.56-1.172.08-1.124.66.047.57 1.172-.08 1.124Z" fill="#B0EAC8"/></g><path d="M1205.25 35.234c-10.07.292-30.27 1.628-39.98 3.932-11.74 2.788-30.17 8.745-22.53 15.548 2.94 2.619 18.78 5.332 22.75 6.13 3.71.743 8.93 1.53 14.16 2.316 5.23.789 10.46 1.576 14.16 2.32 2.68.537 5.53 1.154 7.48 2.947 5.88 5.376.85 17.885 8.76 19.966 7.78 2.043 10.85-11.056 18.86-11.44 8.11-.388 9.13 18.959 16.61 22.086 5.52 2.311 9.91-18.36 19.27-16.867 9.34 1.493 6.28 12.829 11.99 13.74 5.72.914 9.48-8.963 19.22-7.163 14.52 2.686 38.35 9.946 51.71 16.009 11.45 5.194 23.52 13.012 35.59 9.899 5.55-1.43 10.12-5.059 15.66-6.504 5.91-1.545 15.51 7.361 21.62 8.461 5.36.966 9.92-.022 14.48-1.011 4.55-.987 9.11-1.975 14.47-1.011 4.82.871 10.51 2.391 12.11 6.685.65 1.776 1.7 10.141 2.52 11.865 2.74 5.765 10.62-3.112 17.09-4.838 11.39-3.042 23.71-.252 35.36 2.539 7.84 1.879 16.37 4.178 21.08 10.29 3.04 3.926 6.14 9.985 11.06 8.652 3.2-.867 4.6-4.755 7.88-5.35 4.39-.798 6.97 4.524 7.76 8.616 1.35 7.018 2.7 14.036 4.06 21.054.6 3.098 2.09 6.975 5.5 7.149 3.2.162 5-3.14 5.99-5.905 2.78-7.707 1.38-24.228 8.32-23.12 6.94 1.109 6.01 13.49 13.42 14.303 8.97.983 5.48-22.528 12.28-21.442 6.8 1.085-2.73 17.113 5.78 18.47 8.49 1.357 13.73-13.088 26.18-16.56 2.48-.691 24.7-.456 26.49-2.151 5.8-5.466-10.78-18.254-17.03-23.601-11.09-9.497-24.7-19.541-39.39-17.286-8.19 1.26-15.31 6.318-23.64 6.794-9.34.535-17.58-4.633-25.79-9.796-8.49-5.334-16.93-10.665-26.54-9.694-4.01.407-7.79 1.941-11.81 2.336-7.88.772-15.09-2.786-22.39-6.36-6-2.936-12.05-5.882-18.57-6.436-7.19-.61-14.18 1.761-21.36 2.028-17.2.636-32.54-10.585-49.52-13.733-12-2.226-24.37-.372-36.64 1.5-15.65 2.385-31.1 4.799-45.37-1.175-9.89-4.14-18.12-12.043-28.75-13.847-8.8-1.493-17.58 1.508-26.48 1.734-13.23.338-25.43-5.339-37.66-11.021-11.74-5.451-23.5-10.907-36.22-11.058Z" fill="#FEA62C"/><mask id="c" style="mask-type:luminance" maskUnits="userSpaceOnUse" x="1140" y="35" width="534" height="147"><path d="M1205.27 35.23c-10.09.292-30.28 1.629-39.99 3.932-11.75 2.788-30.17 8.745-22.54 15.548 2.94 2.62 18.78 5.332 22.76 6.13 3.7.743 8.92 1.53 14.15 2.316 5.23.789 10.46 1.576 14.17 2.32 2.68.537 5.52 1.154 7.48 2.948 5.87 5.375.84 17.885 8.75 19.965 7.78 2.043 10.85-11.056 18.86-11.44 8.11-.388 9.13 18.96 16.62 22.087 5.51 2.31 9.9-18.361 19.26-16.868 9.35 1.493 6.28 12.829 11.99 13.74 5.72.914 9.48-8.963 19.22-7.163 14.52 2.686 38.35 9.946 51.72 16.009 11.45 5.194 23.51 13.012 35.58 9.899 5.55-1.43 10.12-5.059 15.66-6.504 5.91-1.545 15.51 7.361 21.63 8.462 5.36.965 9.91-.023 14.47-1.012 4.55-.987 9.11-1.975 14.47-1.011 4.82.871 10.51 2.391 12.11 6.685.66 1.777 1.7 10.142 2.52 11.866 2.75 5.765 10.62-3.113 17.09-4.838 11.39-3.042 23.72-.253 35.37 2.538 7.83 1.879 16.36 4.178 21.08 10.29 3.03 3.926 6.13 9.985 11.05 8.653 3.2-.868 4.6-4.756 7.88-5.351 4.39-.798 6.97 4.524 7.76 8.616 1.35 7.018 2.71 14.036 4.06 21.054.6 3.098 2.09 6.976 5.5 7.149 3.2.162 5-3.14 5.99-5.905 2.78-7.707 1.38-24.228 8.32-23.12 6.95 1.109 6.01 13.491 13.42 14.303 8.97.983 5.48-22.528 12.29-21.442 6.8 1.085-2.74 17.113 5.77 18.47 8.49 1.357 13.73-13.088 26.18-16.56 2.48-.69 24.7-.456 26.5-2.151 5.79-5.466-10.78-18.253-17.03-23.601-11.1-9.497-24.7-19.541-39.4-17.286-8.19 1.26-15.31 6.318-23.64 6.794-9.34.535-17.58-4.633-25.79-9.796-8.49-5.334-16.93-10.665-26.54-9.693-4.01.406-7.78 1.94-11.81 2.335-7.88.772-15.09-2.786-22.38-6.359-6.01-2.936-12.06-5.883-18.58-6.437-7.19-.61-14.18 1.762-21.36 2.028-17.2.636-32.54-10.585-49.52-13.733-12-2.225-24.37-.372-36.64 1.5-15.63 2.385-31.1 4.799-45.37-1.175-9.89-4.14-18.12-12.043-28.75-13.847-8.8-1.492-17.58 1.509-26.47 1.734-13.24.339-25.44-5.338-37.67-11.02-11.74-5.452-23.5-10.907-36.2-11.059Z" fill="#fff"/></mask><g mask="url(#c)"><path d="M1248.52 84.34a.49.49 0 0 0-.08-.008c.18.546.33.744.43.76.1.015.15-.152.09-.334a.52.52 0 0 0-.44-.418Z" fill="#FFD280"/><path fill-rule="evenodd" clip-rule="evenodd" d="m1574.8 175.373-.05-.054c-.61-.637-1.22-1.277-1.61-2.129-4.25-9.289 1.19-20.661-7.64-28.661-1.82-1.646-3.78-2.633-5.81-2.957-2.36-.376-4.81.138-7.24 1.543-1.56.895-3.65 3.375-5.45 3.655-.21.032-.41.029-.61-.003-1.98-.316-3.9-3.446-5.1-4.866-3.69-4.38-6.92-8.139-12.34-10.776a68.559 68.559 0 0 0-19.11-6.047 62.536 62.536 0 0 0-6.1-.674c-8.55-.518-17.29.615-25.41 2.892-1.76.497-4.49 2.026-6.47 1.711a2.52 2.52 0 0 1-.95-.34c-2.12-1.311-3.15-6.696-4.42-8.768-3.15-5.161-7.41-7.329-12.2-8.093-7.69-1.23-16.76 1.181-24.71.589-.58-.043-1.16-.11-1.72-.201-7.29-1.165-13.73-6.019-20.88-7.793-.72-.176-1.41-.317-2.08-.425-6.28-1.002-11.05.898-16.53 4.148-5.2 3.085-10.79 3.632-16.43 2.73-10.82-1.725-21.85-8.766-30.76-13.462-10.08-5.317-21.23-10.488-32.8-12.336-3.77-.601-7.58-.852-11.42-.639-3.54.193-7.14.853-10.43 1.983-2.15.734-6 3.636-8.12 3.52a3.46 3.46 0 0 1-.39-.04c-2.67-.428-4.48-3.676-6.3-5.281-1.94-1.71-4.12-3.044-6.73-3.46-.25-.04-.49-.07-.75-.093-4.89-.434-8.36 2.182-10.93 5.66-1.37 1.868-4.22 9.166-7.58 8.63a2.564 2.564 0 0 1-.8-.278c-3.27-1.763-2.83-10.589-3.86-13.675-1.5-4.51-5.27-8.318-10.36-9.13-.45-.074-.93-.123-1.42-.145-7.99-.372-10.33 6.198-15.18 10.381-1.04.901-1.85 1.213-2.48 1.112-1.32-.21-1.92-2.18-2.45-4.371-.71-2.953-.35-6.131-1.43-9.013-2.28-6.065-8.86-7.008-14.85-7.987-7.23-1.183-17.32 1.26-24.54 0 3.63.58-27.77-6.482-25.04-6.36 2.64.117 44.63-1.2 47.42-.754 8.18 1.306 16.16 4.082 18.99 8.697 1.78 1.852 1.53 10.008 4.34 11.063.15.054.3.093.45.117 3.58.573 7.72-7.588 17.92-5.96 10.63 1.697 10.78 11.692 15.16 12.885.11.03.21.052.33.07 3.88.62 8.86-6.105 14.74-5.688.31.022.61.057.91.105 2.42.388 4.82 1.591 7.19 2.792l.09.044c2.35 1.185 4.67 2.358 6.97 2.725.84.134 1.68.16 2.52.04 5.16-.742 10.02-2.701 15.3-3.26 7.45-.787 14.87-.399 22.2.772 10.4 1.66 20.61 4.898 30.4 8.586 8.12 3.062 16.12 6.423 24.22 9.539 2.39.919 4.36 1.468 6.11 1.747 5.51.88 8.84-.915 16.24-2.279 2.99-.553 5.72-.526 8.31-.113 7.09 1.131 13.03 5.179 20.05 8.163 1.54.659 2.96 1.064 4.29 1.275 7.14 1.14 11.62-3.354 19.34-4.567 1.84-.29 3.57-.252 5.22.011 7.02 1.122 12.67 6.346 20.03 7.889.69.145 1.39.273 2.09.384 8.49 1.356 17.35.367 25.87.676 3.92.141 7.79.469 11.61 1.078 5.71.912 11.28 2.454 16.61 4.94 7.71 3.596 11.85 15.664 19.88 16.944.85.137 1.75.152 2.69.022 8.78-1.202 16.68-8.941 24.94-7.624.92.146 1.84.405 2.77.796 4.57 1.934 9.47 11.981 14.58 12.795.11.018.23.032.35.041 4.99.382 8.48-9.362 13.49-9.022 12.32-5.205 30.75 4.918 40.13-6.334 1.33-1.265 1.44-1.617 1.71-3.219.32-2.19-1.15-5.059-2.72-7.425.42.299.83.599 1.23.904a90.31 90.31 0 0 1 7 7.217c3.18 3.663 8.84 9.256 9.78 13.967.44 2.227-.68 2.491-3.6 3.142-5.51 1.221-11.3 1.048-16.79 2.421-5.14 1.281-9.14 3.631-12.56 7.321-1.37 1.479-3 4.676-4.94 5.517-.71.306-1.22.404-1.6.345-1.43-.23-.77-2.813-1.12-4.909-.71-4.275-3.26-8.024-7.85-8.756-.56-.089-1.16-.133-1.78-.127-6.82.068-9.21 5.906-11.07 10.872-.31.825-1.45 5.013-2.53 5.037h-.02c-.69-.112-4.05-6.877-5.19-7.7-1.27-.925-2.6-1.455-3.93-1.666-4.85-.774-9.69 2.698-11.87 6.71-3.39 6.245-1.19 12.976-3.15 19.326-.12.378-.69 1.116-1.27 1.931Zm-326.36-91.036c.03.001.06.004.08.008.27.042.4.238.44.418.06.183.01.35-.09.334-.1-.016-.25-.214-.43-.76Z" fill="#FFD280"/><path d="M1573.48 181.201c-3.08-.49-4.46-4.148-5.03-7.1-1.35-7.018-2.71-14.036-4.06-21.053-.69-3.577-2.75-8.092-6.19-8.641a4.599 4.599 0 0 0-1.57.026c-3.28.594-4.68 4.483-7.88 5.349a5 5 0 0 1-2.13.127c-3.73-.596-6.36-5.453-8.92-8.779-4.72-6.112-13.25-8.411-21.08-10.291-4.55-1.086-9.19-2.174-13.83-2.917-7.29-1.162-14.59-1.477-21.54.379-5.16 1.376-11.21 7.3-14.84 6.72-.92-.147-1.7-.714-2.25-1.882-.82-1.724-1.86-10.088-2.52-11.866-1.6-4.293-7.29-5.813-12.11-6.684-.17-.029-.33-.057-.49-.083-5.14-.821-9.56.136-13.97 1.093l-.01.001c-4.42.958-8.83 1.915-13.98 1.094-.17-.026-.33-.053-.49-.083-5.23-.942-13.02-7.599-18.86-8.532-.98-.157-1.92-.152-2.77.07-5.54 1.447-10.11 5.075-15.66 6.505-3.35.866-6.71.886-10.06.352-8.67-1.385-17.26-6.502-25.52-10.252-13.37-6.063-37.2-13.322-51.72-16.008h-.01c-.11-.02-.22-.04-.33-.058-9.49-1.514-13.23 8.124-18.88 7.222-5.71-.912-2.64-12.249-11.99-13.742-9.05-1.445-13.45 17.865-18.74 17.022a2.227 2.227 0 0 1-.52-.153c-7.17-2.998-8.41-20.881-15.63-22.034-.32-.05-.65-.069-.99-.053-7.77.373-10.89 12.744-18.2 11.578-.22-.035-.44-.08-.66-.138-7.91-2.08-2.88-14.59-8.75-19.966-1.96-1.793-4.8-2.41-7.48-2.947-1.9-.383-4.21-.775-6.71-1.174-2.37-.379-4.92-.762-7.46-1.146-2.27-.342-4.55-.685-6.69-1.024 6.89.987 12.97-1.049 19.94.093 5.99.98 12.57 1.922 14.85 7.987 1.08 2.881.72 6.06 1.43 9.013.53 2.191 1.13 4.16 2.45 4.37.63.102 1.43-.21 2.48-1.111 4.85-4.183 7.19-10.753 15.18-10.381.49.021.97.071 1.42.145 5.09.812 8.86 4.619 10.36 9.13 1.03 3.086.59 11.912 3.86 13.674.27.145.54.237.8.28 3.36.535 6.21-6.763 7.58-8.631 2.57-3.478 6.04-6.094 10.93-5.66.26.022.5.054.75.093 2.61.416 4.79 1.75 6.73 3.46 1.82 1.604 3.63 4.853 6.3 5.28.13.02.26.034.39.04 2.12.117 5.97-2.785 8.12-3.52 3.29-1.129 6.89-1.789 10.43-1.982 3.84-.213 7.65.037 11.42.639 11.57 1.847 22.72 7.018 32.8 12.335 8.91 4.697 19.94 11.738 30.76 13.463 5.64.902 11.23.355 16.43-2.73 5.48-3.25 10.25-5.15 16.53-4.148.67.107 1.36.249 2.08.425 7.15 1.774 13.58 6.628 20.88 7.793.56.09 1.14.158 1.72.201 7.95.591 17.02-1.819 24.71-.589 4.79.764 9.05 2.931 12.2 8.092 1.26 2.072 2.3 7.457 4.42 8.768.29.178.6.287.95.341 1.98.315 4.71-1.214 6.47-1.711 8.12-2.277 16.86-3.411 25.41-2.892 2.04.123 4.07.35 6.1.674a68.632 68.632 0 0 1 19.11 6.048c5.42 2.636 8.65 6.395 12.34 10.774 1.2 1.42 3.12 4.551 5.1 4.867.2.032.4.034.61.003 1.8-.281 3.89-2.76 5.45-3.655 2.43-1.406 4.88-1.92 7.24-1.544 2.03.325 3.99 1.311 5.81 2.958 8.83 7.999 3.39 19.371 7.64 28.661.39.852 1 1.492 1.61 2.13l.05.053c.58-.816 1.15-1.554 1.27-1.931 1.96-6.35-.24-13.081 3.15-19.326 2.18-4.012 7.02-7.485 11.87-6.71 1.33.211 2.66.741 3.93 1.666 1.13.822 4.49 7.588 5.19 7.7h.02c1.08-.025 2.23-4.212 2.53-5.037 1.86-4.966 4.25-10.804 11.07-10.872.62-.007 1.22.037 1.78.127 4.58.732 7.14 4.481 7.85 8.755.35 2.097-.31 4.68 1.12 4.91.38.06.89-.039 1.6-.346 1.94-.84 3.57-4.038 4.94-5.516 3.42-3.691 7.42-6.04 12.55-7.321 5.5-1.373 11.29-1.2 16.8-2.422 2.92-.651 4.04-.913 3.6-3.142-.94-4.71-6.6-10.304-9.78-13.967a90.13 90.13 0 0 0-7-7.216c2.82 2.097 5.53 4.326 8.1 6.524 5.53 4.736 19.17 15.309 18.19 21.463-.13.793-.5 1.514-1.16 2.138-1.8 1.695-24.02 1.46-26.5 2.151-12.45 3.471-17.68 17.917-26.18 16.56-8.51-1.357 1.03-17.385-5.77-18.471-6.81-1.086-3.32 22.425-12.29 21.443-.1-.013-.21-.027-.31-.043-7.07-1.129-6.26-13.167-13.11-14.259-3.67-.587-5.01 3.765-5.87 9.134-.44 2.794-.76 5.864-1.21 8.656-.31 1.981-.69 3.822-1.24 5.328-.99 2.767-2.79 6.069-5.99 5.906a4.391 4.391 0 0 1-.47-.05Z" fill="#FFA931"/><path d="M1222.69 59.136c-1.16-.184-.9-1.826.25-1.641 1.16.184.9 1.826-.25 1.642Zm3.08-8.369c-1.03-.164-.8-1.621.23-1.457 1.03.164.79 1.621-.23 1.457Zm66.99 25.44c-1.01-.162-.78-1.602.23-1.44 1.02.162.79 1.602-.23 1.44Zm14.52-.828c-.52-.084-.4-.831.12-.747.53.084.41.83-.12.747Zm95.29 9.333c-1.22-.195-.94-1.926.28-1.732 1.23.195.94 1.927-.28 1.732Zm24.93-3.222c-.64-.103-.49-1.014.15-.912.64.103.49 1.014-.15.912Zm-253.12-36.53c-.49-.077-.38-.77.1-.692.5.078.38.77-.1.693Zm-9.37 1.348c-1.1-.176-.86-1.744.25-1.568 1.11.177.85 1.744-.25 1.568Zm202.21 41.415c-1.06-.17-.81-1.663.23-1.495 1.06.168.82 1.662-.23 1.495Zm-12.49-3.673c-.94-.15-.73-1.48.21-1.331.94.15.72 1.48-.21 1.33Zm-91.52-22.005c-.65-.103-.5-1.014.14-.912.64.102.5 1.014-.14.912Zm214.96 35.242c-.83-.132-.64-1.298.18-1.167.83.131.64 1.297-.18 1.166Zm20.56 2.283c-.54-.086-.42-.852.12-.766.55.086.42.851-.12.766Zm-78.94-13.423c-1.61-.257-1.24-2.535.36-2.28 1.61.257 1.24 2.536-.36 2.28Z" fill="#FFD280"/><path d="M1214.24 51.964c-1.91-.305-1.48-3.023.44-2.718 1.91.306 1.47 3.023-.44 2.718Zm85.48 21.61c-.79-.127-.61-1.257.19-1.13.79.127.61 1.257-.19 1.13Zm112.34 6.311c-1.82-.29-1.4-2.88.42-2.589 1.82.291 1.4 2.88-.42 2.59Zm-165.18-13.904c-.86-.137-.67-1.357.19-1.22.86.137.67 1.357-.19 1.22Zm241.94 24.625c-1.36-.217-1.05-2.15.31-1.933 1.36.217 1.06 2.15-.31 1.933Z" fill="#B0EAC8"/></g><path d="M-117.945 115.567c-8.433 3.817-25.063 12.167-32.462 17.729-8.952 6.729-22.428 18.761-13.535 22.416 3.426 1.406 17.815-1.639 21.462-2.292 3.404-.612 8.11-1.716 12.816-2.82 4.71-1.106 9.421-2.211 12.828-2.823 2.461-.442 5.088-.866 7.387.116 6.894 2.944 7.094 16.373 14.543 15.527 7.32-.834 5.241-14.12 11.889-17.295 6.728-3.214 14.504 14.455 21.957 14.738 5.503.21 1.834-20.595 10.288-22.494 8.454-1.898 9.905 9.746 15.07 8.585 5.166-1.16 4.828-11.687 13.712-13.433 13.263-2.607 36.038-4.224 49.521-3.275 11.554.813 24.564 3.854 33.677-3.293 4.183-3.282 6.762-8.273 10.936-11.569 4.462-3.521 15.77 1.402 21.34.277 4.884-.985 8.39-3.508 11.896-6.033 3.505-2.521 7.01-5.045 11.893-6.031 4.402-.887 9.756-1.469 12.643 1.969 1.194 1.425 5.065 8.852 6.375 10.171 4.384 4.407 7.888-6.638 12.744-10.519 8.562-6.843 20.001-8.58 30.86-10.075 7.312-1.007 15.354-1.863 21.531 2.173 3.968 2.593 8.763 7.146 12.455 4.173 2.399-1.933 2.196-6.049 4.76-7.756 3.437-2.29 7.516 1.765 9.646 5.3 3.653 6.064 7.308 12.127 10.962 18.19 1.613 2.677 4.261 5.765 7.209 4.728 2.767-.973 3.114-4.684 2.969-7.611-.404-8.158-7.486-23.062-1.209-24.471 6.278-1.41 9.906 10.457 16.472 8.608 7.949-2.24-3.405-22.921 2.744-24.302 6.149-1.381 3.797 16.908 11.484 15.182 7.685-1.725 6.96-17.028 16.262-24.642 1.854-1.516 20.76-9.115 21.677-11.327 2.958-7.133-15.649-13.218-22.852-16.002-12.79-4.947-27.903-9.52-39.534-2.253-6.5 4.06-10.719 11.276-17.6 14.649-7.721 3.783-16.546 1.866-25.344-.057-9.09-1.987-18.151-3.982-25.935.301-3.257 1.792-5.905 4.549-9.169 6.33-6.399 3.493-13.78 2.714-21.234 1.95-6.129-.626-12.307-1.242-18.032.537-6.302 1.958-11.378 6.628-17.364 9.403-14.339 6.642-31.34 1.581-46.845 4.62-10.952 2.145-20.774 8.227-30.498 14.287-12.393 7.724-24.629 15.413-38.848 14.865-9.858-.378-19.642-4.85-29.29-2.792-7.985 1.704-14.357 7.592-21.809 10.931-11.085 4.969-23.448 3.972-35.836 2.978-11.885-.952-23.792-1.899-34.612 2.432Z" fill="#FEA62C"/><mask id="d" style="mask-type:luminance" maskUnits="userSpaceOnUse" x="-167" y="31" width="485" height="133"><path d="M-117.946 115.57c-8.433 3.817-25.063 12.168-32.462 17.73-8.952 6.729-22.428 18.761-13.535 22.416 3.426 1.406 17.815-1.639 21.462-2.292 3.404-.612 8.11-1.716 12.816-2.821 4.71-1.105 9.421-2.21 12.828-2.822 2.461-.442 5.088-.866 7.387.116 6.894 2.944 7.094 16.373 14.543 15.527 7.32-.834 5.241-14.12 11.889-17.295 6.728-3.214 14.504 14.454 21.957 14.738 5.503.21 1.834-20.595 10.288-22.494 8.455-1.898 9.905 9.746 15.07 8.585 5.166-1.16 4.829-11.688 13.712-13.433 13.263-2.608 36.038-4.224 49.521-3.275 11.554.812 24.564 3.854 33.677-3.294 4.183-3.281 6.762-8.272 10.937-11.568 4.461-3.521 15.77 1.402 21.34.277 4.883-.985 8.389-3.508 11.895-6.033 3.505-2.521 7.01-5.045 11.893-6.031 4.402-.887 9.756-1.469 12.643 1.969 1.194 1.425 5.065 8.852 6.375 10.171 4.384 4.407 7.888-6.638 12.744-10.52 8.562-6.842 20.001-8.579 30.86-10.075 7.312-1.007 15.354-1.862 21.531 2.174 3.968 2.593 8.763 7.146 12.455 4.173 2.399-1.933 2.196-6.049 4.76-7.756 3.437-2.29 7.516 1.764 9.646 5.3 3.653 6.064 7.308 12.127 10.962 18.19 1.613 2.677 4.261 5.765 7.209 4.728 2.767-.973 3.114-4.684 2.97-7.611-.405-8.158-7.487-23.062-1.21-24.471 6.278-1.41 9.906 10.457 16.472 8.608 7.949-2.24-3.405-22.921 2.744-24.302 6.149-1.381 3.797 16.908 11.484 15.182 7.686-1.725 6.96-17.028 16.262-24.642 1.854-1.516 20.76-9.115 21.677-11.327 2.958-7.133-15.649-13.218-22.852-16.003-12.79-4.946-27.903-9.52-39.534-2.252-6.499 4.059-10.719 11.276-17.6 14.648-7.721 3.784-16.546 1.867-25.344-.056-9.09-1.987-18.151-3.982-25.935.3-3.257 1.793-5.905 4.55-9.169 6.331-6.399 3.493-13.78 2.714-21.234 1.95-6.129-.626-12.307-1.242-18.032.537-6.302 1.958-11.378 6.628-17.364 9.402-14.339 6.642-31.34 1.582-46.844 4.62-10.953 2.146-20.775 8.228-30.499 14.288C30.056 94.88 17.82 102.57 3.601 102.022c-9.858-.378-19.642-4.851-29.29-2.792-7.985 1.704-14.357 7.592-21.809 10.931-11.085 4.969-23.448 3.972-35.836 2.978-11.885-.952-23.792-1.9-34.612 2.431Z" fill="#fff"/></mask><g mask="url(#d)"><path d="M246.04 122.072c-2.779.625-5.255-2.299-6.792-4.849-3.653-6.062-7.309-12.125-10.961-18.19-1.862-3.09-5.213-6.575-8.321-5.877a3.932 3.932 0 0 0-1.325.578c-2.564 1.707-2.361 5.823-4.761 7.756a4.272 4.272 0 0 1-1.763.869c-3.374.757-7.33-2.846-10.691-5.043-6.178-4.036-14.22-3.18-21.532-2.173-4.231.583-8.551 1.202-12.754 2.147-6.584 1.478-12.88 3.753-18.106 7.928-3.872 3.095-6.885 10.745-10.169 11.483-.834.188-1.687-.072-2.575-.963-1.31-1.319-5.181-8.747-6.375-10.171-2.886-3.438-8.241-2.857-12.643-1.969-.149.031-.297.061-.443.095-4.65 1.044-8.048 3.488-11.445 5.933l-.005.003c-3.399 2.447-6.797 4.893-11.45 5.938-.148.033-.295.064-.445.094-4.767.963-13.735-2.503-19.02-1.316-.89.199-1.677.532-2.32 1.039-4.175 3.296-6.754 8.287-10.937 11.569-2.536 1.989-5.371 3.188-8.393 3.866-7.844 1.762-16.944.014-25.283-.573-13.484-.949-36.259.668-49.521 3.275l-.307.064c-8.568 1.925-8.3 12.224-13.405 13.369-5.166 1.161-6.616-10.482-15.07-8.584-8.183 1.838-5.01 21.378-9.783 22.45a1.939 1.939 0 0 1-.505.044c-7.141-.272-14.577-16.502-21.106-15.035-.286.064-.57.162-.852.297-6.458 3.084-4.681 15.71-11.284 17.192a5.905 5.905 0 0 1-.605.103c-7.449.846-7.648-12.584-14.543-15.527-2.299-.983-4.926-.558-7.386-.116-1.75.313-3.842.758-6.102 1.265a758.006 758.006 0 0 0-6.726 1.557 707.409 707.409 0 0 1-6.725 1.557c-2.256.506-4.345.95-6.092 1.264-3.646.652-18.035 3.698-21.461 2.291-1.676-.689-2.558-1.675-2.825-2.868-.469-2.093.957-4.822 3.303-7.69-1.004 2.414-2.067 6.794-.238 7.978 1.112.718 4.605-.237 5.786-.411 6.504-.958 12.944-2.473 19.378-3.81 6.565-1.365 13.216-2.399 19.76-3.839 5.419-1.192 11.331-2.63 15.429 2.22 1.946 2.305 2.778 5.391 4.437 7.893 1.23 1.856 2.44 3.481 3.626 3.215.574-.129 1.143-.702 1.706-1.909 2.614-5.604 2.256-12.553 9.153-15.015.419-.15.838-.272 1.257-.366 4.6-1.032 9.149 1.19 12.032 4.866 1.971 2.514 4.753 10.893 8.15 11.385.28.041.54.032.778-.021 3.035-.681 2.842-8.486 3.342-10.711.93-4.143 2.934-7.801 7.235-9.119.222-.067.445-.126.666-.175 2.357-.53 4.683-.055 6.933.857 2.113.856 4.807 3.247 7.225 2.704a3.23 3.23 0 0 0 .342-.098c1.84-.639 4.066-4.699 5.62-6.138 2.385-2.211 5.203-4.093 8.124-5.515 3.176-1.55 6.495-2.657 9.901-3.422 10.465-2.351 21.75-1.452 32.187-.043 9.221 1.243 21.08 3.923 30.86 1.726 5.104-1.146 9.642-3.622 12.94-8.324 3.477-4.955 6.842-8.405 12.517-9.68a21.33 21.33 0 0 1 1.91-.334c6.693-.863 13.877 1.397 20.475-.085.51-.115 1.016-.252 1.519-.415 6.953-2.248 13.765-7.682 20.731-9.246 4.324-.97 8.708-.45 13.218 3.252 1.812 1.485 4.606 6.142 6.874 6.617.308.064.615.053.923-.015 1.792-.405 3.558-2.79 4.877-3.874 6.063-4.979 13.054-9.106 20.489-11.635a52.623 52.623 0 0 1 5.405-1.516c5.998-1.347 12.286-1.694 18.345-1.087 5.526.553 9.609 2.918 14.295 5.702 1.521.902 4.266 3.144 6.055 2.742.183-.04.356-.11.518-.211 1.426-.896 2.316-3.944 3.309-5.323 1.561-2.165 3.452-3.507 5.581-3.985 1.837-.412 3.85-.183 5.976.712 10.336 4.349 9.79 16.861 16.709 24.02.636.657 1.382 1.039 2.125 1.418l.062.033c.202-.965.416-1.852.38-2.244-.604-6.608-4.868-12.109-4.226-19.121.413-4.505 3.276-9.446 7.661-10.43 1.199-.27 2.513-.243 3.921.17 1.255.368 6.513 5.493 7.146 5.35a.058.058 0 0 0 .016-.006c.902-.401.375-4.705.341-5.583-.204-5.28-.262-11.562 5.485-14.022a8.963 8.963 0 0 1 1.56-.51c4.143-.93 7.651 1.662 9.774 5.398 1.042 1.832 1.408 4.47 2.706 4.18.338-.077.737-.349 1.225-.882 1.346-1.467 1.586-5.021 2.217-6.88 1.578-4.642 2.504 3.972 6.396.972-4.833 7.468-3.077 15.068-10.763 16.794-7.687 1.726-5.335-16.564-11.483-15.183-6.149 1.381 5.204 22.062-2.744 24.303-.096.026-.19.05-.285.07-6.388 1.435-10.001-10.068-16.188-8.679-3.323.746-2.902 5.272-1.711 10.579.62 2.761 1.449 5.73 2.068 8.49.44 1.957.774 3.809.853 5.403.145 2.926-.203 6.638-2.969 7.611-.14.05-.28.089-.418.12Z" fill="#FFA931"/><path fill-rule="evenodd" clip-rule="evenodd" d="m245.079 116.175-.062-.032c-.744-.38-1.491-.761-2.125-1.419-6.92-7.159-6.373-19.67-16.709-24.02-2.126-.894-4.139-1.124-5.976-.712-2.13.478-4.021 1.82-5.581 3.985-.993 1.38-1.884 4.428-3.309 5.323-.162.101-.335.17-.518.211-1.789.402-4.535-1.84-6.055-2.742-4.687-2.783-8.769-5.148-14.295-5.701-6.059-.607-12.347-.26-18.345 1.087-1.835.412-3.64.915-5.405 1.515-7.435 2.53-14.426 6.656-20.49 11.635-1.319 1.084-3.085 3.47-4.876 3.874a2.16 2.16 0 0 1-.923.015c-2.268-.474-5.062-5.131-6.874-6.616-4.51-3.702-8.895-4.223-13.219-3.252-6.965 1.565-13.777 6.997-20.73 9.246-.503.162-1.01.3-1.52.415-6.597 1.481-13.782-.779-20.474.085-.665.086-1.3.198-1.91.334-5.675 1.275-9.04 4.724-12.518 9.679-3.297 4.702-7.836 7.178-12.94 8.324-9.779 2.198-21.638-.482-30.86-1.726-10.436-1.408-21.721-2.307-32.186.043-3.407.766-6.725 1.873-9.902 3.422-2.92 1.423-5.738 3.305-8.123 5.515-1.554 1.44-3.781 5.499-5.62 6.138a3.01 3.01 0 0 1-.342.098c-2.419.543-5.112-1.847-7.225-2.703-2.25-.912-4.576-1.388-6.933-.858a8.713 8.713 0 0 0-.666.176c-4.3 1.317-6.305 4.976-7.236 9.119-.499 2.225-.306 10.029-3.341 10.71a2.136 2.136 0 0 1-.778.022c-3.397-.493-6.18-8.871-8.15-11.386-2.883-3.675-7.433-5.898-12.033-4.865-.418.094-.838.215-1.257.365-6.896 2.462-6.539 9.412-9.152 15.015-.563 1.207-1.132 1.78-1.707 1.91-1.186.266-2.394-1.36-3.626-3.216-1.658-2.501-2.49-5.588-4.436-7.893-4.098-4.849-10.01-3.412-15.429-2.219-6.544 1.44-13.195 2.473-19.76 3.839-6.435 1.336-12.874 2.852-19.378 3.81-1.181.174-4.674 1.129-5.786.411-1.83-1.185-.766-5.565.237-7.979 1.272-1.553 2.813-3.148 4.468-4.704-.029 2.071.59 3.886 4.104 4.559 4.179.8 10.233.045 15.727-1.188 3.281-.738 6.365-1.646 8.726-2.496a62.105 62.105 0 0 1 7.293-2.123c7.394-1.66 15.141-1.878 19.193 1.424 2.165 1.101 4.866 8.789 7.623 8.784.145-.002.285-.018.42-.048 3.245-.728 3.83-9.787 13.053-11.858 9.608-2.158 13.302 7.103 17.439 6.675.1-.01.2-.027.299-.049 3.516-.79 5.334-8.81 10.462-10.49.263-.085.531-.159.803-.219 2.194-.493 4.655-.215 7.093.07l.089.01c2.408.28 4.791.557 6.87.09a7.039 7.039 0 0 0 2.15-.85c4.107-2.507 7.531-6.046 11.795-8.419 6.027-3.354 12.455-5.604 19.083-7.093 9.405-2.112 19.209-2.687 28.81-2.691 7.975-.005 15.947.315 23.919.371 2.352.015 4.217-.166 5.799-.521 4.977-1.118 7.16-3.962 12.943-7.838 2.336-1.567 4.66-2.504 6.992-3.027 6.41-1.44 12.889.242 19.9.554 1.546.07 2.89-.052 4.09-.321 6.451-1.449 8.644-7.214 14.751-11.061a13.908 13.908 0 0 1 4.422-1.823c6.352-1.427 12.996 1.456 19.786.303a38 38 0 0 0 1.904-.376c7.674-1.723 14.83-5.763 22.154-8.471 3.364-1.244 6.763-2.302 10.211-3.076 5.164-1.16 10.435-1.683 15.837-1.242 7.816.638 15.629 10.43 22.885 8.8a7.703 7.703 0 0 0 2.287-.928c7.015-4.21 10.941-14.202 18.401-15.878a10.04 10.04 0 0 1 2.629-.23c4.567.191 12.304 7.83 16.921 6.792.103-.023.206-.051.307-.083 4.365-1.4 3.839-11.708 8.208-13.155 8.899 2.202 31.092 4.716 48.67-2.843 1.171 1.92.321 2.558-1.928 4.195-4.221 3.072-9.188 4.95-13.352 8.16-3.891 3.001-4.909-5.89-6.487-1.248-.631 1.86-.871 5.413-2.217 6.88-.489.534-.887.806-1.225.882-1.299.291-1.664-2.347-2.706-4.18-2.124-3.735-5.632-6.328-9.774-5.398-.51.115-1.03.284-1.56.51-5.748 2.461-5.689 8.743-5.485 14.023.033.877.561 5.181-.341 5.583-.006.002-.011.005-.017.006-.632.142-5.89-4.982-7.145-5.35-1.409-.413-2.722-.44-3.922-.171-4.384.984-7.247 5.925-7.66 10.43-.642 7.013 3.622 12.513 4.226 19.121.036.393-.179 1.279-.38 2.244Zm-308.917 29.964a.38.38 0 0 1 .07-.021c.236-.053.422.082.524.234.104.153.126.325.037.345-.09.02-.29-.11-.63-.558Z" fill="#FFD280"/><path d="M66.838 92.266c-1.104.248-1.485-1.463-.385-1.71 1.103-.248 1.486 1.464.385 1.71Zm19.961-11.763c-.581.13-.783-.77-.203-.9.581-.13.782.77.203.9Zm106.078-25.547c-.451.101-.607-.599-.157-.7.451-.101.608.599.157.7Zm-5.35 4.913c-.501.112-1.082-.121-1.06-.851l.006-.189c.011-.407.307-.675.648-.752.339-.076.723.04.91.402l.085.168c.333.653-.089 1.11-.589 1.222Zm82.406-19.499c-.813.182-1.095-1.08-.283-1.262.813-.183 1.095 1.08.283 1.262ZM37.966 107.514c-.953.213-1.281-1.264-.331-1.477.951-.214 1.282 1.263.33 1.477Zm-11.89.968c-.847.19-1.141-1.125-.295-1.315.848-.19 1.14 1.125.295 1.315ZM135.35 77.4c-.744.166-1.001-.986-.259-1.153.744-.167 1.001.986.259 1.152Zm18.23-5.109c-.488.11-.657-.648-.171-.757.489-.11.658.648.171.757Zm88.799-10.815c-.789.177-1.062-1.047-.275-1.224.79-.178 1.064 1.047.275 1.224ZM81.924 87.554c-1.45.326-1.954-1.927-.506-2.252 1.452-.326 1.955 1.927.506 2.252Z" fill="#FFD280"/><path d="M73.152 84.435c-1.65.37-2.22-2.189-.575-2.559 1.648-.37 2.22 2.19.575 2.559Zm204.216-42.121c-1.617.363-2.178-2.146-.564-2.509 1.617-.363 2.178 2.147.564 2.51Zm-8.893 4.15c-.952.214-1.282-1.265-.332-1.478.952-.214 1.283 1.264.332 1.478ZM141.991 67.426c-1.232.276-1.658-1.635-.429-1.91 1.23-.277 1.658 1.634.429 1.91Zm65.205 9.936c-.685.154-.922-.908-.239-1.062.685-.153.923.909.239 1.062Zm4.943-6.739c-.707.16-.953-.94-.247-1.1.71-.159.956.941.247 1.1Z" fill="#B0EAC8"/></g></svg>