<svg id="Layer_1" xmlns="http://www.w3.org/2000/svg" version="1.1" viewBox="500 200 950 650"><defs><style>.st1{fill:#323232}.st2{fill:#6e4826}.st7{fill:#e93325}.st10{fill:#956134}.st16{fill:#6f4826}.st19{fill:#cdb553}.st20{fill:#e79e9c}.st24{fill:#010100}</style></defs><path d="M1136 306.01c4.62 5.19 3.43 11.05 1 16.98 11.66 2.38 13.86 13.69 5.49 22-6.66 6.61-15.49 6.76-22 11-2.26 1.47-16.59 15.04-17.9 17.1-16.79 39.72-30.72 82.21-48.73 121.27-7.01 15.2-15.16 30.51-27.86 41.63l9.97 5.6c37.93-11.84 75.29-27.52 113.26-39.85 13.17-4.28 28.75-9.67 42.39-11.61 45.87-6.51 75.71 38.66 102.87 67.89 30.69 33.03 62.57 65.08 90.01 100.97 7.59-17.06 20.83-23.54 39.04-17.02 24.01 8.61 16.93 35.11 17.42 55.58.4 16.45 1.9 33.54 2.03 49.97.07 9.19.46 27.97-4.56 35.42-6.59 9.78-22.16 9.58-33.05 10.95-67.67 8.51-136.76 5.46-204.92 8.08-95.94 3.69-194.13 11.38-289.83-.08-49.28-5.9-95.6-30.3-137.11-55.89-10.57 16.46-22.8 32.49-36.49 46.54-13.11 13.46-31.94 32.68-52.03 26.98-43.48-12.35-68.24-66.35-77.51-106.49-13.27-57.48-17.79-122.5-6.63-180.37-12.45-13.8-23.19-29.16-29.87-46.65-18 10.82-32.45 3.96-44.49-10.99-19.13-23.74-8-60.87 21.48-69.08-3.54-11.27-2.23-23.44.75-34.71 7.41-28.13 40.18-68.91 66.61-81.39 22.2-10.49 41.27-6.63 60.2 8.23 1.86.39 1.7-1.8 2.92-3.07 6.34-6.6 13.76-13.24 23.3-14.75 20.16-3.18 43.25 13.5 40.17 35.17-.36 2.53-3.38 7.34-2.44 8.61 5.7 1.44 11.32 2.01 16.9 4.11 42.79 16.11 104.74 97.84 94.09 144.85-.28 1.23-1.16 1.21 1.05 1.05 6.36-.47 15.92-3.89 23.12-4.9 18.67-2.61 43.05-3.25 61.91-2.16 3.49.2 9.78 2.94 11.94 1.05l82.08-123.98c-2.11-19.22 6.48-35.73 11.93-53.04 4.9-15.56-3.68-29.84-.22-45.22 2.31-10.24 6.64-14.74 17.78-12.33 13.83 2.98 21.26 25.19 21.1 37.89.2.77.69 1.37 1.46 1.59 1.32.38 14.75-2.6 17.89-2.91 10.04-.98 22.59-2.11 32.31.66 15.79 4.5 20.43 29.76 3.18 35.34Z"/><path class="st10" d="M723 344c3.86-4.38 3.21-4.96 1.82-10.81l-24.81-9.7c-1.25-4.82-21.6-21.39-21.73-22.97-.42-5.23 14.31-15.02 19.03-16.7 20.11-7.17 48.21 11.58 40.99 33.99-.98 3.06-3.34 5-3.26 8.15 6.7 3.23 14.34 3.76 21.23 6.28 20.39 7.44 42.47 29.42 55.7 46.3 22.76 29.03 38.19 64.66 33.14 102.37 17.63 2.83 35.42 4.8 52.9 8.6 55.17 11.97 106.27 38.18 154.5 66.48 1.3-1.27 1.88-.99.51-2.49s-12.51-7.87-11.01-9.48c35.01-10.35 68.86-24.49 103.48-36.03 24.32-8.1 51.61-20.24 76.88-9.84 27.57 11.35 43.75 35.87 63.13 56.87 31.85 34.54 65.05 67.98 93.5 105.5-3.44 2.45-7.7.54-11.99.49l-5.58-4.18c-30.82-32.02-62.01-64.3-93.97-93.87-12.14-11.23-24.55-22.36-37.88-32.13-15.81-11.59-27.1-18.28-46.89-13.36a2019.995 2019.995 0 0 0-122.23 39.72c21.68 15.68 57.33 71.91 52.09 97.86-.36 1.78-1.18 2.68-2.54 3.96-.25 1.25-5.25 4.28 1.45 5.05 7.07.81 14.38-.96 21.01-1.09 49.98-.94 100.36 1.66 150 2.08 31.3.27 67.58 1.95 98.04-.05 2.82-.19 4.22 2.65 6.98-1.02s3.23-9.19 7.53-13.46c12.63-12.56 39.26-5.5 41.88 12.09.51 3.41.96 9.27 1.15 12.85 1.41 26.23 1.86 59.31.96 85.54-3.95 14.09-19.34 18.74-32.3 21.41-34.84 7.17-77.63 7.76-113.92 7.74-93.6-.06-186.92-.55-279.14-2.97-62.88-3.37-132.9-11.78-186.99-46.2-13.2-8.4-30-19.36-34.65-33.98-3.71-2.79-2.6.02-3.79 2.67-14.13 31.34-34 59.07-58.21 83.33-18.43 15.63-41.63.98-55.76-13.49-21.99-22.54-40.95-51.57-52.27-81.32-18.95-49.79-21.29-117.94 1.38-166.84 2.12-4.57 10.53-6.52 15.14-6.43 18.21.36 39.58 2.69 55.51 12.07 12.62 12.09 11.2 40.73 7.32 56.82-.68 2.81-2.73 10.43-5.32 11.68-2.45 1.18-10.07.8-10.91-2.16-1.36-4.84 14.24-34.12 7.95-43.89-3.76-5.83-3.03 9.74-3.18 10.92-1.22 9.68-4.7 20.87-7.86 30.14-1.87 5.5-10.29 22.87-9.99 26.86.39 5.06 8.65 20.34 11.45 25.65 11.27 21.38 22.04 38.78 31.27 61.73 3.12 7.76 5.46 17.79 9.01 24.97.64 1.29.86 2.62 2.25.76-6.91-28.1-20.15-53.84-33.01-79.49-6.83-17.27-7.72-38.36 4-53 10.44-6.03 10.93-38.01 10-49 3.61-15.43 4.5-27.46-13.93-32.34-16.7-4.67-33.72-7.89-51.07-9.66-7.2-.37-15.87-2.45-23 0-.89.01-1.78-.01-2.64-.18s-1.64-.34-2.25-.77c-12.22-8.61-22.42-18.75-32.25-29.39-3.18-1.96-5.47-4.18-6.86-6.66-.83-.15-2.06 0-3 0-21.81 10.81-46.5-9.34-51-31-.32-23.07 19.04-47.12 43.55-39.05 8.11 2.67 13.58 9.32 20.45 13.05 3.43.23 5.93 1.23 7.5 3 0-.9.33-1.53 1.15-1.54 7.8-.07 15.6-.08 23.41-.01.87 0 1.31.63 1.44 1.55-.11-2.73 11.89-4.81 10.5-1-1.69 3.44-.01 3.06 5.05-1.12 5-2 5.99-3.3 2.95-3.88-2.19-1.07.71-5.77 1.88-7.23 24.13-30.3 49.75-52.9 84.12-68.77Z"/><path class="st16" d="M1367 661c-53.14-.6-106.32-.49-159.48-1.02-6.96-4.51-13.59-9.76-20-15-3.04-2.49-19.36-17.83-21.06-18.01-5.76-.59-48.2 27.93-56.46 32.03 5.11-25.82-20.93-69.88-37.97-88.53-3.81-4.16-9.85-8.31-13.05-11.95-.77-.87-1.29-1.11-.97-2.52 37.72-12.05 74.73-27.09 113-37.5 12.11-3.29 23.3-7.09 35.97-2.98 23.95 7.79 68.96 52.67 88.55 71.45 24.74 23.71 48.55 48.58 71.47 74.03Zm-306-422c8.03 3.01 13.01 15 14.74 22.76.67 3 .47 12.75 2.92 14.32 3.67 2.36 27.32-2.87 33.8-3.12 11.56-.45 28.24.12 31.09 13.98 3.13 15.19-10.93 19.91-23.19 21.93-8.13 1.34-26.89 3.76-28.34-7.46-1.02-7.95 8.99-10.38 14.92-11.96 3.43-.91 10.48.44 11.05-4.44-8.71-1.22-28.1 2.84-29.04 13.49-.23 2.61 1.3 6.27 1.06 6.49-.16.14-2.34.1-4.07 1.45-14.63 11.47-2.44 27.8 13.06 27.57-8.56 13.62 3.83 22.15 17 21.49l-14.52 13.48c-20.75 41.68-33.88 89.71-54.93 131.07-2.87 5.63-18.93 33.31-24.86 32.8-2.66-.23-23.33-11.84-28.01-14.02-31.69-14.74-63.38-27.23-97.68-34.82l3.72-1.82c20.16-.71 40.04-.96 59.61-.75 26.1-42.75 53.11-84.93 81.05-126.52 1.11-20.75 3.93-41.18 8.44-61.29 7.92-14.68 8.76-23.68 2.66-38.93-1.45-6.5 1.43-16.32 9.51-15.69Zm378 522c-.65 18.85-.81 23.92-20.63 26.87-47.7 7.09-95.92 5.55-143.91 7.09-115.11 3.69-235.24 16.21-349.94 3.03-28.66-3.3-52.68-7.66-79.5-18.5-7.99-3.23-68.12-33.24-68.99-37.06 5.88-11.13 15.34-22.52 15.98-35.42 2.85 2.15 6.83 9.73 10.99 13.51 79.3 72.01 223.11 65.39 323.55 66.45 71.73.75 144.25 2.58 216 .08 18.54-.64 66.7-3.91 81.76-12.24 6.44-3.56 10.3-8.13 14.7-13.8Z"/><path class="st7" d="M694.99 321.02c.1.11.37 2.1-.5 1.99-20.81-.92-39.46 11.91-52.5 26.99 9.2-4.22 16.75-11.98 25.95-16.54 11.68-5.77 24.65-8.82 37.26-4.17l11.78 4.71c-1.55.07-3.08.41-4.54.97-37.14 14.11-70.51 41.86-89.15 76.86l-35.31 5.18c5.28-18.22 17.69-33.45 30.99-46.51.35-2.53-1.64-1.55-2.95-.94-8.03 3.74-21.35 22.41-25.57 30.43L582.98 417c-7.55-11.36-20.09-26.7-21.93-40.58-4.29-32.41 31.41-75.49 60.67-86.16 30.85-11.24 51.91 8.45 70.75 29.79.69.79 2.34.8 2.49.97Z"/><path class="st16" d="M694 537c-8.07-2.8-15.33-5.17-23.79-6.71-9.06-1.65-20.51-3.03-29.67-3.33-6.42-.21-11.98.57-15.99 6.09-6.27 18.68-13.2 37.54-14.54 57.46-4.66 69.36 11.54 124.14 56.01 176.97 15.79 18.76 38.05 39.67 63.98 25.52-27.5 27.56-39.91 31.52-72.01 5.51-54.59-44.22-61.32-158.89-58-224.02.82-16.1-1.18-37.39 12.53-48.47s24.51-4.37 39.1-2.14c15.85 2.42 29.92 1.18 42.38 13.12Z"/><path class="st10" d="M1061 239c-16.28 9.04-2.13 23.68-2.97 35.48-.36 5-5.54 14.26-7.3 19.75-6.57 20.51-5.18 40.71-8.54 61.46-27.36 42.2-55.7 83.84-81.43 127.06-3.82 2.61-8.08.27-12.2.21-17.01-.24-36.37 2.09-52.55 1.05-10.68-.69-25.5-3.33-36.37-5.13-1.17-.19-4.65-.3-4.63-1.86 27.76-4.79 55.29-6.94 83.54-6.05 3.31.1 6.56 1.73 9.96 1.06 2.36-.47 9.72-11.49 11.72-14.29 25.99-36.33 48.71-75.17 74.01-111.99-.82-20.54 8.42-38.26 13.31-56.69 4.26-16.06-6.48-33.44 1.26-47.74 2.51-4.65 7.71-3.98 12.2-2.3Z"/><path class="st2" d="M1133.98 308c11.09 22.4-29.15 25.36-42.26 21.78-8.79-2.41-12.28-13.93-4.22-19.77 4.96-3.6 6.27.14 11.48 1.51 11.03 2.9 24.43.29 35-3.52Z"/><path class="st7" d="M721.99 336c-.21 1.35.48 3.88-.13 4.86-.43.69-12.33 5.26-14.89 6.62-34.46 18.36-53.75 35.26-75.75 67.22-.61.88.16 1.85-2.21 1.3-4.58-4.28 4.33-15.3 7.17-19.31 19.93-28.12 52.66-51.21 85.81-60.68Z"/><path class="st2" d="M1134.64 325.17c1.48-.29 5.78 2.54 6.9 3.79 10.53 11.67-14.28 23.32-23.99 23.07-6.83-.17-20.03-3.95-17.12-13.07 2.24-7.03 17.8-5.87 24.79-8.23 2.96-.99 8.87-5.45 9.42-5.56ZM619 517c-5.12 1.76-12.11 8.75-15.5 12.98-7.32-8.97-13.89-18.27-19.67-28.31-1.7-2.95-8.88-14.66-9.4-16.64-.45-1.71.53-3.36.57-5.03 6.55 1.21 15.56 13.52 20.99 18.51 7.22 6.63 14.88 13.05 23.01 18.49Zm104-173c-4.81 5.45-18.35 10.43-25.52 14.98-21.92 13.9-40.56 35.12-57.31 54.69L637 420c1.05 2.77-5.69 6.53-8 5-2.29-2.53-8.11 1-10.5 1h-26c-2.89 0-5.45-1.89-7.5-3 10.11-.42 20.39.57 30.49-.01 3.91-.23 14.15-.97 16.77-2.96 1.91-1.46 5.8-9.49 7.93-12.34 21.48-28.67 49.7-49.91 82.82-63.68Zm-26 264c.27 5.28-3.89 9.3-5.32 14.18-3.69 12.61-.19 26.16 1.32 38.82-3.71-7.41-16.75-28.02-15.99-35.41.11-1.04 6.2-16.65 6.96-17.18 1.31-.93 7.07 3.03 13.03-.41Z"/><path d="M571.99 408.99c-6.77-3.4-13.39-4.63-20.99-4-2.71-14.41-.45-27.31 4-40.99l1.25 10.24 3.98 13.02 11.76 21.73Z" fill="#e83325"/><path class="st2" d="M707 559c-1.84-21.85-11.25-30.52-31.79-35.71-11.01-2.78-22.68-1.94-33.21-6.29 15.77.8 48.39 3.62 61.33 12.17 10.96 7.24 8.99 19.47 3.67 29.83Zm-135-79c-22.01 21.78-50.66-6.88-51-31 6.79 14.88 18.91 30.63 36.51 31.98 5.33.41 9.56-.96 14.49-.98Z"/><path d="M606 418c4.71-.84 9.49-1.26 14.21-2.28s3.91-3.42 6.79 2.27c-6.45 1.99-13.35.58-20 1.01-1.13.17-1.46-.16-1-1Z" fill="#db3023"/><path d="m606 418 1 1c-1.21.08-4.57 2.1-7 .99v-.98c2.09.18 4.01-.66 6-1.01Z" fill="#270906"/><path d="M1198 659c.24.19 1.4-.13 1.99.01v.98c-2.13-.24-5.48.94-6.99-.99h5Z" fill="#616161"/><path d="M1119 659c-.57.04-2.42 1.76-4 .99.01-1.17 1.24-1.49 2-1.99l2 1Z" fill="#3f3f3f"/><path d="M789.99 453.01c.56 2.68-.71 1.72-1.97 2.48-18.83 11.3-39.71 19.22-58.59 30.51l9.35 75.4c-3.58 5.74-19.11 6.17-23.14 1.71-2.35-2.6-.15-61.77.35-70.09-4.54.25-9.01 8.25-12.47.97s3.5-1.89 5.47-2.36c25.33-11.86 50.77-27.04 76.63-37.48 1.45-.59 2.63-1.47 4.37-1.12ZM727 397c-2.67-1.97-6.64-8.54-7.14-8.83s-2.63 1.86-3.84-.67c16.55-10.47 31.02-23.37 44.49-37.49 1.96 2.03-3.95 6.33-3.51 6.98 10.32 3.83 12.59 16.25 10 26.01 1.54.75 1.88 1.59.81 2.82 17.89 3.21 38.65 15.25 40.19 35.18-.42.73-.71 1.51-1.5 1.98-4.27-6.87-7.85-14.2-14.16-19.82-22.5-20.02-36.62-8.99-59.07-.4-7.21 2.76-14.35 6.07-21.26 2.24l1.12-1.81c4.72-.4 9.24-1.79 13.68-3.33l.2-2.85Z"/><path d="M671.99 420.01c1.39 1.33-2.86 5.46-2.77 6.51.07.85 2.52 2.36 3.22 3.55 16.23 27.51-16.22 54.46-42.15 39.15-3.41-2.01-6.39-7.24-7.56-7.94-.72-.43-8.54-1.48-3.73-4.77.97-.67 11.62-3.03 14.68-4.32 9.25-3.89 19.76-11.13 26.29-18.71 3.07-3.56 5.7-9.17 8.73-12.24.87-.88 2.09-2.39 3.3-1.23Z" fill="#010000"/><path class="st24" d="M553.74 421.21c4.76-.94 8.69 1.38 11.11 5.44 5.71 9.58-5 18.56-2.62 29.63.88 4.08 5.93 7.73-.25 12.19-11.26 8.12-24.33-12.36-24.98-21.99s6.3-23.21 16.74-25.27Zm196.9-15.89c14.49-.82 16.93 20.4 10.58 30.4-8.78 13.83-39.75 11.77-36.81-3.75 1.73-9.17 16.58-26.1 26.24-26.65Z"/><path d="M706.74 292.24c11.82-2.02 28.83 8 26.07 21.02-2.49 11.74-15.31.84-19.79.12-5.29-.85-14.08 3.43-18.59-2.31-5.65-7.18 5.43-17.66 12.31-18.83Z" fill="#020101"/><path class="st2" d="M808 421c-4.62-18.78-24.16-31.84-43-33.01-.31-2.02 1.55-3.29 2-4.99 9.24-.55 19 4.74 26.01 10.49C799 398.4 812.51 413.21 808 421Z"/><path class="st24" d="M637 420c7.2-3.17 16.98-4.87 24.49-1.99 1.55.59 2.89.85 2.5 2.99-15.59-3.95-35.81 3.9-42.73 18.77-1.69 3.63-1.13 9.47-5.26 8.24-.67-9.35 5.85-17.7 13-23 1.43-1.06 6.59-4.38 8-5Zm133 132c-.57.06-7.73 2.27-4.99-.98.53-.63 11.93-6.55 14.31-8.2 7.57-5.28 23.96-21.6 29.71-24.29 5.29-2.47 1.97 2 .98 4.48-9.41 13.54-24.2 24.26-40 29Z"/><path d="M770 552c14.82-7.56 28.05-17.5 40-29-7.13 17.72-21.19 27.17-40 29Z" fill="#6e4726"/><path class="st24" d="M752 349.99c-.79.68-9.78-2.01-12.35-1.92-15.81.55-24.06 11.63-29.4 24.73-.61 1.5.6 2.71-2.25 2.2-.25-16.73 16.17-30.63 32.5-30.06 1.33.05 14.5 2.48 11.49 5.06Z"/><path class="st16" d="M764.73 485.73c-1.22 1.19-17.05 9.77-18.65 5.66-.47-1.69-.15-2.56.94-3.87 1.99-2.39 14.48-9.81 17.46-9.57 4.04.32 2.04 6.02.24 7.78Z"/><path class="st2" d="M727 397c1.3.96 3.38 1.74 5 2.01 1.28 1.63-17.55 7.23-20 5.99-1.67-.93-4.4-1.41-4-3.99 6.61.52 12.82-2.15 19-4.01Z"/><path class="st24" d="m1080 327.01-14.73 7.76c-2.85.58-11.92 11.23-12.77 11.21-.14 0-1.89-1.68-2-1.95-2.38-6.2 22.65-22.15 29.5-17.02Zm-465.85 4.86c-1.28-.8-.23-4.24-.43-4.67-1.36-2.86-1.13-.48-2.07-5.53-.76-4.05-2.99-4.4-.06-9.58 4.62-8.16 11.44-5.12 18.37-2.51.79.3 1.36 1.61 2.01 1.85 1.19.44 2.92-.85 4.08-.02.67.47 3.72 14.89 3.67 15.94-.1 2.31-3.23 6.6-5.16 7.71-4.25 2.44-11.77-1.39-16.34-2.8-1.26-.39-3.36.07-4.07-.38Z"/><path d="m725.99 488 9 70c-5.48-1.76-11.41-3.35-16.98-1-.85-4.6.87-9.18 1.03-13.46.59-16.07-1.41-34.21 1.02-49.98.48-3.15 2.61-5.45 5.93-5.56Z" fill="#bcb7a3"/><path d="M735 561.99c-3.97 1.19-8.28 1.41-12.42.91-.79-.1-5.32-.98-3.57-2.88 1.4-1.53 14.59-2.05 15.99 1.97Z" fill="#e33224"/><path d="M753 363c11.11 11.08 1.29 30.85-13.96 28.45-3.11-.49-10.4-2.53-5.04-3.45 9.36 1.97 20.65-8 18.82-17.25-.65-3.3-5.1-5.33.18-7.75Z" fill="#e2dddd"/><path class="st1" d="M747.5 368.02c6.91 4.94-2.65 16.64-9.08 16.92-3.09.13-8.43-1.35-4.9-4.92 4.05-4.09 10.28-7.22 13.98-12Z"/><path d="M756 360c9.79 9.06 6.27 22.51-3 30-2.95 1-7.01 2.74-10 4-6.66 2.82-13 .82-19-6-.07-.16-.95-.22-.93-.49A7.886 7.886 0 0 1 726 385c8.5 5.64 16.78 10.36 26.13 2.31 8.24-7.1 6.43-17.04.87-25.31.44-1.47 1.45-2.12 3-2Z" fill="#e4c4c3"/><path d="m764 379-1.57 1.46c-1.4 4.32-2.74 7.99-7.43 9.54-.53.18-1.47-.18-2 0 5.18-5.54 8.09-11.43 6.76-19.27-.65-3.82-3.75-6.77-3.76-10.73 7.64.58 8.75 13.29 8 19Z" fill="#e1b0af"/><path d="M726 385c3.97-2.03 4.81 2.33 8 3l-.75 1.24c13.53 5.75 27.41-5.19 22.82-19.8-.74-2.35-2.84-4.21-3.06-6.44-.03-.27-.07-.75 0-1 17.6 19.52-10.29 42.17-27 23Z" fill="#e3d1d0"/><path d="M743 394c-1.54.65-3.92 3.15-6 3.58-4.14.85-11.35-5.74-13-9.58 6.48 2.4 11.39 7.33 19 6Z" fill="#e1a9a7"/><path d="M764 379c-.32 2.46-.67 7.27-2.49 9.01-1.44 1.38-4.55 1.34-6.51 1.99 2.92-2.75 3.84-6.61 5.79-9.71 1.01-1.6 1.13-3.03 3.21-1.29Z" fill="#e3a5a3"/><path d="M655 469c-2.45-2.96-9.4-2.02-13.02-.62-4.22-.16-15.23-5.61-11.98-10.38.3-.11.72.11 1 0l1.89.02c15.57 17.14 44.89-3.86 32.34-24.62l.77-1.4c.42-.48.22-3.55 2.49-3 11.95 16.78 4.77 33.2-13.49 40Z" fill="#e5b5b4"/><path d="M634 457c.52-.17 1.6-1.95 2.49-1.84.48.06 2.32 2.28 3.93 2.92 9.77 3.9 22.41-4.4 22.63-14.61.11-5.07-2.34-3.82.95-9.47 2.93-.13 3.87 5.78 4.13 8.6 1.63 17.31-22.38 28.96-34.28 16.57-.56-.58-.36-1.41.14-2.17Z" fill="#e3dcdc"/><path class="st1" d="M659.99 440c1.35 12.54-9.5 19.09-20.99 14.98l2.07-2.42L660 440Z"/><path d="M631 458c1.22-.49 1.9-.64 3-1 14.7 16.85 42.63-3.95 30-23 .7-1.2 1.45-1.37 2-2 10.03 19.59-4.91 35.49-25.52 33.02-4.46-.53-7.01-3.58-9.48-7.02Z" fill="#e3d4d4"/><path d="M630 458c4.64 11.03 14.87 9.17 24.56 8.04 2.73-.32 1.2 1.94.44 2.96-.57.21-1.09.77-2 1-3.31-1.37-7.54-.76-11 0-5.8-1.35-13.82-5.2-16-10.99 1.49.18 2.68-.53 4-1.01Z" fill="#e3aba9"/><path d="M642 470c.95-1.94 1.43-1.9 3.4-2.07 2.68-.22 8.76-.86 7.6 2.07-5.35 1.36-5.83 1.2-11 0Z" fill="#e3a3a2"/><path class="st20" d="M555.75 425.19c4.14-.36 7.02 3.63 7.17 7.39.34 8.21-7.05 13.29-4.7 24.69.7 3.42 6.67 7.74 1.25 8.74-15.81 2.92-27.28-29.29-8.8-38.83 1.37-.71 3.63-1.87 5.07-2Z"/><path d="M759 414c.28 6.37-7.55 15.51-12.4 19.95-4.19 3.84-8.59 7.69-14.6 6.05-8.59-4.49-4.01-10.84.2-17.3 5.18-7.95 19.33-20.85 26.8-8.7Z" fill="#333"/><path d="M732 440c12.48-2.65 20.71-15.83 27-26 11.29 18.36-10.57 34.6-27 26Z" fill="#202020"/><path class="st20" d="M696.26 309.73c-4.68-5.65 8.44-15.96 15.24-15.81 8.03.17 19.51 9.32 19.39 17.6-.15 10.31-13.1.44-16.61-.29-5.21-1.08-14.85 2.33-18.02-1.49Z"/><path d="M634.99 313.01c-.08 5.34-5.5 9.95-9.52 12.97-1.02.77-10.29 7.6-10.45 3.53-.11-2.58 15.09-17.9 19.97-16.5Z" fill="#cfb854"/><path class="st19" d="M622 330.99 635.99 319c-.44 6.11-7.67 13.01-13.99 11.99Z"/><path d="m623 309.01-9.99 9.99c-.3-6.56 3.15-10.86 9.99-9.99Z" fill="#ccb552"/><path d="m630 312.99-6.91 3.6-9.08 8.41c.52-3.85 5.06-8.14 8.08-10.41 1.96-1.47 6.57-5.6 7.91-1.6Z" fill="#c6af50"/><path class="st19" d="M636.01 324.01c2.01.03.97 5 .49 6-1.11 2.3-9.27 5.72-6.51 1.49 1.6-2.45 5.63-4.08 6.02-7.49Z"/></svg>