<?xml version="1.0" encoding="UTF-8"?>
<svg id="Layer_1" xmlns="http://www.w3.org/2000/svg" version="1.1" viewBox="0 0 1920 1500">
  <!-- Generator: Adobe Illustrator 29.1.0, SVG Export Plug-In . SVG Version: 2.1.0 Build 142)  -->
  <defs>
    <style>
      .st0 {
        fill: #944a0f;
      }

      .st1 {
        fill: #feebf0;
      }

      .st2 {
        fill: #fba0a1;
      }

      .st3 {
        fill: #150908;
      }

      .st4 {
        fill: #f97e9f;
      }

      .st5 {
        fill: #944b0f;
      }

      .st6 {
        fill: #70390c;
      }

      .st7 {
        fill: #7b3a4a;
      }

      .st8 {
        fill: #171514;
      }

      .st9 {
        fill: #f0b000;
      }

      .st10 {
        fill: #710c13;
      }

      .st11 {
        fill: #d2bfc3;
      }

      .st12 {
        fill: #e00;
      }
    </style>
  </defs>
  <g id="M7tCzt.tif">
    <g>
      <path class="st11" d="M103,1173h-1v-25h1c-.28,8.06-.25,16.93,0,25Z"/>
      <path class="st11" d="M1740,955h-1c.28-7.59.38-16.44,0-24h1v24Z"/>
      <path class="st8" d="M962,536c-.58,1.16-2.82,5.24-2.88,5.67-.21,1.4,4.95,6.01,6.4,7.32,21.49,19.41,51.37,32.54,77.8,44.2,40.56,17.88,72.45,27.91,117.19,30.81,96.64,6.25,200.57-5.28,293.5-32.48,10.62-3.11,31.16-8.87,39.39-15.65,1.57-1.3,1.47-2.77,1.6-2.86.71-.44,5.82,0,7-3,1.17,1.02,5.78,1.96,7.55,2.95,3.43,1.91,7.85,5.49,10.93,8.07,20.77,17.36,40.45,41.1,58.5,61.5,22.37,25.28,43.91,50.81,64.19,77.81,8.85,11.77,17.23,23.91,27.33,34.68,1.75,2.82-3.27,8.37-5.46,10.58-1.33,1.34-3.65,1.01-2.95,2.78,12.14,21.1,25.07,41.79,37.08,62.96,17.61,31.05,38,63.07,39.82,99.68.38,7.56.28,16.41,0,24-4.7,126.74-90.86,231.18-169.01,323.49-23.9,28.23-52.89,63.61-79.96,88.04-1.46,1.32-4.15,4.25-5.07,4.93-1.94,1.43-14.61,4.18-17.55,4.45-31.89,2.89-58.13,1.76-89.79-3-44.38-6.67-89.08-17.35-131.12-32.88-16.12,10.78-33.46,22.21-52.27,27.71-51.57,15.08-110.62,29.11-163.83,36.17-64.38,8.55-130.96,5.71-195.88,7.12-45.25.98-89.9-7.47-135.02-5.02-32.72,1.78-65.4,6.42-98,10-17.56,1.93-37.39,5.04-55,4.02-15.08-.87-30.02-1.24-44.98-2.02-22.05-1.14-49.9-2.09-70.19-10.81-27.06-11.62-38.95-25.8-50.5-52.5l-9.32-24.67c-3.14,2.8-5.82,6.25-9.01,8.97-16.24,13.87-43.97,25.54-64.23,32.77-33.7,12.03-65.02,21.84-96.59-.92-41.37-29.82-75.46-87.85-88.39-136.61-5.31-20.01-9.62-40.49-10.28-61.22-.25-8.07-.28-16.94,0-25,.99-28.27,10.45-66.95,40.02-77.48,39.13-13.93,89.78-1.06,130.37-5.63,38.85-4.37,76.74-19.59,114.12-29.88,2.15-8.84,2.52-18.11,4.96-27.04,3.38-12.36,12.76-30.03,25.54-34.46,28.83-9.99,62.48,21.68,77.47,43.45,9.61-7.8,21.6-11.69,32.54-17.44,15.44-8.12,29.94-17.7,43.97-28.03-6.53-3.4-13.03-7.6-18.92-12.07-34.54-26.17-61.84-54.85-86.9-90.1-21.16-29.76-45.23-63.18-47.22-100.78-3.26-61.42,10.95-125.46,60.12-165.97,18.58-15.31,62.65-27.89,85.97-22.12,6.76,1.67,28.77,12,35.26,15.74,62.68,36.09,77.94,122.98,132.78,165.22,3.04,2.34,14.38,10.91,17.38,10.63,1.1-.1,1.93-.63,2.56-1.52,41.96-59.02,88.35-114.5,136.45-168.55,5.94-6.68,12.15-13.19,18.51-19.48.06-1.99-16.05-4.25-18.48-4.5-3.42-.34,1.71-2.72,1.99-2.97,6.25-5.59,3.82-7.01,13.05-4.08,2.91.93,9.11,4.79,11.44,3.58,7.8-7.54,15.15-15.57,22.99-23.06,2.94-2.81,9.07-6.66,11.49-9.51.96-1.13,3.36-3.73,3.53-3.97,4.15,2.34,4.51-1.43,8-2ZM963,555c.4-1.85-1.01-2.38-2-3.5-1.1-1.25-6.19-7.05-8-5.49l2.48,4.01,7.52,4.98ZM1362,767c5.19,38.43,10.14,77.08,17.3,115.2,1,5.34,2.26,15.64,3.88,20.12.72,2,2.47,1.77,4.34,1.75,29.71-.22,68.77-15.35,96.17-26.9,56.94-23.99,104.7-58.37,149.34-100.66,6.74-6.39,16.34-15.87,21.96-23.04,1.41-1.79,3.76-4.12,2.28-6.18-12.01-16.92-24.04-33.79-37.27-49.79-25.35-30.68-54.58-64.31-82.51-92.49-5.03-5.07-10.04-10.7-15.46-15.54-2.28-2.04-10.03-9.15-12.06-9.96-1.12-.45-2.02-.89-3.24-.36-59.48,33.52-130.21,44.66-197.33,53.74-59.58,8.06-119.15,13.56-178.42.62-49.41-10.78-116.05-37.47-157.3-66.7-3.44-2.44-21.71-17.88-23.18-17.87-1.91,0-9.32,8.58-11.48,10.57-35.44,32.74-68.79,71.02-100.01,107.99-41.14,48.72-76.25,103.32-118.49,150.51-9.88,11.03-24,23.01-32.53,34.47-1.24,1.67-3.22,4.74-2.85,6.78.5,2.74,5.21,9.4,7.03,12.05,14.68,21.33,39.3,39.61,59.92,55.08,33.09,24.83,62.6,44.28,100.26,61.74,2.33,1.08,6.71,4.4,8.37,4.72,3.01.58,12.02-1.69,15.77-1.87,98.14-4.74,190.87,55.62,238.16,139.09,23.37,6.79,47.7,8.18,71.87,9.91,57.04,4.08,116.11,4.35,172.9-5.07,1.72-.28,3.73-.71,5.05-1.95,18.83-24.62,40.25-47.08,60.52-70.48,10.99-12.69,21.28-26.04,32.96-38.11l-10.13-14.7c-15.3-28.53-29.16-58.09-39.83-88.69-28.17,6.36-28.49-10.52-32.69-31.79-7.03-35.62-12.06-72.8-17.19-108.81-1.42-9.93-1.48-25.89-5.56-34.44-4.75-9.95-13.76-21.59-20.56-30.44-3.69-4.8-9.94-9.02-8.98-15.52,1.55-1.55,9.05,5.43,10.51,6.98,1.54,1.63,3.95,4.79,5.31,6.69,4.71,6.56,7.74,14.27,13.16,20.33.18-10.41-5.11-22.24-4.02-32.53.16-1.49.7-4.23,2-4.99.92-.53,3.85-.72,4.02-.48.34.47.84,9.69,1.11,11.4,2.84,18.04,3.02,36.49,5.89,54.61.36,2.28.26,2.67,1,5ZM973.32,562.74c-.74-.59-.87-2.01-1.78-2.75-1.03-.84-5.7-4.82-6.05-4.98-2.03-.94-1.98,1.57,0,3.04,45.25,33.63,111.72,61.72,167.32,73.65,66.6,14.3,135.91,5.38,202.57-4.83,48.16-7.38,94.4-15.89,139.62-34.38,10.61-4.34,20.73-9.48,31.01-14.5.09-1.8.47-2.11-1.52-2.02-4.35.19-8.1,4.25-11.8,6.21-11.56,6.15-25.07,10.6-37.67,14.33-93.31,27.61-197.7,38.44-294.5,32.49-51.29-3.15-87.33-16.55-133.19-37.81-15.66-7.26-41.46-18.48-54-28.45ZM746,778.01c-8.16-3.65-16.53-10.19-23.49-16.02-32.43-27.2-49.95-71.64-73.68-106.32s-59.78-68.74-103.32-71.68c-15.41-1.04-23.87.49-37.19,7.83-57.23,31.57-79.74,86.45-82.37,149.63-1.84,44.21,5.91,62.99,29.22,98.87s46.48,65.56,78.34,93.66c10.11,8.92,25.39,22.75,36.57,29.43,5.74,3.44,6.24,4.75,11.82.97,11.17-7.56,23.86-19.02,33.63-28.37,7.93-7.58,64.78-68.74,65.24-73.65.11-1.2-.8-2.56-.79-3.87.02-3.37,2.14-6.36,4.04-8.99,11.92-16.52,32.19-33.7,45.97-50.03,4.29-5.08,9.65-11.24,13.43-16.57.62-.87,3.34-4.3,2.59-4.9ZM1660.99,751c-.29-.36-1.37-.18-2.04.64-7.73,9.4-16.09,18.51-24.92,26.88-46.5,44.05-95.46,78.59-155.03,102.97-30.27,12.39-61.84,23.97-94.99,24.51,2.9,15.62,19.6,10.96,31.23,8.72,65.54-12.62,129.61-57.32,181.25-97.75,19.19-15.02,38.88-30.68,56.54-47.46,1.91-1.81,12.2-11.65,11.93-12.91-.18-.83-2.21-2.2-2.99-3.12s-.8-2.27-.97-2.49ZM1500,983c.3,1.65-.83,2.66-1.59,3.91-9.65,15.78-27.63,32.78-39.93,47.07-63.68,73.97-130.4,148.76-190.46,225.54-11.1,14.18-24.68,31.1-33.2,46.8-2.5,4.61-8.81,15.42-4.37,19.73,41.75,17.26,85.79,28.88,130.33,36.67,24.16,4.23,54.43,9.5,78.74,8.28,8.71-.43,18.37-2.67,26.95-3.06,3.03-.14,6.97,1.17,8.83.89.9-.14,7.93-3.54,8.78-4.27,3.08-2.66,7.36-9.27,10.41-12.59,39.32-42.66,77.56-85.88,113.51-131.49,62.83-79.73,118.81-159.45,124.02-264.98,2.43-49.12-12.89-74.44-35.83-115.19-12.76-22.67-26.63-44.79-39.68-67.31-21.62,19.82-44.26,38.6-67.59,56.4-45.93,35.04-92.43,66.26-148.14,83.86-3.6,1.14-23.6,5.64-24.34,6.66-1.28,1.75.24,4.51.82,6.33,5.1,16,15.2,36.97,22.57,52.43,6.63,13.91,13.94,27.62,22.68,40.3,10.7-12,21.98-23.34,34-33.99,1.12-.99,1.65-2.4,3.5-2ZM515,1046c9.97,13.61,19.83,26.96,32,39,4.12,4.08,16.34,14.59,21.7,15.8,8.08,1.83,15.78-.69,23.3-2.8,18.01-5.07,34.15-12.75,51-21,28.5-13.95,55.86-30.38,84.64-43.86,39.71-18.6,80.97-31.98,124.36-39.15l-22.68-10.81c-40.87-25.17-88.9-54.12-123.34-87.66-7.91-7.71-14.36-17.1-21.48-25.51-4.64,5.35-8.85,11.15-13.51,16.47-36.2,41.27-69.28,76.05-116.06,105.94-17.84,11.4-37.53,19.5-55.47,30.56-.79.67.33,1.58.75,2.31,4.31,7.42,9.8,13.89,14.8,20.71ZM1132,1167c-.89.93-2.8-1.22-3.45-2.05-8.73-11.24-16.93-27.55-25.13-39.87-35.6-53.5-79.25-92.71-140.9-114.1-90.5-31.4-182.77,2.97-263.55,44.5-30.09,15.47-60.33,34.46-92.45,45.55-41.6,14.35-57.01.3-82.51-30.53-21.29-25.74-36.27-59.5-63.09-78.91-22.77-16.49-45.72-20.37-58.41,9.44-4.77,11.21-7.9,32.27-9.18,44.66-.15,1.4.97,2.82.52,4.59-.34,1.35-2.71,3.67-3.58,5.51-6.43,13.74-10.98,34.92-14,50-14.91,74.45-19.9,195.57,19.55,262.9,22.78,38.88,70.15,41.13,110.67,43.33,35.78,1.94,66.63-.03,101.99-4.02,51.23-5.78,96-11.86,148.03-8,65.84,4.89,135.85,4.4,201.98,2,50.07-1.82,95.62-7.29,144.53-18.47,30.53-6.98,67.59-15.26,96.99-25.01,6.15-2.04,15.1-6.84,21.01-9.99,3-1.59,14.43-7.45,15.49-9.5.53-1.03.61-1.89.49-3.01-24.96-4.89-13.14-25.53-4.43-39.93,24.41-40.35,63.77-82.12,94.41-118.59,10.35-12.32,20.47-24.83,31.01-36.99l-10.4.6c-62.69,8.96-128.21,8.86-191.11,1.92-12.6-1.39-25-4-37.48-6.01.96,3.9,14.12,28.81,12.99,29.99ZM386,1043c-46.46,13.64-92.22,31.48-141.54,30.04-4.94-.14-9.41-1.26-14.96-1.05-1.22.05-3.72-.75-3.49.99,45.9,19.08,86.07,53.41,114.82,93.69l18.17,31.32c.36-25.7,2.96-51.86,7.28-77.23,3.42-20.05,8.12-40.07,14.7-59.3,2.16-6.3,6.26-11.44,5.02-18.47ZM183.78,1071.28c-17.89.99-43.29,2.89-55.2,17.8-37.71,47.21-12.54,152.76,14.05,201.79,13.93,25.69,52.95,75.11,81.14,83.86,23.4,7.27,52.17-1.88,74.49-9.97,19.19-6.96,44.4-17.87,59.76-31.24,2.07-1.8,8.83-8.12,10.03-9.96.64-.98,1.17-1.79,1.04-3.04-9.32-35.98-10.93-73.05-11.07-110.03-6.56-6.68-9.14-16.71-13.84-25.16-24.47-43.98-73.86-86.37-120.2-105.8-15.65-6.56-22.71-9.21-40.21-8.24Z"/>
      <path class="st3" d="M954,538c2.29-3.24,6.34-10.6,8.8-14.7,10.71-17.82,13.7-42.21,17.07-62.93,4.69-28.84,7.04-57.77,13.61-86.39,9.38-40.84,24.48-82.06,35.24-122.76,1.76-6.66,7.9-29.19,7.09-34.47-1.06-6.95-7.35-15.27-9.54-22.52-6.96-22.98-.05-53.38,22.73-64.72,20.18-10.04,31.93-5,50.99,3,3.08,1.29,5.96,3.12,9,4.49,5.38-73.41,77.39-130,150.23-109.72,47.84,13.32,77.92,58.74,76.78,107.72l27.72-10.77c36.46-2.81,57.31,24.26,54.28,59.28-.94,10.86-5.8,17.19-9.49,26.51-3.5,8.84-2.02,11.3-.21,20.19,9.89,48.58,29.92,96.41,40.43,144.57,6.86,31.43,9.85,63.91,14.37,95.63,5.67,39.79,7.97,65.91,36.91,96.11.95.99,1.52,3.07,2,3.49-1.18,3.01-6.29,2.56-7,3-7.5-8.48-15.11-17.01-20.4-27.1-7.86-15.03-13.28-37.53-14.61-54.39-.66-8.28.71-23.51-.98-30.87-.18-.79-1.82-.45-2.01-1.29-3.29-14.2-3.73-31.92-6.12-46.73-7.35-45.62-21.92-90.06-34.36-134.64-4.71-16.87-17.1-48.66-14.3-65.24.83-4.9,5.35-10.91,7.26-15.74,7.36-18.56,4.58-45.07-11.57-58.41-6.04-4.99-20.6-10.85-28.43-10.66-8.93.23-23.29,9.38-32.5,11.58-2.63,3.16-1.54,7.24-2.2,10.8-.51,2.75-3.08,5.81-1.79,9.7l7.01-10.48c10.23-12.51,37.33-17.11,50.68-8.71,5.3,3.33,9.92,10.49,12.3,16.2,5.18,12.37,3.86,30.07-1.14,42.36-2.1,5.15-7.44,14.69-13.4,15.6-14.44,2.19-13.57-9.39-21.51-16.4-7.21-6.37-19.74-4.28-26.92-10.08-1.75-1.41-2.05-3.63-4.02-4.47l2.04,29.55c.57,3.37-2.66,3.44-3.8,4.73-.5.57-.12,1.56-.25,1.72-1.04,1.31-4.8,6.59-5.15,6.83-.6.41-1.57.31-2.29.17-2.55-.5-12.47-7.09-16.2-8.87-4.55-2.18-9.68-4.16-14.36-6.14-20.62-8.73-45.81-19.19-68.51-18.01-25.56,1.33-51.17,4.9-74.49,16.01-3.96,1.89-25.87,13.22-26.99,15.51-1.01,2.07,1.65,1.3,2.52,1.45,6.31,1.08,18.69,7.02,21.47,7.04,10.81,8.98,19.2,18.83,24.49,32.01,8.81,21.94,7.22,50.94-3.49,71.99-21.65,42.55-76.23,48.87-101.52,6.02-4.27-7.23-6.6-15.21-9.48-23.02-.73-14.03-2.66-22.87.28-37.22,1.15-5.64,3.27-12.17,5.54-17.46,1.31-3.06,9.37-15.4,9.18-16.32,3.37-2.2,5.01-5.7,7.98-8.52,10.57-10.04,26.42-16.19,41.02-15.49-1.54-2.57-4.86-3.45-7.04-5.45-.49-.45-3.83-4.27-3.96-4.55-3.53-7.55-2.51-20.35-2.99-28.51-.18-2.99-1.75-6.17-1.02-9.49l-3.99,6.5c-8.18,11-19.94,6.64-28.94,13.06s-8.5,20.6-23.36,17.24c-9.34-2.11-16-22.25-16.7-30.8-1.05-12.94,1.5-31.57,11.97-40.53,1.96-1.67,11.14-5.57,11.03-6.47,20.02-1.23,36.78,1.69,48.06,19.44.69,1.08.97,2.29.95,3.56,2.54-.06,0-3.03,0-3.5v-15c-7.83-5.16-17.8-6.32-26.01-11.03-.89-.56-2.22-.22-2.99-.47-3.35-1.07-3.75-2.31-8.49-2.02-36.34,2.23-51.12,41.51-36.88,71.88.82,1.75,1.55,4.3,3.36,5.14,1.13,5.71,2.99,7.17,3,14,.02,9.8-4.61,26.28-7.28,36.22-9.24,34.42-21.1,68.32-30.23,102.77s-12.67,71.1-18.62,107.38c-1.96,11.96-4.57,32.29-7.93,43.07-2.98,9.54-9.47,18.67-13.94,27.56-3.49.57-3.85,4.34-8,2ZM1320,148c1.45.39,9.63,3.37,10,3,1.62-16.6,2.16-31.86-2.49-48-20.4-70.85-98.58-96.27-159.81-56.8-38.6,24.89-63.26,74.78-55.7,120.8.86.92,7.66-5.22,9-6,49.56-28.57,145.02-27.35,199-13ZM1062,208c4.87-5.15,6.87-12.35,13.67-15.83,6.18-3.17,13.51-2.82,19.61-5.39,10.25-4.31,12.95-21.43,6.71-29.79-8.96-12.02-18.69-15.44-33.47-16.06-27.49-1.17-32.42,33.09-25.57,53.6,2.47,7.41,10.2,22.8,19.04,13.46ZM1336,168c0,2.56,1.44,7.6,2.49,10.01,6.2,14.2,20.99,8.26,31.46,16.54,6.5,5.15,10.6,23.72,21.58,13.48,1.67-1.55,6.68-10.65,7.47-13.03.96-2.89,2.76-11.46,3-14.49,1.28-16.36-6-37.46-24.59-39.41-4.47-.47-15.26.81-19.64,2.17-9.6,2.99-21.77,14.09-21.77,24.73ZM1247,176c-.55,3.25,1.64,1.67,3.51,1.95,21.59,3.3,41.86,9.71,61.17,19.86l21.81,14.19-4.46-56.54c-7.84-2.58-15.91-5.27-23.99-7.01-50.37-10.85-138.06-8.79-183.72,17.36-2.1,1.2-7.01,3.51-7.33,5.67-.74,4.92-.3,15.67,0,21.02.1,1.7.88,3.27,1.02,4.98.4,4.81.74,9.69.99,14.51,1.36,1.45,28.81-16.38,32.32-18.17,9.36-4.79,19.45-8.35,29.46-11.54l24.22-5.28c2.37-.16,5.18-1.15,7-1,2.45.2,2.17.06,4,0,7.61-.23,15.39-.1,23,0l.65.82c2.54.07,6.6,1.13,8.35-.82.66.03,1.34-.04,2,0ZM1327,214c-48.52-40.02-129.21-42.4-183.68-13.18-7.16,3.84-15.44,8.84-21.32,14.18-1.11.38-3.45.37-2.99,2.48.06.28,3.52,3.81,3.99,4.06,2.97,1.55,3.97-1.44,6.07-2.96,33.87-24.38,93.12-36.15,133.16-24.3,18.05,5.34,40.88,14.66,57.45,23.55,1.55.83,5.16,3.92,5.95,4.1,1.47.33,4.37-4.28,4.41-5.44.1-2.62-2.45-2-3.05-2.49ZM1066.11,322.89l104.95,1.68c6.39-18.92,6.41-36.1-.31-54.82-12.14-33.81-46.98-51.18-78.66-29.14-24.43,17-34.72,54.37-25.99,82.29ZM1078,329c-.47-.04-1.46-.86-2.53-.93-1.99-.12-4-.17-6-.07-1.49.08-1.71-.42-1.47,1.48,1.34,10.52,16.34,27.42,25.32,32.7,23.75,13.98,49.76,5.09,66.1-15.25,2.25-2.81,8.63-12.39,9.56-15.45.53-1.75-.23-1.42-1.46-1.48-2.82-.12-5.72.21-8.52,0-7.98-.59-15.9-1.6-24-1,2.97,8.14-3.52,15.27-11.19,17.3-2.26.6-5.97.36-6.81.69-6.91-5.21-9.25-8.92-8-18-6.72-.24-13.24-1.08-20-1-3.51.04-8.57,1.19-11,1Z"/>
      <path class="st6" d="M1132,1167c1.13-1.18-12.03-26.09-12.99-29.99,12.48,2.01,24.88,4.62,37.48,6.01,62.9,6.94,128.41,7.03,191.11-1.92l10.4-.6c-10.54,12.16-20.66,24.67-31.01,36.99-30.64,36.47-70,78.25-94.41,118.59-8.71,14.4-20.53,35.04,4.43,39.93.12,1.12.05,1.98-.49,3.01-1.06,2.05-12.5,7.91-15.49,9.5-5.91,3.14-14.86,7.95-21.01,9.99-29.4,9.76-66.46,18.03-96.99,25.01-48.91,11.18-94.46,16.65-144.53,18.47-66.13,2.4-136.14,2.89-201.98-2-52.03-3.86-96.8,2.22-148.03,8-35.36,3.99-66.22,5.97-101.99,4.02-40.51-2.2-87.89-4.45-110.67-43.33-39.45-67.34-34.46-188.46-19.55-262.9,3.02-15.08,7.57-36.26,14-50,.86-1.84,3.23-4.16,3.58-5.51.45-1.78-.67-3.19-.52-4.59,1.28-12.39,4.41-33.45,9.18-44.66,12.69-29.81,35.64-25.92,58.41-9.44,26.82,19.42,41.8,53.17,63.09,78.91,25.5,30.84,40.92,44.89,82.51,30.53,32.12-11.08,62.37-30.08,92.45-45.55,80.78-41.53,173.04-75.9,263.55-44.5,61.65,21.39,105.3,60.6,140.9,114.1,8.2,12.32,16.4,28.63,25.13,39.87.64.83,2.56,2.98,3.45,2.05ZM1276,1194c-12.71,1.38-25.71,1.25-38.54,1.04-46.8-.74-95.27-2.64-139.99-18.01-43.5-14.95-79.28-48.95-122.47-66.53-77.07-31.38-141.36-37.1-221.76-12.78-51.54,15.59-102.24,47.36-155.74,51.26-67.69,4.94-101.67-61.7-139.96-105.01-3.75-4.24-11.21-12.96-16.99-12-6.42,1.07-15,22.63-17.29,28.76-7.96,21.35-15.64,49.25-17.23,71.77-2.89,40.81-2.07,86.16,0,126.98,1.85,36.45,2.72,80.1,34.07,104.93,24.66,19.53,53.64,16.43,82.41,14.57,56.88-3.68,110.99-11.3,168-9.98,37.48.86,79.52-9.15,117.96-11.06,94-4.67,188.61,18,281.57-3.43,41.13-9.48,78.13-27.19,113.92-49.08,16.85-39.94,43.06-71.37,68.47-105.53.7-.94,4.34-5.24,3.58-5.91Z"/>
      <path class="st11" d="M1362,767c2.1,6.62,4.6,13.15,6.01,19.99,1.9.16.93-3.19.74-4.25-1.02-5.76-3.33-12.21-5.28-17.76-.58-1.65.28-3.57-2.47-2.99-2.87-18.11-3.06-36.57-5.89-54.61-.27-1.71-.77-10.93-1.11-11.4-.17-.24-3.1-.05-4.02.48-1.31.76-1.84,3.5-2,4.99-1.09,10.29,4.19,22.12,4.02,32.53-5.42-6.06-8.45-13.78-13.16-20.33-1.36-1.9-3.77-5.06-5.31-6.69s-8.97-8.52-10.51-6.98c-.96,6.5,5.29,10.72,8.98,15.52,6.8,8.85,15.81,20.48,20.56,30.44,4.08,8.55,4.14,24.51,5.56,34.44,5.14,36,10.16,73.19,17.19,108.81,4.2,21.27,4.52,38.15,32.69,31.79,10.67,30.6,24.53,60.16,39.83,88.69l10.13,14.7c-11.68,12.06-21.97,25.42-32.96,38.11-20.27,23.4-41.69,45.85-60.52,70.48-1.31,1.24-3.33,1.67-5.05,1.95-56.79,9.42-115.86,9.15-172.9,5.07-24.17-1.73-48.5-3.11-71.87-9.91-47.28-83.47-140.02-143.83-238.16-139.09-3.74.18-12.76,2.45-15.77,1.87-1.66-.32-6.03-3.64-8.37-4.72-37.67-17.46-67.18-36.91-100.26-61.74-20.62-15.47-45.24-33.75-59.92-55.08-1.82-2.65-6.53-9.31-7.03-12.05-.37-2.04,1.6-5.11,2.85-6.78,8.53-11.46,22.65-23.44,32.53-34.47,42.24-47.18,77.35-101.79,118.49-150.51,31.22-36.97,64.57-75.25,100.01-107.99,2.16-2,9.57-10.57,11.48-10.57,1.47,0,19.74,15.44,23.18,17.87,41.25,29.23,107.9,55.91,157.3,66.7,59.27,12.93,118.84,7.44,178.42-.62,67.12-9.08,137.85-20.22,197.33-53.74,1.22-.53,2.12-.09,3.24.36,2.02.81,9.77,7.92,12.06,9.96,5.41,4.84,10.43,10.47,15.46,15.54,27.93,28.18,57.16,61.81,82.51,92.49,13.22,16,25.26,32.87,37.27,49.79,1.48,2.06-.87,4.39-2.28,6.18-5.62,7.17-15.22,16.65-21.96,23.04-44.63,42.29-92.39,76.67-149.34,100.66-27.41,11.55-66.46,26.68-96.17,26.9-1.87.01-3.61.25-4.34-1.75-1.62-4.49-2.88-14.78-3.88-20.12-7.16-38.12-12.1-76.77-17.3-115.2ZM1339,701v-14.5c0-3.35,2.64-12.53,3.73-16.27.61-2.09,4.76-14,5.78-14.23,1.64-.37,1.98,1.41,2.7,2.29,19.31,23.46,24.69,87.92,26.8,118.2,1.27,18.25,2.74,31.52,6.47,49.53,4.1,19.77,9.05,40.08,15.15,59.03l7.66-.26c48.98-16.77,92.4-45.21,135.04-73.96,19.57-13.2,43.27-28.84,61.16-43.84,1.08-.91,7.32-6.11,7.46-6.59.34-1.13-.07-2.16-.9-2.95-33.63-39.69-66.91-79.98-109.72-110.27-4.4-3.12-21.73-15.23-25.8-15.22-66.28,13.69-133.62,21.79-201.01,28.06-25.82,2.4-48.04,3.35-74.01,1.98-77.22-4.09-156.77-18.78-223.43-59.57-3.68-2.25-20.3-14.48-22.6-14.43-1.68.04-9.19,8.1-11,9.99-65.85,68.93-128.43,141.94-192,213-3.36,3.75-23.02,26.1-23.29,28.68-.31,2.9,9.45,14.94,11.83,17.83,26.62,32.43,56.47,62.4,87.01,90.99,3.3,3.09,12.78,14.06,15.92,15.07,4.35,1.4,13.58-1.14,18.55-1.57,34.42-2.97,66.88-3.37,100.52,5.51,48.53,12.81,101.01,40.75,132.98,80.02,7.3,8.97,10.15,17.14,19.69,24.31,20.73,15.57,65.04,34.58,90.81,36.19,30.76,1.91,67.26,1.9,98.02,0,31.85-1.96,63.96-21.82,86.51-43.49,1.8-1.73,3.61-3.49,3.99-6.1-7.59-95.8-56.05-182.88-62.06-278.87-.45-7.24,1.15-14.77-1.21-21.79-8.8-18.19-19.5-35.61-28.14-53.86-2.36-4.99-8.59-15.36-2.56-19.35,5-3.32,14.8,1.66,19.64,4.28l20.32,12.18Z"/>
      <path class="st6" d="M1500,983c-1.85-.4-2.38,1.01-3.5,2-12.02,10.65-23.3,21.99-34,33.99-8.75-12.68-16.06-26.39-22.68-40.3-7.37-15.46-17.47-36.43-22.57-52.43-.58-1.82-2.09-4.57-.82-6.33.74-1.02,20.75-5.53,24.34-6.66,55.71-17.6,102.21-48.82,148.14-83.86,23.33-17.8,45.96-36.58,67.59-56.4,13.05,22.51,26.92,44.63,39.68,67.31,22.94,40.75,38.26,66.07,35.83,115.19-5.22,105.53-61.19,185.24-124.02,264.98-35.94,45.62-74.19,88.83-113.51,131.49-3.06,3.32-7.33,9.93-10.41,12.59-.85.73-7.88,4.13-8.78,4.27-1.86.28-5.8-1.02-8.83-.89-8.57.39-18.24,2.62-26.95,3.06-24.3,1.21-54.58-4.06-78.74-8.28-44.54-7.79-88.57-19.41-130.33-36.67-4.44-4.32,1.87-15.13,4.37-19.73,8.52-15.7,22.11-32.61,33.2-46.8,60.06-76.79,126.78-151.58,190.46-225.54,12.3-14.29,30.28-31.29,39.93-47.07.76-1.24,1.89-2.25,1.59-3.91ZM1335,1249l-2.45,1.01-26.58,38.46c-15.6,30.79,29.54,50.89,52.26,57.8,19.91,6.06,31.74,5.2,51.98,1.43,37.95-7.07,67.91-26.6,95.82-52.18,80.66-73.95,159.8-162.36,191.49-269.51,20.41-69.02,9.74-113.75-22.33-175.69-2.26-4.36-19.77-35.66-21.8-36.27-.57-.17-1.13-.12-1.68.09-33.82,27.52-69.83,52.15-106.78,75.28-30.5,19.09-61.75,37.52-94.92,51.59,2.89,8.13,7.61,15.49,11.19,23.31,4.73,10.33,8.55,21.21,13.6,31.4.5,1.01,1.19,2.58,2.66,2.25,24.73-22.09,51.08-42.71,78.23-61.79,18.65-13.11,41.56-27.76,64.93-30.08,11.43-1.14,6.26,6,2.82,11.83-19.51,33.07-54.77,51.83-84.35,74.65-35.9,27.7-71.48,61.54-101.06,95.94-5.71,6.64-15.45,17.19-19.85,24.15-2.43,3.84-3.83,11.97-5.98,17.02-17.19,40.58-51.58,77.26-75.18,114.32-3.29.15-3.78,2.39-2,5Z"/>
      <path class="st6" d="M746,778.01c.75.6-1.97,4.03-2.59,4.9-3.77,5.33-9.14,11.49-13.43,16.57-13.78,16.33-34.06,33.5-45.97,50.03-1.9,2.63-4.02,5.62-4.04,8.99,0,1.32.9,2.67.79,3.87-.45,4.91-57.31,66.07-65.24,73.65-9.77,9.35-22.46,20.8-33.63,28.37-5.57,3.77-6.07,2.47-11.82-.97-11.17-6.69-26.46-20.52-36.57-29.43-31.86-28.1-55.25-58.13-78.34-93.66s-31.06-54.66-29.22-98.87c2.63-63.18,25.14-118.06,82.37-149.63,13.31-7.34,21.78-8.87,37.19-7.83,43.54,2.94,79.95,37.54,103.32,71.68s41.25,79.12,73.68,106.32c6.96,5.84,15.33,12.38,23.49,16.02ZM457,779c-.04-1.92,1.25-2.87,2.51-3.99,7.53-6.69,16.85-12.54,24.51-19.49,30.55-27.7,49.89-53,52.99-96.01,1.17-16.29-1.63-32.38-3.01-48.51-20.31,5.7-38.65,21.48-52.52,36.98-31.53,35.24-41.34,81.99-33.18,128.22.32,1.8.39,4.58,1.7,5.81-.34.14-.95,1.11-1.94,1.51-3.36,1.36-13.13,2.33-11.96,6.82,1.34,5.13,13.08.22,16.59-1.14,23.15-9,53.73-32.51,68.74-52.26,30.23-39.79,28.73-73.75,22.47-121.32-.69-5.29-2.15-18.83-8.89-18.6.11,1.88-1,3.53-.95,5.4.17,6.18,3.16,16.99,3.96,24.09,3.91,34.84,5.78,59.32-12.2,90.82-15.4,26.99-41.02,48.31-68.81,61.69ZM467,825.01c-.19,1.16.06,1.93.53,2.97,3.46,7.7,12.52,20.07,17.65,27.35,16.16,22.91,34.62,44.77,54.8,64.2,3.16.97,9.15,9.53,11.52,9.53,1.49,0,3.04-1.96,4.02-3.03,35.83-39.42,95.79-102.54,114.97-151.03,2.85-7.19,6.28-24.04,4.29-31.27-.69-2.52-8.52-12.82-10.59-16.41-4.05-7-7.43-14.37-11.77-21.23-15.63-24.73-37.11-43.88-56.93-65.07-1.92,6.52-1.67,13.48-2.77,20.22-10.67,65.36-54.81,121-109.41,156.59-4.87,3.17-10.45,6.53-16.32,7.19Z"/>
      <path class="st6" d="M1403,157c-2.39-5.7-7-12.86-12.3-16.2-13.35-8.39-40.45-3.8-50.68,8.71l-7.01,10.48c-1.29-3.88,1.28-6.95,1.79-9.7.66-3.56-.43-7.64,2.2-10.8,9.21-2.2,23.56-11.35,32.5-11.58,7.83-.2,22.39,5.67,28.43,10.66,16.15,13.34,18.92,39.85,11.57,58.41-1.91,4.83-6.43,10.84-7.26,15.74-2.8,16.58,9.59,48.38,14.3,65.24,12.44,44.59,27.01,89.02,34.36,134.64,2.39,14.81,2.82,32.53,6.12,46.73.2.84,1.83.5,2.01,1.29,1.7,7.36.33,22.59.98,30.87,1.34,16.86,6.75,39.36,14.61,54.39,5.28,10.1,12.9,18.62,20.4,27.1-.14.09-.03,1.56-1.6,2.86-8.23,6.78-28.77,12.54-39.39,15.65-92.93,27.2-196.86,38.73-293.5,32.48-44.75-2.89-76.63-12.92-117.19-30.81-26.43-11.65-56.31-24.78-77.8-44.2-1.45-1.31-6.6-5.92-6.4-7.32.06-.43,2.3-4.51,2.88-5.67,4.48-8.88,10.97-18.02,13.94-27.56,3.36-10.78,5.97-31.11,7.93-43.07,5.95-36.28,9.15-71.62,18.62-107.38s20.98-68.36,30.23-102.77c2.67-9.94,7.3-26.42,7.28-36.22,2.75-.58,1.89,1.34,2.47,2.99,19.57,55.65-9.7,139.79-24.19,195.79-10.75,41.53-17.68,85.12-39.28,122.71.59.96,1.48,1.2,2.44,1.59,26,10.59,55.02,20.84,82.55,26.45,6.88,1.4,7.49,3.07,12.54-2.5,26.11-28.8,49.24-55.51,80-81,4.49-3.72,9.78-6.44,13.48-11.02.9-.42,2.7-3.51,5.41-2.84l.59.84c-.78.58-3.2,3.9-4,5-2.34,3.21-3.82,7.01-6.5,10-1.27-.61-.77-4.98-2.99-3.99l-30.53,26.47c-16.05,15.23-30.81,31.52-45.29,48.21-5,5.76-11.82,11.81-16.14,18.35-1.04,1.58-1.71,3.01-1.54,4.96-1.35-.16-2.59-1.05-3.99-1.01l-3.01,10.5c.46,1.43,2.5-.5,3.01-.49s2.72,3.42,4.05,4.45c1.95,1.51,8.1,5.21,10.33,4.46,2.2-2.92,8.37-6.41,1.62-7.92l-.99,3c-.09-4.05-3.49-2.4-6-3.5-1.42-.63-2.1-2.61-3.01-3.49,3.14.34,3.36.19,3.01-3,1.78-.43.57,1.32,1.03,1.96.61.83,1.85-.95,1.96-.96,1.76-.27,6.48,2.32,7.98,3.52,1.65,1.32,1.42,3.24,3.01,3.48,3.29-6.62,7.14-13.14,11.18-19.33,3.46-5.3,7.42-9.73,10.83-14.67h1c-.37.53-.43,2.41-2.31,3.24l-7.69,13.76c67.87,9.03,136.05,10.78,204.54,10.05,37.16-2.82,74.16-8.79,110.65-16.35,13.9-2.88,27.63-7.54,41.8-8.7-5.92-15.37-12.33-30.47-17.27-46.22-14.24-45.43-24.78-93.72-33.46-140.54-5.58-30.09-11.42-62.54-15.18-92.82-2.99-24.11-3.21-41.27,4.17-64.64,2.09-6.62,6.24-11.43,8.51-17.49,5.02-13.4,6.19-29.05-.55-42.02l-1.23.74Z"/>
      <path class="st6" d="M183.78,1071.28c17.49-.97,24.55,1.68,40.21,8.24,46.33,19.43,95.72,61.82,120.2,105.8,4.7,8.45,7.28,18.48,13.84,25.16.14,36.99,1.76,74.05,11.07,110.03.13,1.25-.4,2.06-1.04,3.04-1.2,1.85-7.96,8.17-10.03,9.96-15.36,13.37-40.57,24.28-59.76,31.24-22.32,8.09-51.09,17.24-74.49,9.97-28.19-8.76-67.21-58.18-81.14-83.86-26.6-49.03-51.77-154.58-14.05-201.79,11.91-14.91,37.31-16.81,55.2-17.8ZM169.75,1103.26c-16.22,2.28-23.81,24.54-26.48,38.52-6.23,32.66,4.26,59.43,14.7,89.75,13.48,39.12,33.26,96.86,75.75,112.25,14.85,5.38,27.12,3.08,42.09-.45,20.16-4.75,59.94-18.64,58.18-44.82-.69-10.25-4.17-28.22-6.28-38.72-10.08-50.22-32.29-88.82-72.24-120.76-20.41-16.32-43.62-31.18-70.08-34.92-4.41-.62-11.43-1.43-15.65-.84Z"/>
      <path class="st6" d="M515,1046c-5-6.82-10.48-13.29-14.8-20.71-.42-.73-1.54-1.64-.75-2.31,17.94-11.06,37.63-19.16,55.47-30.56,46.78-29.88,79.86-64.67,116.06-105.94,4.67-5.32,8.87-11.12,13.51-16.47,7.11,8.4,13.57,17.8,21.48,25.51,34.45,33.54,82.47,62.49,123.34,87.66l22.68,10.81c-43.38,7.17-84.65,20.55-124.36,39.15-28.78,13.48-56.14,29.91-84.64,43.86-.2-2.31,1.52-2.59,2.89-3.61,28.22-21.09,64.49-37.57,97.13-50.87,8.82-3.59,17.86-6.79,26.98-9.53.36-2.23-.02-1.59-1.27-2.21-4.33-2.14-9.85-3.62-14.41-5.6-30.66-13.29-58.8-28.34-85.64-48.36-4.48-3.34-8.37-6.78-12.3-10.77-.56-.12-7.81,5.79-8.93,6.9-12.82,12.72-24.01,27.2-37.43,39.57-27.27,25.13-51.07,38.32-85.75,51.25-2.94,1.1-6.06,2.35-9.27,2.23Z"/>
      <path class="st0" d="M515,1046c3.21.12,6.33-1.13,9.27-2.23,34.68-12.93,58.48-26.12,85.75-51.25,13.42-12.37,24.61-26.85,37.43-39.57,1.11-1.11,8.37-7.02,8.93-6.9,3.92,3.99,7.81,7.43,12.3,10.77,26.84,20.02,54.98,35.07,85.64,48.36,4.56,1.98,10.08,3.46,14.41,5.6,1.25.62,1.64-.02,1.27,2.21-9.12,2.73-18.16,5.94-26.98,9.53-32.64,13.3-68.9,29.78-97.13,50.87-1.37,1.03-3.1,1.3-2.89,3.61-16.85,8.25-32.99,15.93-51,21-.98-1.69-3.83-.99-5.5-1.01-9.33-.1-14.4-.12-23.19-3.81-5.68-2.38-10.4-6.84-16.31-8.19-12.17-12.04-22.03-25.39-32-39Z"/>
      <path class="st6" d="M386,1043c1.25,7.04-2.86,12.17-5.02,18.47-6.58,19.22-11.29,39.24-14.7,59.3-4.32,25.36-6.92,51.53-7.28,77.23l-18.17-31.32c-28.75-40.28-68.92-74.6-114.82-93.69-.23-1.75,2.27-.94,3.49-.99,5.55-.22,10.02.9,14.96,1.05,49.33,1.43,95.09-16.4,141.54-30.04Z"/>
      <path class="st11" d="M973.32,562.74c12.53,9.97,38.34,21.19,54,28.45,45.86,21.25,81.9,34.65,133.19,37.81,96.8,5.95,201.19-4.88,294.5-32.49,12.6-3.73,26.11-8.18,37.67-14.33,3.7-1.97,7.46-6.02,11.8-6.21,1.99-.09,1.61.22,1.52,2.02-10.28,5.02-20.39,10.16-31.01,14.5-45.22,18.49-91.46,27.01-139.62,34.38-66.66,10.21-135.97,19.13-202.57,4.83-55.59-11.94-122.06-40.02-167.32-73.65-1.98-1.47-2.03-3.98,0-3.04.36.16,5.02,4.14,6.05,4.98.9.74,1.03,2.16,1.78,2.75Z"/>
      <path class="st11" d="M1660.99,751c.18.22.2,1.57.97,2.49s2.81,2.3,2.99,3.12c.27,1.25-10.02,11.09-11.93,12.91-17.66,16.78-37.36,32.44-56.54,47.46-51.65,40.43-115.72,85.13-181.25,97.75-11.62,2.24-28.32,6.9-31.23-8.72,33.15-.54,64.72-12.12,94.99-24.51,59.57-24.39,108.53-58.92,155.03-102.97,8.83-8.37,17.2-17.48,24.92-26.88.67-.82,1.75-1,2.04-.64Z"/>
      <path class="st6" d="M592,1098c-7.53,2.12-15.22,4.63-23.3,2.8-5.36-1.21-17.57-11.72-21.7-15.8,5.91,1.34,10.64,5.8,16.31,8.19,8.79,3.69,13.86,3.71,23.19,3.81,1.67.02,4.52-.68,5.5,1.01Z"/>
      <path class="st7" d="M1361,762c2.75-.58,1.89,1.34,2.47,2.99,1.96,5.56,4.27,12,5.28,17.76.19,1.06,1.16,4.41-.74,4.25-1.41-6.84-3.91-13.37-6.01-19.99-.74-2.33-.64-2.72-1-5Z"/>
      <path class="st11" d="M963,555l-7.52-4.98-2.48-4.01c1.81-1.56,6.9,4.25,8,5.49.99,1.12,2.4,1.65,2,3.5Z"/>
      <path class="st0" d="M1403,157l1.23-.74c6.73,12.97,5.57,28.62.55,42.02-2.27,6.07-6.42,10.87-8.51,17.49-7.38,23.37-7.17,40.52-4.17,64.64,3.76,30.29,9.6,62.73,15.18,92.82,8.68,46.82,19.21,95.12,33.46,140.54,4.94,15.75,11.34,30.86,17.27,46.22-14.16,1.16-27.9,5.83-41.8,8.7-36.5,7.56-73.49,13.53-110.65,16.35-68.49.73-136.68-1.02-204.54-10.05l7.69-13.76c1.88-.83,1.93-2.71,2.31-3.24,9.64-13.77,22.49-30.34,33.62-42.93,10.55-11.94,23.14-22.28,33.89-34.06,1.12-1.23,2.59-2.02,2.49-4.01.44-.1,4.6-1.77,5-2,5.22,2.96,12.81,5.32,18.72,6.78,2.08.51,4.39-.03,6.53.47,5.49,1.27,11.94,4.05,17.34,4.66,8.96,1.02,31.37-.86,36.29-9.55,1.02-1.81.7-3.37,1.12-4.36.04-.1.7-.62,1-1,1.28-1.59,4.27-2.24-.42-4.08-3.64-1.43-17.71-3.58-22.08-3.92-12.42-.97-28.92-1.85-41,.05-1.86.29-4.07-1.3-3.51,1.95-3.68-.28-6.9,1.44-10.54,1.08-2.5-.25-3.37-2.09-5.67-1.91-5.54.43-22.9,8.78-28.09,12.02-1.59,1-3.91,2.06-4.69,3.8,2.2-.53,5.29-.51,7.29-1.03.82-.22.68-1.51,1.49-1.87,3.28-1.47,7.12-2.64,10.22-4.09-3.71,4.58-9,7.3-13.48,11.02-30.76,25.5-53.89,52.2-80,81-5.05,5.57-5.66,3.9-12.54,2.5-27.53-5.61-56.55-15.86-82.55-26.45-.96-.39-1.85-.63-2.44-1.59,21.61-37.58,28.53-81.18,39.28-122.71,14.49-56,43.76-140.14,24.19-195.79-.58-1.65.28-3.57-2.47-2.99-.01-6.83-1.87-8.29-3-14-.85-4.3-1.43-11.02-1.91-15.6-.17-1.61-.8-4.44.91-5.4.69,8.56,7.35,28.69,16.7,30.8,14.86,3.36,14.76-11.11,23.36-17.24s20.77-2.05,28.94-13.06l3.99-6.5c-.73,3.32.84,6.5,1.02,9.49.48,8.16-.54,20.96,2.99,28.51-11.51,4.18-22.48,12.83-30.52,21.98-2.79,3.18-8,9.48-7.48,12.02.19.92-7.87,13.25-9.18,16.32-2.27,5.29-4.39,11.82-5.54,17.46-2.93,14.36-1,23.19-.28,37.22.32,6.27-.17,12.04-.91,18.59-4.19,37.19,34.5,69.61,70.9,59.91,27.72-7.38,34.85-27.81,40.75-53.25.44-1.88,1.67-6.69.25-8.25,10.71-21.05,12.3-50.05,3.49-71.99-5.29-13.18-13.68-23.03-24.49-32.01,19.54.11,39.29,18.38,46.49,36.01,9.59,23.47,3.18,37.55-3.76,60.22-2.39,7.8-7.11,15.01-5.73,23.77-5.15,4.16-11.7,12.31-10.76,19.24,1.88,13.87,18.38,27.84,30.38,33.64,2.76,1.33,12.23,5.14,14.74,4.87,1.35-.14,10.08-4.84,11.95-5.94,14.88-8.79,28.27-23.95,26.69-42.32-.61-7.17-5.64-6.91-9-12.49-2.34-6.8-6.28-12.99-8.77-19.73-1.56-4.22-3.1-7.11-2.23-11.27,4.33,2.98.43-4.61-.02-5.29-2.46-3.76-3-5.92-4.98-9.71l2.46-20.04c4.21-19.92,18.64-35.85,37.54-42.96-2.05,1.39-8.68,10.48-10.42,13.08-11.39,17-15.75,42.96-11.58,62.92-1.94,2.96-.44,8.84.13,12.38,3.27,20.41,11.99,46.21,28.39,59.61,25.56,20.88,56.55,15.86,75.91-10.06,11.02-14.76,12.33-30,14.3-47.7.18-1.59,1.15-4.23-.73-5.22,3-12.67,2.46-28.25,2-41-.99-27.3-15.18-52.38-39-66,.13-.16-.25-1.16.25-1.72,1.14-1.29,4.37-1.35,3.8-4.73l-2.04-29.55c1.97.84,2.27,3.06,4.02,4.47,7.18,5.8,19.71,3.71,26.92,10.08,7.94,7.01,7.07,18.59,21.51,16.4,5.96-.9,11.3-10.45,13.4-15.6,5-12.28,6.32-29.99,1.14-42.36ZM1270,569c.87-.62,7.22-2.94,3.04-5.53-3.33-2.07-14.46,4.01-18.82,5.25-17.52,4.97-35.79,3.64-53.61,1.18-4.42-.61-26.5-5.66-28.61-3.89-.12.1-.43,2.66.6,3.08.91.38,2.72.47,3.26,1.11.45.54,0,1.48.15,1.81.47,1.02.52,1.3,1.68,1.78,6.23,2.59,21.11,5.83,28.07,6.96,20.12,3.27,47.52.23,64.25-11.75Z"/>
      <path class="st12" d="M1320,148c-53.98-14.35-149.44-15.57-199,13,1.59-25.41,5.68-49.56,18.82-71.68,12-20.19,36.38-39.86,58.64-47.36,40.75-13.73,87.04,1.52,106.42,40.66,9.81,19.8,13.96,43.48,15.12,65.38ZM1237.16,59.83c-.52-.79.14-2.79-1.07-4.41-3.87-5.17-21.27-6.18-26.14-1.98-2.43,2.09-2.84,6.41-3.89,7.11-1.81,1.19-6.4.44-9.73,3.78-3.04,3.04-1.77,5.71-2.51,8.99-.58,2.55-3.26,4.5-3.73,8.27-.29,2.31-.29,5.04.61,7.2,1.1,2.64,6.83,2.85,7.23,3.31.64.71-.6,5.62.57,7.93,1.58,3.1,7.17,2.57,8.07,3.93,1.25,1.87-.44,5.63,3.05,7.95,5.2,3.44,26.04,2.49,29.28-2.49,1.62-2.49.82-7.15,1.1-7.4.33-.29,6.11.47,8.05-2.68,2.33-3.77-.3-7.08.07-8.74.28-1.28,4.31-1.71,4.58-6.23s-2.81-7.78-3.49-11.05c-.46-2.21.19-4.63-.38-6.62-1.49-5.16-11.18-6.1-11.66-6.85Z"/>
      <path class="st6" d="M1153,210c6.19,2.97,14.33,2.95,21.23,4.27,20.01,3.83,36.33,10.28,57.17,7.62,10.93-1.39,22.16-5.42,33.21-6.79l31.39-3.11c4.68,1.98,9.81,3.96,14.36,6.14,3.73,1.78,13.64,8.37,16.2,8.87.73.14,1.7.24,2.29-.17.35-.24,4.11-5.52,5.15-6.83,23.82,13.62,38.01,38.7,39,66-3.02.59-1.71-1.47-2.25-3.21-14.15-45.79-51.88-70.56-95.75-40.79-18.9,7.1-33.33,23.04-37.54,42.96l-2.46,20.04c-.77-1.46-2.48-3.55-3.5-5-1.03,5.92,5.26,11.62,7.5,17l-.55.5c.05.29.45.32.55.5.27.46,1.3.56,1,2-.88,4.16.67,7.05,2.23,11.27,2.49,6.74,6.43,12.93,8.77,19.73-4.41.06-7.51-3.5-11.31-5.19-17.13-7.61-38.3-3.44-52.69,8.19-1.38-8.76,3.34-15.97,5.73-23.77,6.94-22.67,13.34-36.75,3.76-60.22-7.2-17.63-26.95-35.9-46.49-36.01-2.78-.02-15.16-5.96-21.47-7.04-.87-.15-3.53.62-2.52-1.45,1.12-2.29,23.03-13.62,26.99-15.51ZM1197.99,327c1.55-9.17,7.16-17.67,8-27l-3.47,7.02c-1.24,6.28-5.2,12.5-6.34,18.68-.36,1.95.13,1.26,1.81,1.3ZM1233,323c-.73-.62-15.86.76-18.44,1.07-.8.1-5.45,1.2-3.56,2.92.99.91,17.34-1.81,20.49-2.03,1.56-.11,3-.7,1.5-1.96Z"/>
      <path class="st0" d="M1066.11,322.89c-8.73-27.92,1.56-65.29,25.99-82.29,31.68-22.04,66.52-4.67,78.66,29.14,6.72,18.72,6.69,35.9.31,54.82l-104.95-1.68Z"/>
      <path class="st12" d="M1202,177c-2.78.19-5.78-.3-8.51,0-25.41,2.76-50.86,15.11-72.48,28.01-.04-6.11-1.52-12.46-2.02-18.49s.73-5.9,5.34-8.68c30.25-18.26,69.56-16.43,103.11-20.89,31.69-4.21,60.5-1.06,91.96,2.17,1.27.13,8.23,1.63,8.49,2.01l1.11,42.88c-1.21,1.22-11.19-6.05-13.32-7.18-21-11.11-44.75-19.43-68.68-20.82-.66-.04-1.34.03-2,0-2.98-.13-6.01.04-9,0-7.61-.1-15.39-.23-23,0h-4c-1.82-.15-4.63.84-7,1Z"/>
      <path class="st10" d="M1121,161c-1.34.77-8.14,6.91-9,6-7.56-46.02,17.09-95.9,55.7-120.8,61.22-39.48,139.41-14.05,159.81,56.8,4.65,16.15,4.11,31.4,2.49,48-.36.38-8.54-2.61-10-3-1.17-21.9-5.31-45.57-15.12-65.38-19.38-39.14-65.67-54.39-106.42-40.66-22.26,7.5-46.63,27.18-58.64,47.36-13.15,22.11-17.23,46.27-18.82,71.68Z"/>
      <path class="st10" d="M1202,177l-24.22,5.28c-10.01,3.2-20.1,6.75-29.46,11.54-3.5,1.8-30.96,19.63-32.32,18.17-.25-4.82-.59-9.7-.99-14.51-.14-1.7-.93-3.28-1.02-4.98-.3-5.35-.74-16.1,0-21.02.32-2.16,5.23-4.47,7.33-5.67,45.66-26.15,133.35-28.21,183.72-17.36,8.07,1.74,16.15,4.43,23.99,7.01l4.46,56.54-21.81-14.19c-19.31-10.15-39.58-16.57-61.17-19.86-1.87-.28-4.06,1.3-3.51-1.95,23.93,1.39,47.68,9.71,68.68,20.82,2.13,1.12,12.1,8.39,13.32,7.18l-1.11-42.88c-.27-.38-7.22-1.88-8.49-2.01-31.46-3.23-60.27-6.38-91.96-2.17-33.55,4.45-72.86,2.63-103.11,20.89-4.6,2.78-5.83,2.67-5.34,8.68s1.98,12.39,2.02,18.49c21.62-12.9,47.07-25.25,72.48-28.01,2.73-.3,5.73.2,8.51,0Z"/>
      <path class="st6" d="M1171,338c1.42,1.56.19,6.37-.25,8.25-5.9,25.44-13.03,45.87-40.75,53.25-36.41,9.7-75.09-22.73-70.9-59.91.74-6.55,1.23-12.32.91-18.59,2.88,7.82,5.21,15.79,9.48,23.02,25.29,42.85,79.87,36.53,101.52-6.02Z"/>
      <path class="st0" d="M1296,212l-31.39,3.11c-11.05,1.37-22.28,5.4-33.21,6.79-20.85,2.65-37.16-3.79-57.17-7.62-6.9-1.32-15.04-1.3-21.23-4.27,23.32-11.11,48.93-14.68,74.49-16.01,22.7-1.18,47.89,9.28,68.51,18.01Z"/>
      <path class="st7" d="M1399,195c-.79,2.38-5.8,11.48-7.47,13.03-10.98,10.24-15.08-8.34-21.58-13.48-10.47-8.29-25.25-2.34-31.46-16.54-1.05-2.4-2.49-7.45-2.49-10.01,3.18.12,2.86-4.22,5.06-6.44,6.81-6.87,20.6-5.23,28.93-2.05,11.05,4.22,20.64,12.81,25.19,23.81,1.62,3.92,1.89,8.04,3.82,11.68Z"/>
      <path class="st7" d="M1102,157c6.23,8.36,3.54,25.47-6.71,29.79-6.1,2.57-13.43,2.22-19.61,5.39-6.8,3.48-8.8,10.68-13.67,15.83-12.38.74-16.88-13.13-13.73-23.23,7.26-23.29,25.59-24.1,46.34-29.71l7.39,1.94ZM1064,191c-1.13.2-4.62-.32-5,0-.43.36-.05,4.68,1.51,4.99,2,.4,4.07-4.43,3.49-4.99Z"/>
      <path class="st4" d="M1102,157l-7.39-1.94c-20.75,5.6-39.08,6.42-46.34,29.71-3.15,10.1,1.36,23.98,13.73,23.23-8.83,9.34-16.56-6.06-19.04-13.46-6.85-20.52-1.92-54.77,25.57-53.6,14.78.63,24.51,4.05,33.47,16.06Z"/>
      <path class="st4" d="M1336,168c0-10.64,12.17-21.74,21.77-24.73,4.38-1.36,15.18-2.64,19.64-2.17,18.59,1.95,25.87,23.05,24.59,39.41-.24,3.03-2.04,11.6-3,14.49-1.93-3.64-2.2-7.76-3.82-11.68-4.55-11-14.14-19.59-25.19-23.81-8.33-3.18-22.12-4.82-28.93,2.05-2.2,2.22-1.88,6.56-5.06,6.44Z"/>
      <path class="st2" d="M1089,328c.4,7.42,8.57,10.09,12.68,14.32,4.53,4.67,3.08,8.33,12.86,6.67,2.09-.35,2.31-1.93,2.47-2,.84-.33,4.55-.1,6.81-.69,7.67-2.03,14.17-9.16,11.19-17.3,8.09-.6,16.02.41,24,1,.22,2.02-.56,3.31-1.56,4.94-9.86,16.04-25.11,28.7-44.99,27.1-4.58-.37-8.55-3.03-11.96-6.03-6.74-5.93-14.82-13.46-19.93-21.07-1.2-1.78-2.24-3.8-2.56-5.95,2.43.19,7.49-.96,11-1Z"/>
      <path class="st12" d="M1327,214c-1.06,1.62-1.11,2.35-3.4,2-4.49-.69-15.74-7.89-20.92-10.18-58-25.72-99.36-25.73-157.66-1.29-7.6,3.19-15.25,7.83-23.02,10.48,5.88-5.34,14.15-10.34,21.32-14.18,54.47-29.22,135.16-26.84,183.68,13.18Z"/>
      <path class="st4" d="M1078,329c.32,2.15,1.36,4.17,2.56,5.95,5.11,7.61,13.19,15.13,19.93,21.07,3.41,3.01,7.38,5.66,11.96,6.03,19.88,1.6,35.13-11.06,44.99-27.1,1-1.63,1.78-2.91,1.56-4.94,2.8.21,5.69-.12,8.52,0,1.23.05,2-.28,1.46,1.48-.93,3.06-7.31,12.64-9.56,15.45-16.34,20.35-42.35,29.23-66.1,15.25-8.97-5.28-23.98-22.17-25.32-32.7-.24-1.9-.02-1.4,1.47-1.48,1.99-.1,4.01-.04,6,.07,1.07.06,2.06.89,2.53.93Z"/>
      <path class="st10" d="M1122,215c7.77-2.65,15.42-7.29,23.02-10.48,58.3-24.44,99.66-24.42,157.66,1.29,5.18,2.29,16.42,9.49,20.92,10.18,2.29.35,2.34-.38,3.4-2,.6.49,3.15-.13,3.05,2.49-.05,1.16-2.95,5.77-4.41,5.44-.79-.18-4.4-3.27-5.95-4.1-16.56-8.89-39.4-18.22-57.45-23.55-40.04-11.84-99.28-.08-133.16,24.3-2.1,1.51-3.1,4.51-6.07,2.96-.46-.24-3.92-3.78-3.99-4.06-.47-2.1,1.87-2.1,2.99-2.48Z"/>
      <path class="st6" d="M1079,130l-15.52,3.98-5.47,2.11c.11.47.97.77.99.92.11.9-9.07,4.8-11.03,6.47-10.47,8.96-13.02,27.59-11.97,40.53-1.71.96-1.07,3.8-.91,5.4.48,4.58,1.06,11.3,1.91,15.6-1.82-.84-2.54-3.39-3.36-5.14-14.24-30.37.54-69.65,36.88-71.88,4.74-.29,5.14.95,8.49,2.02Z"/>
      <path class="st0" d="M1079,130c.77.25,2.1-.1,2.99.47,8.21,4.72,18.18,5.87,26.01,11.03v15c0,.47,2.54,3.44,0,3.5.02-1.26-.26-2.48-.95-3.56-11.28-17.75-28.05-20.67-48.06-19.44-.02-.15-.88-.44-.99-.92l5.47-2.11,15.52-3.98Z"/>
      <path class="st6" d="M1113,216c.13.27,3.47,4.1,3.96,4.55,2.18,2,5.51,2.87,7.04,5.45-14.6-.7-30.45,5.45-41.02,15.49-2.97,2.82-4.62,6.32-7.98,8.52-.52-2.54,4.69-8.84,7.48-12.02,8.04-9.15,19.01-17.8,30.52-21.98Z"/>
      <path class="st11" d="M1089,328c6.77-.08,13.28.75,20,1-1.25,9.09,1.08,12.8,8,18-.16.06-.38,1.64-2.47,2-9.78,1.65-8.33-2-12.86-6.67-4.1-4.23-12.27-6.91-12.68-14.32Z"/>
      <path class="st10" d="M1245,176c-1.76,1.95-5.81.89-8.35.82l-.65-.82c2.99.04,6.02-.13,9,0Z"/>
      <path class="st10" d="M1213,176c-1.83.06-1.55.2-4,0h4Z"/>
      <path class="st5" d="M1276,1194c.75.67-2.88,4.97-3.58,5.91-25.42,34.16-51.62,65.59-68.47,105.53-35.79,21.89-72.78,39.6-113.92,49.08-92.95,21.43-187.57-1.24-281.57,3.43-38.44,1.91-80.49,11.92-117.96,11.06-57.01-1.32-111.12,6.31-168,9.98-28.77,1.86-57.75,4.97-82.41-14.57-31.35-24.84-32.22-68.49-34.07-104.93-2.07-40.82-2.89-86.17,0-126.98,1.6-22.51,9.27-50.42,17.23-71.77,2.29-6.13,10.87-27.69,17.29-28.76,5.78-.96,13.25,7.76,16.99,12,38.29,43.31,72.27,109.94,139.96,105.01,53.5-3.9,104.2-35.67,155.74-51.26,80.4-24.32,144.7-18.6,221.76,12.78,43.19,17.59,78.97,51.58,122.47,66.53,44.72,15.37,93.2,17.26,139.99,18.01,12.84.2,25.83.34,38.54-1.04Z"/>
      <path class="st1" d="M1339,701l-20.32-12.18c-4.84-2.62-14.64-7.59-19.64-4.28-6.02,4,.2,14.36,2.56,19.35,8.64,18.24,19.35,35.67,28.14,53.86,2.36,7.02.76,14.55,1.21,21.79,6.01,95.99,54.47,183.07,62.06,278.87-.37,2.61-2.18,4.37-3.99,6.1-22.56,21.67-54.67,41.52-86.51,43.49-30.76,1.9-67.26,1.91-98.02,0-25.77-1.6-70.08-20.62-90.81-36.19-9.54-7.17-12.39-15.34-19.69-24.31-31.97-39.27-84.45-67.21-132.98-80.02-33.64-8.88-66.1-8.48-100.52-5.51-4.97.43-14.19,2.96-18.55,1.57-3.14-1.01-12.62-11.99-15.92-15.07-30.54-28.6-60.38-58.56-87.01-90.99-2.37-2.89-12.14-14.93-11.83-17.83.28-2.58,19.94-24.93,23.29-28.68,63.57-71.06,126.15-144.07,192-213,1.8-1.89,9.32-9.95,11-9.99,2.3-.05,18.92,12.18,22.6,14.43,66.66,40.79,146.21,55.47,223.43,59.57,25.96,1.38,48.19.43,74.01-1.98,67.39-6.27,134.73-14.37,201.01-28.06,4.07,0,21.4,12.11,25.8,15.22,42.82,30.3,76.1,70.58,109.72,110.27.83.79,1.24,1.82.9,2.95-.15.48-6.38,5.68-7.46,6.59-17.89,15-41.59,30.64-61.16,43.84-42.63,28.76-86.05,57.2-135.04,73.96l-7.66.26c-6.1-18.95-11.05-39.25-15.15-59.03-3.73-18.02-5.2-31.28-6.47-49.53-2.11-30.28-7.49-94.74-26.8-118.2-.72-.87-1.07-2.66-2.7-2.29-1.01.23-5.16,12.14-5.78,14.23-1.09,3.74-3.73,12.91-3.73,16.27v14.5ZM952,820c.57-2.7-1.3-1.95-2.99-2.46-5.74-1.71-14.71-4.21-20.51-4.56-13.2-.79-12.38,11.49-1.49,14.51,63.44,19.61,126.49,36.38,187.68,62.32,24.18,10.25,53.9,26.62,79.91,30.09,1.65.22,4.85,1.05,4.42-1.42-.78-4.47-20.02-18.99-24.58-22.47-1.22-.93-2.97-.81-2.43-3.02,3.45,1.01,8.45,1.23,3.28-1.78-6.51-3.79-17.05-7.64-24.3-10.7-9.53-4.03-19.31-7.86-28.98-11.52-.55-3.02,1.53-1.93,3.47-2,22.33-.75,44.73,1.23,66.74-4.31,1.71-.43,4.03-.63,2.32-2.72-1.39-1.69-5.92-2.36-8.17-2.87-1.85-.42-3.93,1.01-3.35-2.1,2.84-1.55,5.89-.74,9.05-1.5,1-.24,3.49-1.2,1.95-2.5-.48-.4-10.63-.11-12.51-.01-26.97,1.41-54.01,2.38-81,1.02-46.57,1.17-87.86-23.48-133.26-30.74-5.19-.83-10.32-.7-15.23-1.27Z"/>
      <path class="st5" d="M1335,1249c16.31,1.33,33.7,2.32,49.44,7.06,12.41,3.74,25.54,10.6,38.03,14.97,11.15,3.9,22.49,8.14,34.52,6.97.38-1.75-.49-1.99-1.65-2.84-7.92-5.83-25.4-7.6-34.61-12.39l-5.74-2.76h47c.18-1.88.33-1.72-1.25-2.24-4-1.32-12.2-3.22-16.35-3.66-14.36-1.52-29.61-.42-43.91-2.09s-27.76-6.76-42.09-7.91c-7.02-.56-14.35.2-21.4-.1,23.61-37.05,58-73.74,75.18-114.32,2.14-5.05,3.54-13.19,5.98-17.02,4.4-6.95,14.14-17.51,19.85-24.15,29.59-34.4,65.16-68.24,101.06-95.94,29.58-22.82,64.83-41.59,84.35-74.65,3.44-5.83,8.61-12.96-2.82-11.83-23.37,2.32-46.28,16.97-64.93,30.08-27.15,19.08-53.5,39.7-78.23,61.79-1.47.33-2.16-1.24-2.66-2.25-5.05-10.19-8.87-21.07-13.6-31.4-3.58-7.81-8.3-15.17-11.19-23.31,33.17-14.07,64.43-32.5,94.92-51.59,36.95-23.13,72.96-47.76,106.78-75.28.55-.21,1.11-.26,1.68-.09,2.03.61,19.54,31.91,21.8,36.27,32.06,61.94,42.74,106.67,22.33,175.69-31.69,107.16-110.82,195.56-191.49,269.51-27.9,25.58-57.87,45.11-95.82,52.18-20.24,3.77-32.07,4.62-51.98-1.43-22.72-6.91-67.86-27.01-52.26-57.8l26.58-38.46,2.45-1.01Z"/>
      <path class="st8" d="M1337,1244c7.05.3,14.38-.46,21.4.1,14.33,1.15,28.26,6.29,42.09,7.91s29.54.58,43.91,2.09c4.15.44,12.35,2.34,16.35,3.66,1.58.52,1.43.36,1.25,2.24h-47l5.74,2.76c9.21,4.79,26.68,6.57,34.61,12.39,1.16.85,2.03,1.09,1.65,2.84-12.03,1.17-23.37-3.08-34.52-6.97-12.49-4.36-25.62-11.23-38.03-14.97-15.74-4.74-33.13-5.73-49.44-7.06-1.78-2.61-1.29-4.85,2-5Z"/>
      <path class="st5" d="M467,825.01c5.87-.66,11.46-4.01,16.32-7.19,54.6-35.59,98.74-91.23,109.41-156.59,1.1-6.74.85-13.7,2.77-20.22,19.82,21.2,41.3,40.34,56.93,65.07,4.33,6.86,7.72,14.24,11.77,21.23,2.08,3.59,9.9,13.89,10.59,16.41,1.99,7.23-1.45,24.08-4.29,31.27-19.19,48.49-79.14,111.6-114.97,151.03-.98,1.08-2.53,3.03-4.02,3.03-2.37,0-8.36-8.56-11.52-9.53-20.18-19.42-38.64-41.29-54.8-64.2-5.14-7.28-14.19-19.64-17.65-27.35-.47-1.04-.72-1.81-.53-2.97Z"/>
      <path class="st0" d="M450,782c-1.31-1.23-1.38-4.01-1.7-5.81-8.17-46.23,1.65-92.98,33.18-128.22,13.86-15.5,32.21-31.27,52.52-36.98,1.38,16.13,4.19,32.22,3.01,48.51-3.1,43.01-22.44,68.31-52.99,96.01-7.66,6.94-16.98,12.8-24.51,19.49-1.26,1.12-2.55,2.07-2.51,3.99-2.6,1.25-4.5,1.94-7,3Z"/>
      <path class="st8" d="M450,782c2.5-1.06,4.4-1.75,7-3,27.79-13.38,53.41-34.7,68.81-61.69,17.98-31.5,16.11-55.98,12.2-90.82-.8-7.1-3.79-17.91-3.96-24.09-.05-1.87,1.06-3.52.95-5.4,6.74-.23,8.2,13.32,8.89,18.6,6.25,47.58,7.76,81.53-22.47,121.32-15.01,19.75-45.59,43.26-68.74,52.26-3.51,1.37-15.25,6.27-16.59,1.14-1.17-4.48,8.6-5.46,11.96-6.82.99-.4,1.6-1.37,1.94-1.51Z"/>
      <path class="st11" d="M1178,477c-7.24,8.55-15.86,15.84-23.52,23.98-17.04,18.1-30.49,36.73-44.48,57.02-3.41,4.94-7.38,9.36-10.83,14.67-4.04,6.19-7.89,12.7-11.18,19.33-1.59-.24-1.36-2.16-3.01-3.48-1.5-1.2-6.22-3.79-7.98-3.52-.77-.57-3.42-3.95-3.68-4.01-1.36-.3-2.94.17-4.32,0-.16-1.95.5-3.38,1.54-4.96,4.33-6.54,11.14-12.59,16.14-18.35,14.49-16.69,29.24-32.97,45.29-48.21l30.53-26.47c2.22-.99,1.71,3.38,2.99,3.99,2.69-2.99,4.17-6.79,6.5-10,.58.2,1.57,1.03,2,1,.86-.06,2.04-1.35,2.97-1.54.86-.17.97.55,1.03.54ZM1138,514l-5.54,2.95-11.45,17.04,3.85-1.64,13.14-18.35Z"/>
      <path class="st12" d="M1071,587c.91.89,1.59,2.86,3.01,3.49,2.51,1.11,5.91-.55,6,3.5l.99-3c6.75,1.51.58,5-1.62,7.92-2.23.74-8.39-2.95-10.33-4.46-1.33-1.03-3.54-4.44-4.05-4.45.15-4.45,2.41-6.49,6-3Z"/>
      <path class="st8" d="M1069,581c1.38.16,2.96-.31,4.32,0,.27.06,2.91,3.44,3.68,4.01-.11.02-1.36,1.79-1.96.96-.46-.63.74-2.39-1.03-1.96.36,3.19.13,3.34-3.01,3-3.59-3.49-5.85-1.45-6,3-.51,0-2.55,1.92-3.01.49l3.01-10.5c1.41-.04,2.64.84,3.99,1.01Z"/>
      <path class="st5" d="M169.75,1103.26c4.23-.6,11.24.21,15.65.84,26.46,3.74,49.67,18.6,70.08,34.92,39.95,31.94,62.15,70.55,72.24,120.76,2.11,10.5,5.59,28.47,6.28,38.72,1.76,26.18-38.02,40.07-58.18,44.82-14.97,3.53-27.24,5.83-42.09.45-42.49-15.39-62.28-73.12-75.75-112.25-10.44-30.32-20.94-57.09-14.7-89.75,2.67-13.98,10.26-36.23,26.48-38.52Z"/>
      <path class="st3" d="M1251,351c3.37,5.58,8.39,5.32,9,12.49,1.57,18.37-11.81,33.52-26.69,42.32-1.87,1.1-10.59,5.8-11.95,5.94-2.51.26-11.98-3.54-14.74-4.87-12-5.8-28.5-19.76-30.38-33.64-.94-6.93,5.61-15.08,10.76-19.24,14.39-11.64,35.56-15.8,52.69-8.19,3.8,1.69,6.9,5.25,11.31,5.19ZM1231,394c2.08,2.11,13.35-7.72,14.49-10,1.31-2.62.13-7.05.5-10-.72-.87-13.82,11.67-14.49,13-1.05,2.1-.36,4.75-.5,6.99ZM1191,375c-2.62,6.03,6.5,20.85,13,17.52s-4.99-12.82-8.11-14.92c-.91-.61-4.17-3.39-4.89-2.6Z"/>
      <path class="st6" d="M1371,327c1.88.99.9,3.63.73,5.22-1.98,17.7-3.28,32.94-14.3,47.7-19.36,25.93-50.35,30.95-75.91,10.06-16.4-13.4-25.12-39.2-28.39-59.61-.57-3.53-2.07-9.41-.13-12.38,7.15,34.2,36.6,65.86,74.21,56.71,21.14-5.14,38.88-27.02,43.79-47.71Z"/>
      <path class="st3" d="M1275,242c43.87-29.77,81.61-5,95.75,40.79.54,1.74-.77,3.8,2.25,3.21.46,12.75,1,28.33-2,41-4.9,20.69-22.64,42.58-43.79,47.71-37.62,9.14-67.06-22.52-74.21-56.71-4.17-19.96.19-45.92,11.58-62.92,1.74-2.6,8.37-11.69,10.42-13.08ZM1260.11,325.89l105.95-2.32c8.44-30.29-4.69-70.51-34.17-84.96-24.71-12.11-51.65-1.27-65.07,21.72-9.63,16.5-12.57,35.11-9.56,53.91.63,3.92,1.73,7.86,2.85,11.66ZM1359,342c2.24-4.14,5.44-8.08,6-13h-43c3.76,14.65-9.59,23.99-21.96,14.45-3.19-2.46-4.78-5.98-4.89-9.97-.03-1.02,1.21-3.14.85-3.48-9.98.09-20.02-.14-30,0-1.75.02-4.37-.95-4.02,1.5.5,3.5,7.52,14.9,10.03,17.98,26.51,32.62,67.07,29.28,86.99-7.49Z"/>
      <path class="st6" d="M1270,569c-8.07,1.69-15.05,6.38-23,8.5-19.43,5.18-33.81-.83-52.6-3.4-5.89-.81-12.35-.06-18.4-2.1-.15-.32.3-1.27-.15-1.81-.53-.64-2.35-.73-3.26-1.11-1.03-.43-.72-2.98-.6-3.08,2.11-1.77,24.19,3.28,28.61,3.89,17.82,2.46,36.09,3.8,53.61-1.18,4.36-1.24,15.49-7.32,18.82-5.25,4.18,2.6-2.16,4.91-3.04,5.53Z"/>
      <path class="st6" d="M1223,475c.38,1,1.13,1.08,1.93,1.54,6.6,3.72,17.02,5.07,24.36,3.25,5.47-1.35,10.67-7.53,16.71-6.79-.42.99-.1,2.55-1.12,4.36-4.92,8.69-27.33,10.57-36.29,9.55-5.39-.61-11.85-3.39-17.34-4.66-2.14-.5-4.45.04-6.53-.47-5.91-1.46-13.5-3.81-18.72-6.78.29-.16.77-1.8,2.01-2.46,9.13-4.83,25.4.72,34.99,2.46Z"/>
      <path class="st3" d="M1200,466c19.75,1.52,39.5,3.7,59.51,4.99,2.44.16,4.87,1.52,7.49,1.01-.3.38-.96.9-1,1-6.05-.74-11.24,5.43-16.71,6.79-7.34,1.82-17.76.47-24.36-3.25-.8-.45-1.55-.54-1.93-1.54,10.85,1.97,22.43,3.8,33-.5-1.19-1.72-2.68-1.43-4.45-1.55-9.07-.6-18.82.55-27.97.03-.92-.13-.75,1.54-.57,2.01-9.59-1.74-25.86-7.28-34.99-2.46-1.24.65-1.72,2.29-2.01,2.46-.4.23-4.56,1.9-5,2-.86.19-2.08-.16-3,0-.06.01-.17-.71-1.03-.54-.93.19-2.11,1.48-2.97,1.54,2.1-3.18,6.66-5.23,9.99-7.01.31-1.66-2.61-1.18-3.47-.97-.58.14-4.19,1.72-4.53,1.97l-.59-.84c-2.72-.67-4.52,2.42-5.41,2.84-3.1,1.44-6.94,2.61-10.22,4.09-.81.36-.67,1.66-1.49,1.87-2,.53-5.09.5-7.29,1.03.78-1.75,3.1-2.81,4.69-3.8,5.19-3.24,22.56-11.6,28.09-12.02,2.3-.18,3.17,1.66,5.67,1.91,3.65.36,6.86-1.36,10.54-1.08Z"/>
      <path class="st6" d="M1267,472c-2.63.51-5.05-.85-7.49-1.01-20-1.29-39.76-3.47-59.51-4.99-.56-3.26,1.65-1.66,3.51-1.95,12.08-1.9,28.57-1.02,41-.05,4.37.34,18.44,2.49,22.08,3.92,4.68,1.84,1.69,2.49.42,4.08Z"/>
      <path class="st7" d="M1181,477c.09,1.99-1.37,2.78-2.49,4.01-10.75,11.78-23.34,22.12-33.89,34.06-11.12,12.59-23.98,29.16-33.62,42.93h-1c13.99-20.29,27.44-38.92,44.48-57.02,7.67-8.14,16.28-15.43,23.52-23.98.92-.16,2.14.19,3,0Z"/>
      <path class="st3" d="M1270,569c-16.73,11.98-44.13,15.02-64.25,11.75-6.96-1.13-21.83-4.38-28.07-6.96-1.17-.48-1.21-.76-1.68-1.78,6.05,2.04,12.51,1.3,18.4,2.1,18.79,2.57,33.17,8.58,52.6,3.4,7.95-2.12,14.93-6.81,23-8.5Z"/>
      <path class="st3" d="M1235,305c1.99,3.78,2.53,5.94,4.98,9.71.45.69,4.35,8.27.02,5.29.3-1.44-.73-1.54-1-2v-1c-2.25-5.37-8.53-11.07-7.5-17,1.03,1.44,2.74,3.54,3.5,5Z"/>
      <path class="st3" d="M1237.16,59.83c.49.74,10.17,1.68,11.66,6.85.58,1.99-.08,4.4.38,6.62.68,3.27,3.77,6.4,3.49,11.05s-4.29,4.95-4.58,6.23c-.37,1.66,2.26,4.96-.07,8.74-1.94,3.14-7.72,2.39-8.05,2.68-.28.25.52,4.91-1.1,7.4-3.24,4.98-24.09,5.93-29.28,2.49-3.49-2.31-1.81-6.08-3.05-7.95-.9-1.35-6.5-.82-8.07-3.93-1.17-2.31.06-7.22-.57-7.93-.4-.45-6.14-.66-7.23-3.31-.9-2.16-.9-4.89-.61-7.2.48-3.76,3.15-5.71,3.73-8.27.75-3.28-.52-5.94,2.51-8.99,3.32-3.33,7.92-2.58,9.73-3.78,1.06-.7,1.46-5.01,3.89-7.11,4.87-4.19,22.27-3.19,26.14,1.98,1.22,1.63.56,3.62,1.07,4.41ZM1235,61c.82-.81-.2-3.03-1.61-3.88-4.72-2.85-17.58-4.87-21.93-1.16-6.98,5.94,7.91,5.21,11.05,5.05,2.3-.12,4.34-1.17,7.01-1.1,1.42.04,5.28,1.29,5.48,1.09ZM1198,71c8.83-.13,17.7.17,26.54.05,2.71-.04,5.07-1.2,7.96-1.13,2.12.05,14.53,3.32,13.48-1.4-.98-.96-1.87-2.26-3.06-2.95-5.06-2.95-21.58-1.38-28.44-1.56-1.95-.05-3.75-1.12-5.95-1.06-4.5.11-10.76,2.84-10.53,8.05ZM1194.11,86.89c1.93,2.76,28.57,2.4,33.4,2.12,4.5-.26,13.64-1.1,17.76-2.24,6.65-1.85,2.21-9.82-1.95-12.58-15.81-.18-31.71-.96-47.37,1.26-1.65,1.16-2.74,10.14-1.83,11.44ZM1245,91l-44.01,1c-.16,1.49.13,6.69,1.65,7.04,5.71.44,11.08,1.27,16.9,1.01,2.17-.1,4-.94,5.94-1.06,3.86-.22,15.81.32,18.57-1.43,1.57-.99.81-4.77.94-6.57ZM1236,102c-7.8.83-15.67,1.89-23.51,1.99-1.36.02-3.05-.64-2.47,1.49.8,2.94,3.8,4.06,6.56,4.43,3.12.42,17.6-.61,18.95-2.89.87-1.48.42-3.4.47-5.02Z"/>
      <path class="st3" d="M1233,323c1.5,1.27.06,1.86-1.5,1.96-3.15.22-19.49,2.93-20.49,2.03-1.9-1.73,2.76-2.83,3.56-2.92,2.57-.31,17.7-1.69,18.44-1.07Z"/>
      <path class="st3" d="M1197.99,327c-1.67-.04-2.16.65-1.81-1.3,1.13-6.18,5.1-12.39,6.34-18.68l3.47-7.02c-.84,9.33-6.45,17.83-8,27Z"/>
      <path class="st0" d="M1239,318c-.1-.18-.5-.21-.55-.5l.55-.5v1Z"/>
      <path class="st4" d="M1064,191c.58.57-1.48,5.39-3.49,4.99-1.56-.31-1.94-4.63-1.51-4.99.38-.32,3.87.21,5,0Z"/>
      <path class="st11" d="M1172,893c-.54,2.2,1.22,2.08,2.43,3.02,4.55,3.49,23.8,18.01,24.58,22.47.43,2.46-2.78,1.64-4.42,1.42-26-3.47-55.73-19.84-79.91-30.09-61.19-25.94-124.24-42.71-187.68-62.32-10.89-3.02-11.71-15.3,1.49-14.51,5.8.35,14.77,2.85,20.51,4.56,1.7.51,3.56-.24,2.99,2.46-7.99-.94-16.01-2.08-24-3-.33,2.69,2.56,3.33,4.46,4.03,8.55,3.18,18.06,2.68,26.93,4.07,42.82,6.7,97.55,26.4,139.13,40.87,24.37,8.48,48.82,19.78,73.48,27.02Z"/>
      <path class="st8" d="M952,820c4.9.57,10.03.44,15.23,1.27,45.4,7.26,86.7,31.91,133.26,30.74,26.99,1.36,54.03.39,81-1.02,1.87-.1,12.03-.39,12.51.01,1.54,1.3-.95,2.26-1.95,2.5-3.16.76-6.21-.05-9.05,1.5-.66.05-1.35-.07-2,0s-1.34-.06-2,0c-25.68,2.48-51.75,3.6-77.51,2.01l-16.49-2c.28,1.71,1.97,1.77,3.23,2.27,10.82,4.29,22.76,7.56,33.77,11.73,9.67,3.66,19.45,7.49,28.98,11.52,7.25,3.06,17.8,6.9,24.3,10.7,5.16,3.01.16,2.8-3.28,1.78-24.66-7.25-49.1-18.54-73.48-27.02-41.58-14.47-96.31-34.17-139.13-40.87-8.88-1.39-18.38-.88-26.93-4.07-1.9-.71-4.79-1.34-4.46-4.03,7.99.92,16.01,2.06,24,3Z"/>
      <path class="st11" d="M1179,855l.51,1h.99l.51-1c.65-.07,1.34.05,2,0-.58,3.12,1.51,1.69,3.35,2.1,2.25.51,6.78,1.18,8.17,2.87,1.71,2.09-.6,2.29-2.32,2.72-22.01,5.53-44.41,3.55-66.74,4.31-1.94.07-4.02-1.02-3.47,2-11.01-4.16-22.95-7.44-33.77-11.73-1.26-.5-2.95-.56-3.23-2.27l16.49,2c25.76,1.59,51.83.47,77.51-2.01Z"/>
      <polygon class="st7" points="1138 514 1124.85 532.35 1121 534 1132.46 516.96 1138 514"/>
      <path class="st7" d="M1176,472c.34-.25,3.95-1.83,4.53-1.97.86-.21,3.77-.69,3.47.97-3.33,1.78-7.9,3.83-9.99,7.01-.43.03-1.42-.8-2-1,.8-1.1,3.22-4.42,4-5Z"/>
      <path class="st8" d="M1231,394c.14-2.24-.55-4.9.5-6.99.67-1.33,13.77-13.88,14.49-13-.37,2.95.82,7.37-.5,10-1.14,2.28-12.41,12.12-14.49,10Z"/>
      <path class="st8" d="M1191,375c.72-.79,3.98,1.99,4.89,2.6,3.11,2.09,14.76,11.51,8.11,14.92s-15.62-11.49-13-17.52Z"/>
      <path class="st0" d="M1260.11,325.89c-1.12-3.8-2.22-7.73-2.85-11.66-3.01-18.8-.07-37.41,9.56-53.91,13.41-22.98,40.36-33.83,65.07-21.72,29.48,14.45,42.62,54.67,34.17,84.96l-105.95,2.32Z"/>
      <path class="st2" d="M1266,330c9.98-.14,20.01.1,30,0,.36.34-.88,2.46-.85,3.48.1,3.99,1.7,7.51,4.89,9.97,12.38,9.54,25.72.2,21.96-14.45h43c-.56,4.92-3.76,8.86-6,13l-22.7,9.8c-8.55,6.98-14.76,12.39-26.51,8.91-15.46-4.57-27.41-15.74-39.27-25.72-2.21-1.86-5.45-1.13-4.51-4.99Z"/>
      <path class="st4" d="M1266,330c-.93,3.86,2.31,3.13,4.51,4.99,11.87,9.98,23.82,21.15,39.27,25.72,11.75,3.47,17.96-1.93,26.51-8.91l22.7-9.8c-19.92,36.77-60.48,40.11-86.99,7.49-2.51-3.09-9.53-14.48-10.03-17.98-.35-2.46,2.26-1.48,4.02-1.5Z"/>
      <path class="st11" d="M1223,475c-.18-.47-.35-2.15.57-2.01,9.16.52,18.9-.64,27.97-.03,1.77.12,3.26-.17,4.45,1.55-10.56,4.3-22.15,2.46-33,.5Z"/>
      <path class="st9" d="M1194.11,86.89c-.91-1.3.18-10.28,1.83-11.44,15.66-2.22,31.56-1.44,47.37-1.26,4.16,2.76,8.6,10.73,1.95,12.58-4.11,1.14-13.26,1.99-17.76,2.24-4.83.28-31.47.63-33.4-2.12Z"/>
      <path class="st9" d="M1245,91c-.13,1.8.63,5.57-.94,6.57-2.76,1.75-14.72,1.2-18.57,1.43-1.95.11-3.77.96-5.94,1.06-5.81.26-11.18-.57-16.9-1.01-1.53-.35-1.82-5.55-1.65-7.04l44.01-1Z"/>
      <path class="st9" d="M1198,71c-.23-5.21,6.04-7.93,10.53-8.05,2.21-.06,4,1.02,5.95,1.06,6.86.17,23.38-1.39,28.44,1.56,1.19.69,2.08,1.99,3.06,2.95,1.05,4.72-11.37,1.45-13.48,1.4-2.89-.07-5.25,1.09-7.96,1.13-8.84.12-17.71-.18-26.54-.05Z"/>
      <path class="st9" d="M1236,102c-.06,1.62.4,3.54-.47,5.02-1.35,2.28-15.82,3.32-18.95,2.89-2.76-.37-5.77-1.5-6.56-4.43-.58-2.13,1.11-1.47,2.47-1.49,7.84-.1,15.71-1.16,23.51-1.99Z"/>
      <path class="st9" d="M1235,61c-.2.2-4.06-1.05-5.48-1.09-2.67-.07-4.71.99-7.01,1.1-3.14.16-18.03.89-11.05-5.05,4.35-3.7,17.2-1.69,21.93,1.16,1.41.85,2.43,3.07,1.61,3.88Z"/>
      <path class="st1" d="M1181,855l-.51,1h-.99l-.51-1c.66-.06,1.35.07,2,0Z"/>
    </g>
  </g>
</svg>