<svg width="15" height="12" viewBox="0 0 15 12" fill="none" xmlns="http://www.w3.org/2000/svg">
<path d="M5.27776 9.52854C4.96345 9.98708 4.62676 10.4299 4.26892 10.8553C1.7104 10.7825 0.739685 9.12189 0.739685 9.12189C0.776051 6.76898 1.34623 4.45506 2.40723 2.35464C3.33987 1.62502 4.47628 1.20341 5.65911 1.14818L6.0058 1.94902C6.50095 1.88028 7.00011 1.84437 7.5 1.84155C8.00212 1.8432 8.50359 1.87794 9.00114 1.94555L9.34782 1.14471C10.5318 1.20294 11.6683 1.62822 12.5997 2.36157C13.6573 4.46046 14.2251 6.77187 14.2603 9.12189C14.2603 9.12189 13.2896 10.7825 10.7311 10.8553C10.3787 10.4319 10.0477 9.99106 9.73957 9.53444M11.9791 8.52906C10.6479 9.20336 9.35961 9.87765 7.5 9.87765C5.64039 9.87765 4.35212 9.20336 3.02086 8.52906M6.52827 6.77472C6.52827 7.41614 6.0083 7.93611 5.36689 7.93611C4.72547 7.93611 4.2055 7.41614 4.2055 6.77472C4.2055 6.1333 4.72547 5.61333 5.36689 5.61333C6.0083 5.61333 6.52827 6.1333 6.52827 6.77472ZM10.7944 6.77472C10.7944 7.41614 10.2745 7.93611 9.63305 7.93611C8.99163 7.93611 8.47166 7.41614 8.47166 6.77472C8.47166 6.1333 8.99163 5.61333 9.63305 5.61333C10.2745 5.61333 10.7944 6.1333 10.7944 6.77472Z" stroke="white" stroke-width="0.676032" stroke-linecap="round" stroke-linejoin="round"/>
</svg>
