<svg width="14" height="12" viewBox="0 0 14 12" fill="none" xmlns="http://www.w3.org/2000/svg">
<path fill-rule="evenodd" clip-rule="evenodd" d="M8.89979 0.463691C9.21989 0.408978 9.57772 0.390741 9.9148 0.447969C10.5152 0.549388 11.0716 0.828209 11.5122 1.24853C11.7989 1.25482 12.0813 1.19822 12.331 1.11773C12.5723 1.03903 12.8039 0.933342 13.0215 0.802658L13.0271 0.798884C13.1177 0.738546 13.2263 0.711378 13.3346 0.721985C13.4429 0.732593 13.5442 0.780322 13.6214 0.857084C13.6985 0.933846 13.7467 1.03492 13.7578 1.14317C13.769 1.25142 13.7423 1.36018 13.6824 1.45103C13.5522 1.64913 13.3705 2.00256 13.1674 2.39876L13.0699 2.58805C12.9536 2.81445 12.8341 3.04336 12.7228 3.23957C12.6529 3.36283 12.5781 3.48798 12.5026 3.59614V3.76846C12.5104 4.79896 12.3128 5.82069 11.9214 6.77402C11.53 7.72734 10.9527 8.59316 10.2231 9.32095C9.49345 10.0487 8.6262 10.6239 7.6719 11.0129C6.71761 11.402 5.69539 11.597 4.66491 11.5867C3.1716 11.5881 1.70971 11.1578 0.455183 10.3478C0.365514 10.2898 0.298181 10.2031 0.2642 10.1018C0.230219 10.0006 0.231601 9.89083 0.26812 9.79048C0.304639 9.69012 0.374133 9.60513 0.465233 9.54941C0.556334 9.49368 0.663649 9.47053 0.769623 9.48372C1.63614 9.5873 2.51437 9.4475 3.3059 9.07998C2.91972 8.90442 2.57434 8.65037 2.29175 8.33399C2.00915 8.01762 1.79554 7.64586 1.66452 7.24239C1.63955 7.16515 1.63495 7.08277 1.65114 7.00323C1.66734 6.92369 1.70379 6.84967 1.75697 6.78834L1.76325 6.78205C1.44402 6.49764 1.18818 6.14927 1.01234 5.75956C0.8365 5.36985 0.74459 4.94751 0.742581 4.51997V4.48727C0.742535 4.38372 0.776562 4.28304 0.839413 4.20076C0.902263 4.11847 0.990445 4.05916 1.09035 4.03196C0.877398 3.60705 0.766909 3.13817 0.767736 2.66289C0.767379 2.12404 0.908324 1.59452 1.17651 1.12716C1.21461 1.06081 1.26828 1.00473 1.33289 0.963756C1.3975 0.922777 1.4711 0.898129 1.54736 0.89194C1.62362 0.88575 1.70023 0.898204 1.7706 0.928227C1.84097 0.958249 1.90299 1.00494 1.95129 1.06427C3.05132 2.41947 4.62729 3.3035 6.35722 3.53577C6.3422 2.9699 6.48496 2.411 6.76951 1.92165C7.05406 1.43229 7.46918 1.03177 7.96842 0.764925C8.22123 0.630344 8.55579 0.522806 8.90042 0.463691H8.89979ZM1.80728 5.21048C1.9294 5.55417 2.13866 5.86028 2.41458 6.09883C2.6905 6.33738 3.02363 6.50021 3.38136 6.57138C3.48443 6.59191 3.57769 6.64628 3.64633 6.72585C3.71498 6.80542 3.75509 6.90564 3.76029 7.0106C3.76549 7.11557 3.73549 7.21926 3.67504 7.30523C3.6146 7.3912 3.52717 7.45452 3.42664 7.48514C3.25559 7.53734 3.08013 7.57318 2.90216 7.59394C3.09538 7.84318 3.34197 8.04599 3.62383 8.18746C3.90568 8.32893 4.21565 8.40548 4.53096 8.41148C4.62822 8.41331 4.72253 8.44518 4.80098 8.5027C4.87942 8.56022 4.93816 8.6406 4.96915 8.7328C5.00014 8.82501 5.00186 8.92455 4.97408 9.01777C4.94629 9.111 4.89036 9.19335 4.81395 9.25355C4.15819 9.76952 3.39612 10.1336 2.58268 10.3195C3.25613 10.5351 3.95906 10.6443 4.66617 10.6434H4.67183C5.57742 10.6529 6.47584 10.4819 7.31459 10.1403C8.15334 9.79871 8.9156 9.29338 9.55684 8.65384C10.1981 8.0143 10.7054 7.25338 11.0493 6.41554C11.3931 5.5777 11.5665 4.67973 11.5593 3.77412V3.43767C11.5592 3.32314 11.6008 3.21249 11.6763 3.12637C11.7203 3.07669 11.7958 2.96223 11.9027 2.7742C12.0033 2.59685 12.1153 2.38303 12.2316 2.15727L12.2523 2.11576C11.9238 2.18969 11.5856 2.21028 11.2505 2.17676C11.1372 2.16442 11.0323 2.11148 10.955 2.02772C10.6387 1.68478 10.2176 1.45651 9.75758 1.37871C9.52559 1.3459 9.2898 1.35121 9.05952 1.39443C8.83507 1.42937 8.61714 1.49785 8.41303 1.59756C8.00153 1.81742 7.67465 2.16766 7.48367 2.59333C7.29269 3.019 7.24841 3.49602 7.35777 3.94957C7.37499 4.02089 7.37532 4.09525 7.35876 4.16672C7.3422 4.23819 7.30919 4.30482 7.26236 4.36129C7.21553 4.41777 7.15617 4.46254 7.08899 4.49205C7.02182 4.52157 6.9487 4.535 6.87542 4.53129C4.94324 4.43356 3.11652 3.62051 1.75068 2.25034C1.72414 2.38646 1.71087 2.52483 1.71106 2.66351V2.66477C1.71035 3.01113 1.7953 3.35228 1.95835 3.65786C2.1214 3.96343 2.35748 4.22395 2.64557 4.4162C2.73017 4.47315 2.79404 4.55597 2.8276 4.65227C2.86116 4.74857 2.86261 4.85315 2.83172 4.95034C2.80084 5.04753 2.73929 5.13209 2.65629 5.19135C2.5733 5.25061 2.47333 5.28137 2.37138 5.27903C2.18159 5.27377 1.99272 5.25124 1.80728 5.21048Z" fill="white"/>
</svg>
