<svg width="15" height="12" viewBox="0 0 15 12" fill="none" xmlns="http://www.w3.org/2000/svg">
<path d="M5.27776 9.52848C4.96345 9.98702 4.62676 10.4298 4.26892 10.8552C1.7104 10.7824 0.739685 9.12182 0.739685 9.12182C0.776051 6.76892 1.34623 4.455 2.40723 2.35458C3.33987 1.62496 4.47628 1.20335 5.65911 1.14812L6.0058 1.94896C6.50095 1.88022 7.00011 1.84431 7.5 1.84149C8.00212 1.84314 8.50359 1.87788 9.00114 1.94549L9.34782 1.14465C10.5318 1.20288 11.6683 1.62816 12.5997 2.36151C13.6573 4.4604 14.2251 6.77181 14.2603 9.12182C14.2603 9.12182 13.2896 10.7824 10.7311 10.8552C10.3787 10.4318 10.0477 9.991 9.73957 9.53438M11.9791 8.529C10.6479 9.2033 9.35961 9.87759 7.5 9.87759C5.64039 9.87759 4.35212 9.2033 3.02086 8.529M6.52827 6.77466C6.52827 7.41608 6.0083 7.93605 5.36689 7.93605C4.72547 7.93605 4.2055 7.41608 4.2055 6.77466C4.2055 6.13324 4.72547 5.61327 5.36689 5.61327C6.0083 5.61327 6.52827 6.13324 6.52827 6.77466ZM10.7944 6.77466C10.7944 7.41608 10.2745 7.93605 9.63305 7.93605C8.99163 7.93605 8.47166 7.41608 8.47166 6.77466C8.47166 6.13324 8.99163 5.61327 9.63305 5.61327C10.2745 5.61327 10.7944 6.13324 10.7944 6.77466Z" stroke="black" stroke-width="0.676032" stroke-linecap="round" stroke-linejoin="round"/>
</svg>
