<svg width="24" height="12" viewBox="0 0 24 12" fill="none" xmlns="http://www.w3.org/2000/svg">
<path d="M16.1701 1.73566L16.1705 1.73566C16.335 1.73532 16.4979 1.76753 16.6499 1.83043C16.8017 1.89328 16.9397 1.98553 17.0558 2.10188L16.1701 1.73566ZM16.1701 1.73566C15.9233 1.73655 15.6823 1.8104 15.4774 1.94792C15.2725 2.08545 15.1129 2.28049 15.0186 2.50853C14.9243 2.73656 14.8995 2.98739 14.9474 3.22947C14.9953 3.47154 15.1137 3.69405 15.2878 3.86898L15.2882 3.86939L17.4035 5.98566L15.2882 8.10191C15.0539 8.33632 14.9222 8.6542 14.9222 8.98566C14.9222 9.31711 15.0539 9.635 15.2882 9.86941L15.2882 9.86945L15.2921 9.87318C15.5288 10.1 15.8441 10.2267 16.172 10.2267C16.4999 10.2267 16.8152 10.1 17.0519 9.87319L17.052 9.87323L17.0558 9.86943L20.7628 6.16243L20.9396 5.98566L20.7628 5.80888L17.056 2.10213L16.1701 1.73566ZM7.82754 11.7357L7.82729 11.7357C7.46626 11.7367 7.10862 11.666 6.7751 11.5278C6.44158 11.3896 6.13881 11.1866 5.88434 10.9304L5.88378 10.9299L0.939552 5.98566L5.88378 1.04143L5.88385 1.04136C6.91928 0.00501515 8.73969 0.00524506 9.77291 1.04212L9.77299 1.04221C10.2877 1.55826 10.5767 2.25743 10.5765 2.9863C10.5764 3.71516 10.2871 4.41417 9.77212 4.92998C9.77211 4.93 9.77209 4.93001 9.77208 4.93003L8.89412 5.80898L8.71765 5.98566L8.89412 6.16233L9.77191 7.04112C9.77194 7.04116 9.77198 7.04119 9.77201 7.04122C10.1556 7.42616 10.4166 7.91604 10.5221 8.4491C10.6277 8.98221 10.573 9.53463 10.3651 10.0367C10.1571 10.5388 9.80517 10.9681 9.35358 11.2705C8.902 11.5728 8.371 11.7347 7.82754 11.7357ZM6.67938 11.7588C6.3153 11.6079 5.98478 11.3862 5.707 11.1067L7.828 11.9857C7.43389 11.9868 7.04347 11.9097 6.67938 11.7588ZM3.23722 5.80888L3.06045 5.98566L8.71099 9.87022C8.94536 9.63583 9.07714 9.31801 9.07737 8.98654C9.07761 8.65495 8.94618 8.33683 8.71198 8.10208L8.71181 8.10192L6.59647 5.98566L8.7118 3.86941C8.71181 3.8694 8.71181 3.8694 8.71181 3.86939C8.94615 3.63499 9.07778 3.31711 9.07778 2.98566C9.07778 2.6542 8.94614 2.33632 8.7118 2.10191L8.71185 2.10186L8.70777 2.09797C8.47089 1.87145 8.15576 1.74504 7.828 1.74504C7.50024 1.74504 7.18511 1.87145 6.94822 2.09797L6.94818 2.09792L6.94422 2.10188L3.23722 5.80888ZM16.1727 11.7357L16.1725 11.7357C15.629 11.7347 15.098 11.5728 14.6464 11.2705C14.1948 10.9681 13.8429 10.5388 13.6349 10.0367C13.427 9.53463 13.3723 8.98221 13.4779 8.4491C13.5834 7.91604 13.8444 7.42616 14.228 7.04122C14.228 7.04119 14.2281 7.04116 14.2281 7.04112L15.1059 6.16233L15.2824 5.98566L15.1059 5.80898L14.2279 4.93003C14.2279 4.93001 14.2279 4.93 14.2279 4.92998C13.7128 4.41402 13.4235 3.71473 13.4235 2.98566C13.4235 2.25656 13.7128 1.55726 14.2279 1.04129L14.2281 1.04112C15.2593 0.00624556 17.0807 0.00501489 18.1161 1.04136L18.1162 1.04143L23.0604 5.98566L18.1162 10.9299L18.1157 10.9304C17.8612 11.1866 17.5584 11.3896 17.2249 11.5278C16.8914 11.666 16.5337 11.7367 16.1727 11.7357Z" stroke="black" stroke-width="0.5"/>
</svg>
