<svg width="1374" height="777" viewBox="0 0 1374 777" fill="none" xmlns="http://www.w3.org/2000/svg">
<g opacity="0.1">
<line x1="5" y1="1.5" x2="1371" y2="1.5" stroke="white" stroke-width="2" style="mix-blend-mode:multiply"/>
</g>
<g opacity="0.1">
<line x1="5" y1="80.5" x2="1371" y2="80.5" stroke="white" stroke-width="2" style="mix-blend-mode:multiply"/>
</g>
<g opacity="0.1">
<line x1="5" y1="770.5" x2="1371" y2="770.5" stroke="white" stroke-width="2" style="mix-blend-mode:multiply"/>
</g>
<g opacity="0.1">
<line x1="5" y1="700.5" x2="1371" y2="700.5" stroke="white" stroke-width="2" style="mix-blend-mode:multiply"/>
</g>
<g opacity="0.1">
<line x1="5" y1="641.5" x2="1371" y2="641.5" stroke="white" stroke-width="2" style="mix-blend-mode:multiply"/>
</g>
<g opacity="0.1">
<line x1="158" y1="2.5" x2="158" y2="771.5" stroke="white" stroke-width="2" style="mix-blend-mode:multiply"/>
</g>
<g opacity="0.1">
<line x1="1210" y1="2.5" x2="1210" y2="771.5" stroke="white" stroke-width="2" style="mix-blend-mode:multiply"/>
</g>
<g opacity="0.1">
<path d="M199.5 1.5L299 84.5" stroke="white" stroke-width="2" style="mix-blend-mode:multiply"/>
</g>
<g opacity="0.1">
<path d="M190.5 637.5L4 741M360 637.5L195 775.5M490.5 636.5L389.5 775.5M606 636.5L545.5 774" stroke="white" stroke-width="2" style="mix-blend-mode:multiply"/>
</g>
<g opacity="0.1">
<path d="M1171 636L1372.5 753.5M1009.5 636L1173.5 773M877.5 637L977.5 775.5M779 636.5L825 776.5" stroke="white" stroke-width="2" style="mix-blend-mode:multiply"/>
</g>
<g opacity="0.1">
<path d="M391.5 2L454.5 89M545 1L583.5 87M823.5 1L796 87M976 2L914 87M1175 2L1075 86.5M1372.5 20.5L1207.5 117.5" stroke="white" stroke-width="2" style="mix-blend-mode:multiply"/>
</g>
<g opacity="0.1">
<path d="M1 30L168 123" stroke="white" stroke-width="2" style="mix-blend-mode:multiply"/>
</g>
</svg>
