<svg width="14" height="12" viewBox="0 0 14 12" fill="none" xmlns="http://www.w3.org/2000/svg">
<path fill-rule="evenodd" clip-rule="evenodd" d="M8.89979 0.463752C9.21989 0.409039 9.57772 0.390802 9.9148 0.44803C10.5152 0.549449 11.0716 0.82827 11.5122 1.24859C11.7989 1.25488 12.0813 1.19828 12.331 1.11779C12.5723 1.0391 12.8039 0.933403 13.0215 0.802719L13.0271 0.798945C13.1177 0.738607 13.2263 0.711439 13.3346 0.722046C13.4429 0.732654 13.5442 0.780383 13.6214 0.857145C13.6985 0.933907 13.7467 1.03498 13.7578 1.14323C13.769 1.25148 13.7423 1.36025 13.6824 1.45109C13.5522 1.64919 13.3705 2.00262 13.1674 2.39882L13.0699 2.58811C12.9536 2.81451 12.8341 3.04342 12.7228 3.23963C12.6529 3.36289 12.5781 3.48804 12.5026 3.5962V3.76852C12.5104 4.79903 12.3128 5.82075 11.9214 6.77408C11.53 7.7274 10.9527 8.59322 10.2231 9.32101C9.49345 10.0488 8.6262 10.624 7.6719 11.013C6.71761 11.402 5.69539 11.5971 4.66491 11.5868C3.1716 11.5881 1.70971 11.1579 0.455183 10.3479C0.365514 10.2899 0.298181 10.2032 0.2642 10.1019C0.230219 10.0007 0.231601 9.89089 0.26812 9.79054C0.304639 9.69018 0.374133 9.60519 0.465233 9.54947C0.556334 9.49375 0.663649 9.47059 0.769623 9.48378C1.63614 9.58736 2.51437 9.44756 3.3059 9.08004C2.91972 8.90448 2.57434 8.65043 2.29175 8.33405C2.00915 8.01768 1.79554 7.64592 1.66452 7.24245C1.63955 7.16521 1.63495 7.08284 1.65114 7.00329C1.66734 6.92375 1.70379 6.84973 1.75697 6.7884L1.76325 6.78211C1.44402 6.4977 1.18818 6.14933 1.01234 5.75962C0.8365 5.36991 0.74459 4.94757 0.742581 4.52003V4.48733C0.742535 4.38379 0.776562 4.2831 0.839413 4.20082C0.902263 4.11853 0.990445 4.05922 1.09035 4.03202C0.877398 3.60711 0.766909 3.13823 0.767736 2.66295C0.767379 2.1241 0.908324 1.59458 1.17651 1.12722C1.21461 1.06088 1.26828 1.0048 1.33289 0.963817C1.3975 0.922838 1.4711 0.89819 1.54736 0.892001C1.62362 0.885811 1.70023 0.898265 1.7706 0.928288C1.84097 0.95831 1.90299 1.005 1.95129 1.06433C3.05132 2.41953 4.62729 3.30356 6.35722 3.53583C6.3422 2.96996 6.48496 2.41107 6.76951 1.92171C7.05406 1.43235 7.46918 1.03183 7.96842 0.764986C8.22123 0.630405 8.55579 0.522867 8.90042 0.463752H8.89979ZM1.80728 5.21054C1.9294 5.55424 2.13866 5.86034 2.41458 6.09889C2.6905 6.33744 3.02363 6.50027 3.38136 6.57144C3.48443 6.59197 3.57769 6.64634 3.64633 6.72591C3.71498 6.80548 3.75509 6.9057 3.76029 7.01066C3.76549 7.11563 3.73549 7.21932 3.67504 7.30529C3.6146 7.39126 3.52717 7.45458 3.42664 7.4852C3.25559 7.5374 3.08013 7.57324 2.90216 7.594C3.09538 7.84324 3.34197 8.04605 3.62383 8.18752C3.90568 8.32899 4.21565 8.40554 4.53096 8.41154C4.62822 8.41337 4.72253 8.44524 4.80098 8.50276C4.87942 8.56028 4.93816 8.64066 4.96915 8.73287C5.00014 8.82507 5.00186 8.92461 4.97408 9.01783C4.94629 9.11106 4.89036 9.19341 4.81395 9.25361C4.15819 9.76958 3.39612 10.1336 2.58268 10.3196C3.25613 10.5351 3.95906 10.6444 4.66617 10.6434H4.67183C5.57742 10.653 6.47584 10.482 7.31459 10.1404C8.15334 9.79877 8.9156 9.29344 9.55684 8.6539C10.1981 8.01436 10.7054 7.25344 11.0493 6.4156C11.3931 5.57776 11.5665 4.6798 11.5593 3.77418V3.43773C11.5592 3.3232 11.6008 3.21255 11.6763 3.12643C11.7203 3.07675 11.7958 2.96229 11.9027 2.77426C12.0033 2.59691 12.1153 2.38309 12.2316 2.15733L12.2523 2.11582C11.9238 2.18975 11.5856 2.21035 11.2505 2.17682C11.1372 2.16448 11.0323 2.11154 10.955 2.02778C10.6387 1.68484 10.2176 1.45657 9.75758 1.37877C9.52559 1.34596 9.2898 1.35127 9.05952 1.39449C8.83507 1.42943 8.61714 1.49791 8.41303 1.59762C8.00153 1.81748 7.67465 2.16772 7.48367 2.59339C7.29269 3.01906 7.24841 3.49608 7.35777 3.94964C7.37499 4.02096 7.37532 4.09531 7.35876 4.16678C7.3422 4.23825 7.30919 4.30488 7.26236 4.36135C7.21553 4.41783 7.15617 4.4626 7.08899 4.49212C7.02182 4.52163 6.9487 4.53506 6.87542 4.53135C4.94324 4.43362 3.11652 3.62057 1.75068 2.2504C1.72414 2.38652 1.71087 2.52489 1.71106 2.66358V2.66483C1.71035 3.01119 1.7953 3.35234 1.95835 3.65792C2.1214 3.96349 2.35748 4.22401 2.64557 4.41627C2.73017 4.47321 2.79404 4.55603 2.8276 4.65233C2.86116 4.74863 2.86261 4.85321 2.83172 4.9504C2.80084 5.04759 2.73929 5.13215 2.65629 5.19141C2.5733 5.25067 2.47333 5.28143 2.37138 5.27909C2.18159 5.27383 1.99272 5.2513 1.80728 5.21054Z" fill="black"/>
</svg>
