<svg width="204" height="33" viewBox="0 0 204 33" fill="none" xmlns="http://www.w3.org/2000/svg">
<rect x="0.5" y="2.25867" width="28.4827" height="28.4827" rx="14.2413" fill="#FFCD4D"/>
<path fill-rule="evenodd" clip-rule="evenodd" d="M10.8337 10.9325C10.8337 9.52987 11.9707 8.39282 13.3733 8.39282H16.1084C17.511 8.39282 18.6481 9.52987 18.6481 10.9325H10.8337ZM8.09908 14.0577C8.09908 12.6551 9.23613 11.5181 10.6388 11.5181H18.8439C20.2465 11.5181 21.3835 12.6551 21.3835 14.0577H8.09908ZM8.48986 14.6439C7.51882 14.6439 6.73163 15.4311 6.73163 16.4022C6.73163 17.3732 7.51882 18.1604 8.48986 18.1604H20.9929C21.9639 18.1604 22.7511 17.3732 22.7511 16.4022C22.7511 15.4311 21.9639 14.6439 20.9929 14.6439H8.48986ZM8.29425 18.9424C8.29425 20.3451 9.4313 21.4821 10.8339 21.4821H19.039C20.4417 21.4821 21.5787 20.3451 21.5787 18.9424H8.29425ZM13.3733 24.6074C11.9707 24.6074 10.8337 23.4703 10.8337 22.0677H18.8434C18.8434 23.4703 17.7064 24.6074 16.3037 24.6074H13.3733Z" fill="black"/>
<path d="M34.1687 6.25103H37.3507V14.4953H40.7641V6.25103H43.946V26.5H40.7641V17.388H37.3507V26.5H34.1687V6.25103ZM50.9152 26.7893C49.3531 26.7893 48.1575 26.3457 47.3282 25.4586C46.499 24.5715 46.0844 23.318 46.0844 21.6981V11.0529C46.0844 9.43301 46.499 8.17951 47.3282 7.29241C48.1575 6.40531 49.3531 5.96176 50.9152 5.96176C52.4773 5.96176 53.6729 6.40531 54.5022 7.29241C55.3314 8.17951 55.746 9.43301 55.746 11.0529V21.6981C55.746 23.318 55.3314 24.5715 54.5022 25.4586C53.6729 26.3457 52.4773 26.7893 50.9152 26.7893ZM50.9152 23.8966C52.0144 23.8966 52.564 23.2312 52.564 21.9006V10.8504C52.564 9.5198 52.0144 8.85447 50.9152 8.85447C49.816 8.85447 49.2664 9.5198 49.2664 10.8504V21.9006C49.2664 23.2312 49.816 23.8966 50.9152 23.8966ZM57.8979 6.25103H61.8899L64.9851 18.3715H65.0429V6.25103H67.8778V26.5H64.609L60.7906 11.7183H60.7328V26.5H57.8979V6.25103ZM70.2428 6.25103H78.9209V9.14374H73.4248V14.4953H77.7928V17.388H73.4248V23.6073H78.9209V26.5H70.2428V6.25103ZM83.6731 17.8797L79.8258 6.25103H83.2103L85.3798 13.6853H85.4377L87.6072 6.25103H90.7024L86.8551 17.8797V26.5H83.6731V17.8797ZM92.1359 6.25103H96.822C98.4034 6.25103 99.5894 6.6753 100.38 7.52383C101.171 8.37235 101.566 9.61622 101.566 11.2554V13.2514C101.566 14.8906 101.171 16.1345 100.38 16.983C99.5894 17.8315 98.4034 18.2558 96.822 18.2558H95.3178V26.5H92.1359V6.25103ZM96.822 15.3631C97.3427 15.3631 97.7284 15.2184 97.9791 14.9292C98.2491 14.6399 98.3841 14.1481 98.3841 13.4539V11.0529C98.3841 10.3587 98.2491 9.86692 97.9791 9.57765C97.7284 9.28838 97.3427 9.14374 96.822 9.14374H95.3178V15.3631H96.822ZM107.894 26.7893C106.332 26.7893 105.136 26.3457 104.307 25.4586C103.477 24.5715 103.063 23.318 103.063 21.6981V11.0529C103.063 9.43301 103.477 8.17951 104.307 7.29241C105.136 6.40531 106.332 5.96176 107.894 5.96176C109.456 5.96176 110.651 6.40531 111.481 7.29241C112.31 8.17951 112.724 9.43301 112.724 11.0529V21.6981C112.724 23.318 112.31 24.5715 111.481 25.4586C110.651 26.3457 109.456 26.7893 107.894 26.7893ZM107.894 23.8966C108.993 23.8966 109.543 23.2312 109.543 21.9006V10.8504C109.543 9.5198 108.993 8.85447 107.894 8.85447C106.794 8.85447 106.245 9.5198 106.245 10.8504V21.9006C106.245 23.2312 106.794 23.8966 107.894 23.8966ZM117.251 9.14374H113.925V6.25103H123.76V9.14374H120.433V26.5H117.251V9.14374ZM129.933 6.25103H138.351V9.14374H133.115V14.7845H137.223V17.6772H133.115V26.5H129.933V6.25103ZM139.877 6.25103H143.059V26.5H139.877V6.25103ZM145.442 6.25103H149.434L152.529 18.3715H152.587V6.25103H155.422V26.5H152.153L148.335 11.7183H148.277V26.5H145.442V6.25103ZM160.246 6.25103H164.556L167.853 26.5H164.671L164.093 22.4791V22.537H160.477L159.898 26.5H156.948L160.246 6.25103ZM163.717 19.7889L162.299 9.78014H162.242L160.853 19.7889H163.717ZM169.397 6.25103H173.389L176.484 18.3715H176.542V6.25103H179.377V26.5H176.108L172.29 11.7183H172.232V26.5H169.397V6.25103ZM186.226 26.7893C184.702 26.7893 183.536 26.3554 182.726 25.4876C181.935 24.6197 181.54 23.3952 181.54 21.8138V10.9372C181.54 9.35588 181.935 8.1313 182.726 7.26348C183.536 6.39567 184.702 5.96176 186.226 5.96176C187.749 5.96176 188.906 6.39567 189.697 7.26348C190.507 8.1313 190.912 9.35588 190.912 10.9372V13.0778H187.904V10.7347C187.904 9.48123 187.373 8.85447 186.313 8.85447C185.252 8.85447 184.722 9.48123 184.722 10.7347V22.0452C184.722 23.2795 185.252 23.8966 186.313 23.8966C187.373 23.8966 187.904 23.2795 187.904 22.0452V18.95H190.912V21.8138C190.912 23.3952 190.507 24.6197 189.697 25.4876C188.906 26.3554 187.749 26.7893 186.226 26.7893ZM192.816 6.25103H201.494V9.14374H195.998V14.4953H200.366V17.388H195.998V23.6073H201.494V26.5H192.816V6.25103Z" fill="black"/>
</svg>
