<svg width="50" height="50" viewBox="0 0 50 50" fill="none" xmlns="http://www.w3.org/2000/svg">
<path d="M25.1667 0.378418C11.6591 0.378418 0.706726 11.3308 0.706726 24.8384C0.706726 38.346 11.6591 49.2984 25.1667 49.2984C38.6743 49.2984 49.6267 38.346 49.6267 24.8384C49.6267 11.3308 38.6743 0.378418 25.1667 0.378418ZM39.1439 14.23L36.9163 16.3648C36.7197 16.5122 36.6269 16.7524 36.6651 16.9872V32.6951C36.6269 32.9353 36.7197 33.1756 36.9163 33.3175L39.1002 35.4523V35.9273H28.1369V35.4741L30.3918 33.2848C30.6156 33.0609 30.6156 32.9954 30.6156 32.6623V19.9519L24.3368 35.8727H23.4906L16.1853 19.9519V30.6258C16.1198 31.0735 16.2781 31.5267 16.5948 31.8488L19.5322 35.4032V35.8782H11.1896V35.4032L14.127 31.8488C14.2817 31.689 14.3969 31.4951 14.4633 31.2827C14.5296 31.0703 14.5454 30.8454 14.5092 30.6258V18.2866C14.5474 17.9427 14.4163 17.6096 14.1543 17.3748L11.5445 14.23V13.755H19.6523L25.9093 27.4864L31.4182 13.7659H39.1439V14.23Z" fill="#FFCD4D"/>
</svg>
