<svg width="187" height="75" viewBox="0 0 187 75" fill="none" xmlns="http://www.w3.org/2000/svg">
<path d="M181.857 30.083C181.289 25.6572 179.7 21.6265 176.92 18.6759C173.969 15.8959 169.938 14.307 165.513 13.7385C161.257 13.17 158.361 13.3405 158.361 13.3405C158.361 13.3405 155.467 13.2268 151.209 13.7385C146.783 14.307 142.752 15.8959 139.802 18.6759C137.022 21.6265 135.433 25.6572 134.864 30.083C134.296 34.3383 134.41 37.2348 134.41 37.2348C134.41 37.2348 134.296 40.1285 134.808 44.3867C135.376 48.8125 136.965 52.8432 139.745 55.7937C142.696 58.5737 146.726 60.1627 151.152 60.7312C155.407 61.2997 158.304 61.1292 158.304 61.1292C158.304 61.1292 161.198 61.2429 165.456 60.7312C169.882 60.1627 173.912 58.5737 176.863 55.7937C179.643 52.8432 181.232 48.8125 181.8 44.3867C182.369 40.1314 182.198 37.2348 182.198 37.2348C182.198 37.2348 182.426 34.3411 181.857 30.083Z" fill="white"/>
<path d="M143.207 30.2535H147.519C148.202 30.2535 148.767 30.3672 149.336 30.5946C149.904 30.822 150.356 31.1631 150.754 31.5582C151.152 31.9533 151.493 32.4081 151.718 32.9766C151.945 33.5451 152.059 34.1108 152.059 34.7361C152.059 35.3615 151.945 35.9271 151.718 36.4957C151.49 37.0642 151.149 37.519 150.754 37.9141C150.359 38.3092 149.847 38.6531 149.336 38.8777C148.824 39.1051 148.202 39.2188 147.519 39.2188H145.589V42.7947H143.261V30.2506H143.204L143.207 30.2535ZM145.535 32.4109V37.0073H147.352C147.693 37.0073 148.034 36.9505 148.315 36.8368C148.597 36.7231 148.827 36.5525 149.054 36.3251C149.282 36.0977 149.395 35.8703 149.509 35.586C149.623 35.3018 149.68 35.0175 149.68 34.6793C149.68 34.341 149.623 34.0539 149.509 33.7725C149.395 33.4883 149.225 33.2609 149.054 33.0335C148.827 32.806 148.599 32.6355 148.315 32.5218C148.031 32.4081 147.69 32.3512 147.352 32.3512H145.535V32.4081V32.4109ZM157.454 42.7976C156.829 42.7976 156.263 42.6839 155.638 42.4564C155.069 42.229 154.503 41.8879 154.049 41.4928C153.594 41.038 153.199 40.5264 152.914 39.9039C152.63 39.2813 152.46 38.5423 152.46 37.7464C152.46 36.9505 152.573 36.2142 152.858 35.5889C153.142 34.9635 153.54 34.4547 153.992 33.9999C154.444 33.5451 155.012 33.2609 155.581 33.0363C156.206 32.8089 156.772 32.6952 157.454 32.6952C158.136 32.6952 158.759 32.8089 159.27 33.0363C159.839 33.2637 160.291 33.6048 160.689 33.9999V32.6952H163.017V42.7976H160.689V41.3791C160.348 41.8339 159.839 42.175 159.27 42.4564C158.702 42.6839 158.136 42.7976 157.454 42.7976ZM157.852 40.6969C158.307 40.6969 158.702 40.6401 159.043 40.4695C159.384 40.299 159.725 40.1284 160.007 39.8442C160.288 39.5599 160.461 39.2757 160.632 38.9374C160.802 38.5963 160.859 38.1983 160.859 37.8032C160.859 37.4081 160.802 37.0073 160.632 36.6691C160.461 36.3279 160.291 35.9868 160.007 35.7623C159.722 35.478 159.438 35.3075 159.043 35.1369C158.645 34.9095 158.247 34.8527 157.852 34.8527C157.457 34.8527 157.056 34.9095 156.661 35.0801C156.263 35.2506 155.979 35.4212 155.697 35.7054C155.416 35.9897 155.186 36.2739 155.072 36.6122C154.901 36.9533 154.845 37.3513 154.845 37.7464C154.845 38.1415 154.901 38.5394 155.072 38.8805C155.242 39.2216 155.47 39.5627 155.697 39.847C155.982 40.1313 156.323 40.3018 156.661 40.4724C157.002 40.5861 157.4 40.6998 157.852 40.6998M166.252 32.7549L169.088 39.6224L171.698 32.7549H174.14L168.182 47.3968H165.797L167.897 42.3456L163.81 32.7549H166.252Z" fill="white"/>
<path d="M109 28.6646V45.6345H102.872L98.6734 31.672H98.5597L98.7871 45.6345H94.5859V28.6646H100.942L104.916 42.1154H104.972L104.745 28.6646H109Z" fill="white"/>
<path d="M20.805 45.805L23.9829 28.6646H31.5895L34.7675 45.805H30.1683L27.8431 30.1967H27.7862L25.4013 45.805H20.805Z" fill="white"/>
<path d="M56.8992 28.6646L57.2972 45.805H52.9851L52.8714 30.3672H52.7577L49.9208 45.805H45.549L42.7122 30.3672H42.5985L42.4848 45.805H38.1726L38.5677 28.6646H45.6059L47.7065 41.7743H47.7633L49.9208 28.6646H56.8992Z" fill="white"/>
<path d="M83.7469 43.1956C84.9379 43.1956 85.3359 42.3997 85.3927 41.9477C85.4496 41.7772 85.4496 41.4929 85.4496 41.2684V28.6674H89.8186V40.9841C89.8186 41.3252 89.7617 41.9477 89.7617 42.1183C89.4775 45.2962 86.9249 46.3736 83.7441 46.3736C80.5633 46.3736 78.0675 45.3502 77.7861 42.1183C77.7861 41.9477 77.7293 41.3224 77.7293 40.9841V28.6674H82.0983V41.3792C82.0983 41.6066 82.0982 41.834 82.1551 42.0614C82.212 42.4025 82.5531 43.1956 83.7441 43.1956" fill="white"/>
<path d="M13.5394 40.9245C13.7099 41.3224 13.6531 41.8881 13.5962 42.1723C13.4257 42.7409 13.0846 43.3065 11.8935 43.3065C10.8162 43.3065 10.1909 42.6812 10.1909 41.7744V40.1286H5.59448V41.4333C5.59448 45.2934 8.60188 46.4276 11.8367 46.4276C15.0715 46.4276 17.5132 45.3503 17.9083 42.5106C18.1357 41.0353 17.9652 40.0717 17.9083 39.6738C17.1693 36.0979 10.6428 35.0205 10.1909 32.9768C10.134 32.6356 10.134 32.2945 10.1909 32.07C10.3046 31.5015 10.7025 30.9358 11.7798 30.9358C12.8003 30.9358 13.3688 31.5612 13.3688 32.4679V33.5453H17.6241V32.3542C17.6241 28.6078 14.2756 28.0421 11.8338 28.0421C8.76959 28.0421 6.27101 29.0626 5.81904 31.8454C5.70534 32.5845 5.70534 33.2638 5.87589 34.1735C6.5581 37.7465 12.6866 38.713 13.5365 40.9273" fill="white"/>
<path d="M69.3298 40.9244C69.5003 41.3223 69.4435 41.8311 69.3866 42.1722C69.2729 42.7407 68.875 43.3064 67.7408 43.3064C66.6066 43.3064 66.0381 42.6811 66.0381 41.7743V40.1285H61.4986V41.4332C61.4986 45.2365 64.506 46.3707 67.6839 46.3707C70.8619 46.3707 73.3036 45.3473 73.6987 42.5105C73.9262 41.0352 73.7556 40.0716 73.6987 39.7305C72.9597 36.1546 66.5469 35.1341 66.095 33.1472C65.9813 32.8061 66.0381 32.465 66.095 32.2404C66.2087 31.6719 66.6066 31.1063 67.6271 31.1063C68.6476 31.1063 69.2161 31.7316 69.2161 32.6384V33.7157H73.4713V32.5247C73.4713 28.8351 70.1228 28.2694 67.738 28.2694C64.7306 28.2694 62.232 29.233 61.78 32.0159C61.6663 32.7549 61.6095 33.4343 61.8369 34.2871C62.4594 37.7493 68.477 38.7129 69.3269 40.9272" fill="white"/>
<path d="M119.557 43.0221C120.805 43.0221 121.203 42.2262 121.317 41.7743C121.374 41.6037 121.374 41.3194 121.374 41.1489V38.6531H119.614V36.1546H125.686V40.7509C125.686 41.092 125.686 41.3194 125.629 41.8851C125.345 45.0062 122.622 46.1404 119.557 46.1404C116.493 46.1404 113.824 45.0062 113.54 41.8851C113.483 41.3166 113.483 41.0892 113.483 40.7509V33.5423C113.483 33.258 113.54 32.6924 113.54 32.4081C113.938 29.1733 116.49 28.1528 119.557 28.1528C122.624 28.1528 125.291 29.1733 125.572 32.4081C125.629 32.9198 125.629 33.5423 125.629 33.5423V34.1108H121.317V33.1472C121.317 33.1472 121.317 32.7492 121.26 32.465C121.203 32.067 120.862 31.2171 119.557 31.2171C118.253 31.2171 117.968 32.067 117.855 32.465C117.798 32.6924 117.798 32.9766 117.798 33.2609V41.092C117.798 41.3194 117.798 41.5468 117.855 41.7174C117.855 42.2859 118.309 43.0221 119.557 43.0221Z" fill="white"/>
</svg>
