<svg width="315" height="42" viewBox="0 0 315 42" fill="none" xmlns="http://www.w3.org/2000/svg">
<mask id="path-1-outside-1_262_1566" maskUnits="userSpaceOnUse" x="0" y="-0.621582" width="315" height="42" fill="black">
<rect fill="white" y="-0.621582" width="315" height="42"/>
<path d="M27.8 21.9784C27.8 27.8984 23.08 31.7784 15.6 31.7784C8.12 31.7784 3.32 27.8184 2.8 21.4584H10.44C10.52 24.1784 12.32 25.8984 15.44 25.8984C18.04 25.8984 19.76 24.8984 19.76 23.0984C19.76 21.8584 18.52 20.9384 16.84 20.6184L11.6 19.6184C7 18.7384 3.96 16.0584 3.96 11.4184C3.96 6.05842 8.68 2.29842 15.12 2.29842C21.96 2.29842 26.88 6.21842 27.32 12.4184H19.68C19.48 9.81842 17.72 8.13842 15.2 8.13842C12.96 8.13842 11.6 9.33842 11.6 10.8984C11.6 12.1784 12.88 12.9384 14.4 13.2184L19.96 14.2984C25.08 15.2984 27.8 17.8184 27.8 21.9784ZM45.7503 24.6584V30.6184C44.2303 31.4584 42.7903 31.7784 40.8703 31.7784C36.0303 31.7784 33.1903 28.8984 33.1903 23.9784V15.8184H29.1903V9.85842H33.1903V3.53842H40.0303V9.85842H45.9103V15.8184H40.0303V22.3784C40.0303 24.4584 40.9103 25.4184 42.7903 25.4184C43.9103 25.4184 44.9903 25.1384 45.7503 24.6584ZM61.5666 31.3784V29.2984C60.0466 31.0184 58.1666 31.7784 55.4066 31.7784C50.9266 31.7784 47.9266 29.0984 47.9266 25.0184C47.9266 20.8184 51.3266 18.5384 57.4866 18.5384C58.6466 18.5384 59.7266 18.6184 60.6466 18.7784V17.7384C60.6466 15.8584 59.5666 14.8184 57.6466 14.8184C55.7666 14.8184 54.6466 15.8584 54.4066 17.7384H48.2466C48.6466 12.7384 52.3666 9.45842 57.6866 9.45842C63.6066 9.45842 67.0866 12.6584 67.0866 18.0984V31.3784H61.5666ZM54.3666 24.8184C54.3666 26.2184 55.3266 27.0584 57.0066 27.0584C59.2866 27.0584 60.6466 25.9784 60.6466 24.2184V22.8584C59.6066 22.6584 58.8066 22.5784 57.9266 22.5784C55.6066 22.5784 54.3666 23.3384 54.3666 24.8184ZM91.2481 9.85842L81.0081 39.0984H73.5281L76.5281 31.1384L68.1281 9.85842H75.5681L80.2081 23.1784L84.3681 9.85842H91.2481ZM127.062 2.65842V19.9384C127.062 26.8984 122.702 31.9784 114.622 31.9784C106.462 31.9784 102.142 26.8984 102.142 19.9384V2.65842H109.702V20.0584C109.702 23.0584 110.782 25.2184 114.622 25.2184C118.422 25.2184 119.502 23.0584 119.502 20.0584V2.65842H127.062ZM154.293 20.6184C154.293 26.8584 150.493 31.7784 144.693 31.7784C142.453 31.7784 140.533 30.9784 138.853 29.3784V39.0984H132.013V9.85842H138.293V12.2984C140.053 10.4584 142.173 9.45842 144.693 9.45842C150.493 9.45842 154.293 14.4584 154.293 20.6184ZM147.173 20.6184C147.173 17.2584 145.133 15.6184 143.053 15.6184C140.933 15.6184 138.933 17.2584 138.933 20.6584C138.933 24.0984 140.973 25.6184 143.053 25.6184C145.133 25.6184 147.173 24.0584 147.173 20.6184ZM180.483 31.3784H172.923V9.49842H164.123V2.65842H189.283V9.49842H180.483V31.3784ZM199.628 31.7784C193.268 31.7784 188.388 26.7784 188.388 20.6184C188.388 14.4584 193.268 9.45842 199.628 9.45842C205.988 9.45842 210.868 14.4584 210.868 20.6184C210.868 26.7784 205.988 31.7784 199.628 31.7784ZM199.628 25.6584C201.748 25.6584 203.748 23.9784 203.748 20.6184C203.748 17.2584 201.748 15.6184 199.628 15.6184C197.508 15.6184 195.508 17.2584 195.508 20.6184C195.508 23.9784 197.508 25.6584 199.628 25.6584ZM234.125 31.3784H222.925V2.65842H234.125C243.205 2.65842 248.925 8.49842 248.925 16.8584C248.925 25.2184 243.005 31.3784 234.125 31.3784ZM230.485 9.17842V24.8584H233.685C238.685 24.8584 241.165 22.2584 241.165 16.8584C241.165 11.7784 238.605 9.17842 233.685 9.17842H230.485ZM264.887 31.3784V29.2984C263.367 31.0184 261.487 31.7784 258.727 31.7784C254.247 31.7784 251.247 29.0984 251.247 25.0184C251.247 20.8184 254.647 18.5384 260.807 18.5384C261.967 18.5384 263.047 18.6184 263.967 18.7784V17.7384C263.967 15.8584 262.887 14.8184 260.967 14.8184C259.087 14.8184 257.967 15.8584 257.727 17.7384H251.567C251.967 12.7384 255.687 9.45842 261.007 9.45842C266.927 9.45842 270.407 12.6584 270.407 18.0984V31.3784H264.887ZM257.687 24.8184C257.687 26.2184 258.647 27.0584 260.327 27.0584C262.607 27.0584 263.967 25.9784 263.967 24.2184V22.8584C262.927 22.6584 262.127 22.5784 261.247 22.5784C258.927 22.5784 257.687 23.3384 257.687 24.8184ZM288.719 24.6584V30.6184C287.199 31.4584 285.759 31.7784 283.839 31.7784C278.999 31.7784 276.159 28.8984 276.159 23.9784V15.8184H272.159V9.85842H276.159V3.53842H282.999V9.85842H288.879V15.8184H282.999V22.3784C282.999 24.4584 283.879 25.4184 285.759 25.4184C286.879 25.4184 287.959 25.1384 288.719 24.6584ZM301.265 31.7384C294.625 31.7384 290.185 27.2584 290.185 20.5784C290.185 14.1384 294.825 9.45842 301.225 9.45842C308.345 9.45842 313.105 15.2584 311.865 22.3384H297.265C297.625 25.0584 298.905 26.4184 301.105 26.4184C303.025 26.4184 304.305 25.6184 304.905 24.0584H311.745C310.425 28.9784 306.625 31.7384 301.265 31.7384ZM301.065 14.4984C299.025 14.4984 297.825 15.6584 297.345 18.0584H304.545C304.465 15.8984 303.105 14.4984 301.065 14.4984Z"/>
</mask>
<path d="M27.8 21.9784C27.8 27.8984 23.08 31.7784 15.6 31.7784C8.12 31.7784 3.32 27.8184 2.8 21.4584H10.44C10.52 24.1784 12.32 25.8984 15.44 25.8984C18.04 25.8984 19.76 24.8984 19.76 23.0984C19.76 21.8584 18.52 20.9384 16.84 20.6184L11.6 19.6184C7 18.7384 3.96 16.0584 3.96 11.4184C3.96 6.05842 8.68 2.29842 15.12 2.29842C21.96 2.29842 26.88 6.21842 27.32 12.4184H19.68C19.48 9.81842 17.72 8.13842 15.2 8.13842C12.96 8.13842 11.6 9.33842 11.6 10.8984C11.6 12.1784 12.88 12.9384 14.4 13.2184L19.96 14.2984C25.08 15.2984 27.8 17.8184 27.8 21.9784ZM45.7503 24.6584V30.6184C44.2303 31.4584 42.7903 31.7784 40.8703 31.7784C36.0303 31.7784 33.1903 28.8984 33.1903 23.9784V15.8184H29.1903V9.85842H33.1903V3.53842H40.0303V9.85842H45.9103V15.8184H40.0303V22.3784C40.0303 24.4584 40.9103 25.4184 42.7903 25.4184C43.9103 25.4184 44.9903 25.1384 45.7503 24.6584ZM61.5666 31.3784V29.2984C60.0466 31.0184 58.1666 31.7784 55.4066 31.7784C50.9266 31.7784 47.9266 29.0984 47.9266 25.0184C47.9266 20.8184 51.3266 18.5384 57.4866 18.5384C58.6466 18.5384 59.7266 18.6184 60.6466 18.7784V17.7384C60.6466 15.8584 59.5666 14.8184 57.6466 14.8184C55.7666 14.8184 54.6466 15.8584 54.4066 17.7384H48.2466C48.6466 12.7384 52.3666 9.45842 57.6866 9.45842C63.6066 9.45842 67.0866 12.6584 67.0866 18.0984V31.3784H61.5666ZM54.3666 24.8184C54.3666 26.2184 55.3266 27.0584 57.0066 27.0584C59.2866 27.0584 60.6466 25.9784 60.6466 24.2184V22.8584C59.6066 22.6584 58.8066 22.5784 57.9266 22.5784C55.6066 22.5784 54.3666 23.3384 54.3666 24.8184ZM91.2481 9.85842L81.0081 39.0984H73.5281L76.5281 31.1384L68.1281 9.85842H75.5681L80.2081 23.1784L84.3681 9.85842H91.2481ZM127.062 2.65842V19.9384C127.062 26.8984 122.702 31.9784 114.622 31.9784C106.462 31.9784 102.142 26.8984 102.142 19.9384V2.65842H109.702V20.0584C109.702 23.0584 110.782 25.2184 114.622 25.2184C118.422 25.2184 119.502 23.0584 119.502 20.0584V2.65842H127.062ZM154.293 20.6184C154.293 26.8584 150.493 31.7784 144.693 31.7784C142.453 31.7784 140.533 30.9784 138.853 29.3784V39.0984H132.013V9.85842H138.293V12.2984C140.053 10.4584 142.173 9.45842 144.693 9.45842C150.493 9.45842 154.293 14.4584 154.293 20.6184ZM147.173 20.6184C147.173 17.2584 145.133 15.6184 143.053 15.6184C140.933 15.6184 138.933 17.2584 138.933 20.6584C138.933 24.0984 140.973 25.6184 143.053 25.6184C145.133 25.6184 147.173 24.0584 147.173 20.6184ZM180.483 31.3784H172.923V9.49842H164.123V2.65842H189.283V9.49842H180.483V31.3784ZM199.628 31.7784C193.268 31.7784 188.388 26.7784 188.388 20.6184C188.388 14.4584 193.268 9.45842 199.628 9.45842C205.988 9.45842 210.868 14.4584 210.868 20.6184C210.868 26.7784 205.988 31.7784 199.628 31.7784ZM199.628 25.6584C201.748 25.6584 203.748 23.9784 203.748 20.6184C203.748 17.2584 201.748 15.6184 199.628 15.6184C197.508 15.6184 195.508 17.2584 195.508 20.6184C195.508 23.9784 197.508 25.6584 199.628 25.6584ZM234.125 31.3784H222.925V2.65842H234.125C243.205 2.65842 248.925 8.49842 248.925 16.8584C248.925 25.2184 243.005 31.3784 234.125 31.3784ZM230.485 9.17842V24.8584H233.685C238.685 24.8584 241.165 22.2584 241.165 16.8584C241.165 11.7784 238.605 9.17842 233.685 9.17842H230.485ZM264.887 31.3784V29.2984C263.367 31.0184 261.487 31.7784 258.727 31.7784C254.247 31.7784 251.247 29.0984 251.247 25.0184C251.247 20.8184 254.647 18.5384 260.807 18.5384C261.967 18.5384 263.047 18.6184 263.967 18.7784V17.7384C263.967 15.8584 262.887 14.8184 260.967 14.8184C259.087 14.8184 257.967 15.8584 257.727 17.7384H251.567C251.967 12.7384 255.687 9.45842 261.007 9.45842C266.927 9.45842 270.407 12.6584 270.407 18.0984V31.3784H264.887ZM257.687 24.8184C257.687 26.2184 258.647 27.0584 260.327 27.0584C262.607 27.0584 263.967 25.9784 263.967 24.2184V22.8584C262.927 22.6584 262.127 22.5784 261.247 22.5784C258.927 22.5784 257.687 23.3384 257.687 24.8184ZM288.719 24.6584V30.6184C287.199 31.4584 285.759 31.7784 283.839 31.7784C278.999 31.7784 276.159 28.8984 276.159 23.9784V15.8184H272.159V9.85842H276.159V3.53842H282.999V9.85842H288.879V15.8184H282.999V22.3784C282.999 24.4584 283.879 25.4184 285.759 25.4184C286.879 25.4184 287.959 25.1384 288.719 24.6584ZM301.265 31.7384C294.625 31.7384 290.185 27.2584 290.185 20.5784C290.185 14.1384 294.825 9.45842 301.225 9.45842C308.345 9.45842 313.105 15.2584 311.865 22.3384H297.265C297.625 25.0584 298.905 26.4184 301.105 26.4184C303.025 26.4184 304.305 25.6184 304.905 24.0584H311.745C310.425 28.9784 306.625 31.7384 301.265 31.7384ZM301.065 14.4984C299.025 14.4984 297.825 15.6584 297.345 18.0584H304.545C304.465 15.8984 303.105 14.4984 301.065 14.4984Z" fill="#FFCD4D"/>
<path d="M2.8 21.4584V19.4584H0.629804L0.806652 21.6214L2.8 21.4584ZM10.44 21.4584L12.4391 21.3996L12.382 19.4584H10.44V21.4584ZM16.84 20.6184L16.4651 22.583L16.4658 22.5831L16.84 20.6184ZM11.6 19.6184L11.2242 21.5828L11.2251 21.583L11.6 19.6184ZM27.32 12.4184V14.4184H29.467L29.315 12.2768L27.32 12.4184ZM19.68 12.4184L17.6859 12.5718L17.8279 14.4184H19.68V12.4184ZM14.4 13.2184L14.7814 11.2551L14.7719 11.2533L14.7623 11.2515L14.4 13.2184ZM19.96 14.2984L20.3434 12.3355L20.3414 12.3351L19.96 14.2984ZM25.8 21.9784C25.8 24.3584 24.8746 26.2277 23.2476 27.5432C21.5785 28.8926 19.0133 29.7784 15.6 29.7784V33.7784C19.6667 33.7784 23.2015 32.7242 25.7624 30.6537C28.3654 28.5491 29.8 25.5184 29.8 21.9784H25.8ZM15.6 29.7784C12.2035 29.7784 9.61345 28.881 7.85012 27.4503C6.11191 26.04 5.01301 23.9821 4.79335 21.2954L0.806652 21.6214C1.10699 25.2947 2.66809 28.3968 5.32988 30.5565C7.96655 32.6958 11.5165 33.7784 15.6 33.7784V29.7784ZM2.8 23.4584H10.44V19.4584H2.8V23.4584ZM8.44087 21.5172C8.49387 23.3193 9.13407 24.982 10.4573 26.1807C11.7649 27.3652 13.5199 27.8984 15.44 27.8984V23.8984C14.2401 23.8984 13.5351 23.5716 13.1427 23.2162C12.7659 22.8748 12.4661 22.3176 12.4391 21.3996L8.44087 21.5172ZM15.44 27.8984C16.9548 27.8984 18.4522 27.6136 19.64 26.8663C20.9179 26.0623 21.76 24.7529 21.76 23.0984H17.76C17.76 23.2179 17.735 23.2671 17.7221 23.2893C17.7056 23.3175 17.6556 23.389 17.51 23.4806C17.1878 23.6832 16.5252 23.8984 15.44 23.8984V27.8984ZM21.76 23.0984C21.76 21.7395 21.0612 20.6722 20.1957 19.9648C19.3523 19.2755 18.2867 18.858 17.2142 18.6537L16.4658 22.5831C17.0733 22.6988 17.4677 22.9013 17.6643 23.062C17.8388 23.2046 17.76 23.2173 17.76 23.0984H21.76ZM17.2149 18.6539L11.9749 17.6539L11.2251 21.583L16.4651 22.583L17.2149 18.6539ZM11.9758 17.654C9.94575 17.2657 8.45196 16.5152 7.48227 15.5274C6.54814 14.5758 5.96 13.2647 5.96 11.4184H1.96C1.96 14.2121 2.89186 16.5611 4.62773 18.3295C6.32804 20.0616 8.65425 21.0912 11.2242 21.5828L11.9758 17.654ZM5.96 11.4184C5.96 7.5339 9.37296 4.29842 15.12 4.29842V0.298416C7.98704 0.298416 1.96 4.58294 1.96 11.4184H5.96ZM15.12 4.29842C18.1643 4.29842 20.6312 5.16883 22.3518 6.57988C24.0509 7.97337 25.1425 9.98751 25.325 12.56L29.315 12.2768C29.0575 8.64932 27.4691 5.60346 24.8882 3.48695C22.3288 1.388 18.9157 0.298416 15.12 0.298416V4.29842ZM27.32 10.4184H19.68V14.4184H27.32V10.4184ZM21.6741 12.265C21.5418 10.5447 20.8767 8.98926 19.6914 7.85713C18.5012 6.72032 16.9193 6.13842 15.2 6.13842V10.1384C16.0007 10.1384 16.5588 10.3965 16.9286 10.7497C17.3033 11.1076 17.6182 11.6921 17.6859 12.5718L21.6741 12.265ZM15.2 6.13842C13.7362 6.13842 12.3637 6.53092 11.3121 7.37045C10.2327 8.2323 9.6 9.49016 9.6 10.8984H13.6C13.6 10.7467 13.6473 10.6245 13.8079 10.4964C13.9963 10.3459 14.4238 10.1384 15.2 10.1384V6.13842ZM9.6 10.8984C9.6 12.3077 10.3396 13.3613 11.225 14.0297C12.0657 14.6643 13.0929 15.0113 14.0377 15.1853L14.7623 11.2515C14.1871 11.1455 13.8143 10.9725 13.635 10.8372C13.556 10.7775 13.5511 10.7529 13.567 10.7812C13.5889 10.8202 13.6 10.8696 13.6 10.8984H9.6ZM14.0186 15.1817L19.5786 16.2617L20.3414 12.3351L14.7814 11.2551L14.0186 15.1817ZM19.5766 16.2613C21.9215 16.7193 23.4679 17.4814 24.4105 18.3919C25.2985 19.2496 25.8 20.3797 25.8 21.9784H29.8C29.8 19.4171 28.9415 17.2072 27.1895 15.5149C25.4921 13.8754 23.1185 12.8775 20.3434 12.3355L19.5766 16.2613ZM45.7503 24.6584H47.7503V21.0298L44.6823 22.9674L45.7503 24.6584ZM45.7503 30.6184L46.7177 32.3689L47.7503 31.7982V30.6184H45.7503ZM33.1903 15.8184H35.1903V13.8184H33.1903V15.8184ZM29.1903 15.8184H27.1903V17.8184H29.1903V15.8184ZM29.1903 9.85842V7.85842H27.1903V9.85842H29.1903ZM33.1903 9.85842V11.8584H35.1903V9.85842H33.1903ZM33.1903 3.53842V1.53842H31.1903V3.53842H33.1903ZM40.0303 3.53842H42.0303V1.53842H40.0303V3.53842ZM40.0303 9.85842H38.0303V11.8584H40.0303V9.85842ZM45.9103 9.85842H47.9103V7.85842H45.9103V9.85842ZM45.9103 15.8184V17.8184H47.9103V15.8184H45.9103ZM40.0303 15.8184V13.8184H38.0303V15.8184H40.0303ZM43.7503 24.6584V30.6184H47.7503V24.6584H43.7503ZM44.7829 28.8679C43.6107 29.5157 42.5163 29.7784 40.8703 29.7784V33.7784C43.0643 33.7784 44.8499 33.4011 46.7177 32.3689L44.7829 28.8679ZM40.8703 29.7784C38.8479 29.7784 37.4923 29.185 36.6402 28.3199C35.784 27.4508 35.1903 26.0577 35.1903 23.9784H31.1903C31.1903 26.8191 32.0166 29.326 33.7905 31.1269C35.5683 32.9318 38.0527 33.7784 40.8703 33.7784V29.7784ZM35.1903 23.9784V15.8184H31.1903V23.9784H35.1903ZM33.1903 13.8184H29.1903V17.8184H33.1903V13.8184ZM31.1903 15.8184V9.85842H27.1903V15.8184H31.1903ZM29.1903 11.8584H33.1903V7.85842H29.1903V11.8584ZM35.1903 9.85842V3.53842H31.1903V9.85842H35.1903ZM33.1903 5.53842H40.0303V1.53842H33.1903V5.53842ZM38.0303 3.53842V9.85842H42.0303V3.53842H38.0303ZM40.0303 11.8584H45.9103V7.85842H40.0303V11.8584ZM43.9103 9.85842V15.8184H47.9103V9.85842H43.9103ZM45.9103 13.8184H40.0303V17.8184H45.9103V13.8184ZM38.0303 15.8184V22.3784H42.0303V15.8184H38.0303ZM38.0303 22.3784C38.0303 23.6482 38.2912 24.9971 39.2261 26.0245C40.1975 27.092 41.5302 27.4184 42.7903 27.4184V23.4184C42.1704 23.4184 42.1231 23.2648 42.1845 23.3323C42.2094 23.3597 42.0303 23.1886 42.0303 22.3784H38.0303ZM42.7903 27.4184C44.2017 27.4184 45.6725 27.073 46.8183 26.3494L44.6823 22.9674C44.3081 23.2038 43.6189 23.4184 42.7903 23.4184V27.4184ZM61.5666 31.3784H59.5666V33.3784H61.5666V31.3784ZM61.5666 29.2984H63.5666V24.015L60.0679 27.974L61.5666 29.2984ZM60.6466 18.7784L60.3039 20.7488L62.6466 21.1563V18.7784H60.6466ZM54.4066 17.7384V19.7384H56.1675L56.3905 17.9917L54.4066 17.7384ZM48.2466 17.7384L46.2529 17.5789L46.0802 19.7384H48.2466V17.7384ZM67.0866 31.3784V33.3784H69.0866V31.3784H67.0866ZM60.6466 22.8584H62.6466V21.2064L61.0243 20.8944L60.6466 22.8584ZM63.5666 31.3784V29.2984H59.5666V31.3784H63.5666ZM60.0679 27.974C59.0023 29.1798 57.7169 29.7784 55.4066 29.7784V33.7784C58.6163 33.7784 61.0908 32.8571 63.0652 30.6228L60.0679 27.974ZM55.4066 29.7784C53.5602 29.7784 52.1992 29.2298 51.3251 28.4424C50.4708 27.6729 49.9266 26.5401 49.9266 25.0184H45.9266C45.9266 27.5767 46.8823 29.824 48.648 31.4144C50.3939 32.9871 52.773 33.7784 55.4066 33.7784V29.7784ZM49.9266 25.0184C49.9266 23.5463 50.4763 22.5636 51.5166 21.8604C52.6705 21.0804 54.6031 20.5384 57.4866 20.5384V16.5384C54.21 16.5384 51.3626 17.1364 49.2766 18.5464C47.0769 20.0333 45.9266 22.2906 45.9266 25.0184H49.9266ZM57.4866 20.5384C58.5623 20.5384 59.5237 20.6132 60.3039 20.7488L60.9892 16.808C59.9295 16.6237 58.7308 16.5384 57.4866 16.5384V20.5384ZM62.6466 18.7784V17.7384H58.6466V18.7784H62.6466ZM62.6466 17.7384C62.6466 16.4181 62.2593 15.1087 61.2595 14.1383C60.2688 13.1767 58.9547 12.8184 57.6466 12.8184V16.8184C58.2584 16.8184 58.4443 16.9801 58.4736 17.0086C58.4938 17.0282 58.6466 17.1787 58.6466 17.7384H62.6466ZM57.6466 12.8184C56.3325 12.8184 55.0619 13.1892 54.0669 14.0929C53.0802 14.9891 52.5856 16.2085 52.4227 17.4852L56.3905 17.9917C56.4675 17.3883 56.6529 17.1477 56.7562 17.0539C56.8512 16.9677 57.0807 16.8184 57.6466 16.8184V12.8184ZM54.4066 15.7384H48.2466V19.7384H54.4066V15.7384ZM50.2402 17.8979C50.4022 15.8724 51.2189 14.3 52.4415 13.226C53.6716 12.1455 55.4415 11.4584 57.6866 11.4584V7.45842C54.6116 7.45842 51.8615 8.41137 49.8016 10.2208C47.7342 12.0369 46.4909 14.6044 46.2529 17.5789L50.2402 17.8979ZM57.6866 11.4584C60.3003 11.4584 62.1123 12.1622 63.253 13.2108C64.371 14.2385 65.0866 15.8191 65.0866 18.0984H69.0866C69.0866 14.9377 68.0622 12.1984 65.9601 10.266C63.8808 8.35461 60.9928 7.45842 57.6866 7.45842V11.4584ZM65.0866 18.0984V31.3784H69.0866V18.0984H65.0866ZM67.0866 29.3784H61.5666V33.3784H67.0866V29.3784ZM52.3666 24.8184C52.3666 26.0044 52.7925 27.1585 53.7564 27.9831C54.678 28.7716 55.8566 29.0584 57.0066 29.0584V25.0584C56.4765 25.0584 56.3351 24.9252 56.3568 24.9437C56.3695 24.9546 56.382 24.9732 56.3856 24.9818C56.387 24.9851 56.3666 24.9396 56.3666 24.8184H52.3666ZM57.0066 29.0584C58.4341 29.0584 59.8305 28.7231 60.9155 27.8724C62.0596 26.9755 62.6466 25.6664 62.6466 24.2184H58.6466C58.6466 24.5304 58.5536 24.6414 58.4476 24.7245C58.2827 24.8538 57.8591 25.0584 57.0066 25.0584V29.0584ZM62.6466 24.2184V22.8584H58.6466V24.2184H62.6466ZM61.0243 20.8944C59.8787 20.6741 58.9512 20.5784 57.9266 20.5784V24.5784C58.6619 24.5784 59.3345 24.6427 60.2689 24.8224L61.0243 20.8944ZM57.9266 20.5784C56.6066 20.5784 55.2774 20.7844 54.2166 21.4474C53.0153 22.1982 52.3666 23.4086 52.3666 24.8184H56.3666C56.3666 24.7336 56.3822 24.747 56.3521 24.8023C56.3208 24.8595 56.2921 24.8672 56.3366 24.8394C56.4757 24.7524 56.9265 24.5784 57.9266 24.5784V20.5784ZM91.2481 9.85842L93.1357 10.5195L94.0676 7.85842H91.2481V9.85842ZM81.0081 39.0984V41.0984H82.4268L82.8957 39.7595L81.0081 39.0984ZM73.5281 39.0984L71.6566 38.3931L70.637 41.0984H73.5281V39.0984ZM76.5281 31.1384L78.3996 31.8438L78.6717 31.1218L78.3884 30.4041L76.5281 31.1384ZM68.1281 9.85842V7.85842H65.1885L66.2678 10.5927L68.1281 9.85842ZM75.5681 9.85842L77.4568 9.20049L76.9893 7.85842H75.5681V9.85842ZM80.2081 23.1784L78.3194 23.8363L80.3117 29.5556L82.1172 23.7746L80.2081 23.1784ZM84.3681 9.85842V7.85842H82.8975L82.4591 9.26219L84.3681 9.85842ZM89.3605 9.19737L79.1205 38.4374L82.8957 39.7595L93.1357 10.5195L89.3605 9.19737ZM81.0081 37.0984H73.5281V41.0984H81.0081V37.0984ZM75.3996 39.8038L78.3996 31.8438L74.6566 30.4331L71.6566 38.3931L75.3996 39.8038ZM78.3884 30.4041L69.9884 9.12408L66.2678 10.5927L74.6678 31.8727L78.3884 30.4041ZM68.1281 11.8584H75.5681V7.85842H68.1281V11.8584ZM73.6794 10.5163L78.3194 23.8363L82.0968 22.5205L77.4568 9.20049L73.6794 10.5163ZM82.1172 23.7746L86.2772 10.4546L82.4591 9.26219L78.2991 22.5822L82.1172 23.7746ZM84.3681 11.8584H91.2481V7.85842H84.3681V11.8584ZM127.062 2.65842H129.062V0.658416H127.062V2.65842ZM102.142 2.65842V0.658416H100.142V2.65842H102.142ZM109.702 2.65842H111.702V0.658416H109.702V2.65842ZM119.502 2.65842V0.658416H117.502V2.65842H119.502ZM125.062 2.65842V19.9384H129.062V2.65842H125.062ZM125.062 19.9384C125.062 23.0016 124.109 25.4716 122.444 27.1676C120.789 28.8543 118.232 29.9784 114.622 29.9784V33.9784C119.092 33.9784 122.754 32.5626 125.299 29.9692C127.835 27.3852 129.062 23.8352 129.062 19.9384H125.062ZM114.622 29.9784C110.967 29.9784 108.402 28.8512 106.749 27.1676C105.088 25.4744 104.142 23.0064 104.142 19.9384H100.142C100.142 23.8305 101.356 27.3824 103.894 29.9692C106.442 32.5656 110.117 33.9784 114.622 33.9784V29.9784ZM104.142 19.9384V2.65842H100.142V19.9384H104.142ZM102.142 4.65842H109.702V0.658416H102.142V4.65842ZM107.702 2.65842V20.0584H111.702V2.65842H107.702ZM107.702 20.0584C107.702 21.7321 107.99 23.5857 109.175 25.0313C110.428 26.5598 112.328 27.2184 114.622 27.2184V23.2184C113.075 23.2184 112.516 22.797 112.269 22.4956C111.954 22.1111 111.702 21.3847 111.702 20.0584H107.702ZM114.622 27.2184C116.902 27.2184 118.792 26.5557 120.038 25.0262C121.213 23.5824 121.502 21.7323 121.502 20.0584H117.502C117.502 21.3845 117.25 22.1145 116.936 22.5006C116.691 22.8011 116.142 23.2184 114.622 23.2184V27.2184ZM121.502 20.0584V2.65842H117.502V20.0584H121.502ZM119.502 4.65842H127.062V0.658416H119.502V4.65842ZM138.853 29.3784L140.233 27.9301L136.853 24.7118V29.3784H138.853ZM138.853 39.0984V41.0984H140.853V39.0984H138.853ZM132.013 39.0984H130.013V41.0984H132.013V39.0984ZM132.013 9.85842V7.85842H130.013V9.85842H132.013ZM138.293 9.85842H140.293V7.85842H138.293V9.85842ZM138.293 12.2984H136.293V17.2827L139.739 13.6809L138.293 12.2984ZM152.293 20.6184C152.293 26.1108 149.063 29.7784 144.693 29.7784V33.7784C151.924 33.7784 156.293 27.6061 156.293 20.6184H152.293ZM144.693 29.7784C142.997 29.7784 141.563 29.1973 140.233 27.9301L137.474 30.8267C139.504 32.7596 141.91 33.7784 144.693 33.7784V29.7784ZM136.853 29.3784V39.0984H140.853V29.3784H136.853ZM138.853 37.0984H132.013V41.0984H138.853V37.0984ZM134.013 39.0984V9.85842H130.013V39.0984H134.013ZM132.013 11.8584H138.293V7.85842H132.013V11.8584ZM136.293 9.85842V12.2984H140.293V9.85842H136.293ZM139.739 13.6809C141.162 12.1932 142.775 11.4584 144.693 11.4584V7.45842C141.572 7.45842 138.945 8.7236 136.848 10.916L139.739 13.6809ZM144.693 11.4584C149.055 11.4584 152.293 15.1961 152.293 20.6184H156.293C156.293 13.7208 151.932 7.45842 144.693 7.45842V11.4584ZM149.173 20.6184C149.173 18.5256 148.53 16.7602 147.36 15.4982C146.195 14.2425 144.625 13.6184 143.053 13.6184V17.6184C143.562 17.6184 144.052 17.8144 144.427 18.2186C144.796 18.6166 145.173 19.3512 145.173 20.6184H149.173ZM143.053 13.6184C141.468 13.6184 139.891 14.2388 138.724 15.5124C137.556 16.7865 136.933 18.5626 136.933 20.6584H140.933C140.933 19.3543 141.31 18.6103 141.673 18.2145C142.036 17.8181 142.519 17.6184 143.053 17.6184V13.6184ZM136.933 20.6584C136.933 22.7805 137.571 24.5514 138.764 25.8064C139.95 27.0546 141.525 27.6184 143.053 27.6184V23.6184C142.502 23.6184 142.016 23.4223 141.663 23.0504C141.316 22.6854 140.933 21.9763 140.933 20.6584H136.933ZM143.053 27.6184C144.597 27.6184 146.171 27.0341 147.351 25.7775C148.537 24.5154 149.173 22.7401 149.173 20.6184H145.173C145.173 21.9368 144.79 22.6615 144.435 23.0394C144.075 23.4227 143.59 23.6184 143.053 23.6184V27.6184ZM180.483 31.3784V33.3784H182.483V31.3784H180.483ZM172.923 31.3784H170.923V33.3784H172.923V31.3784ZM172.923 9.49842H174.923V7.49842H172.923V9.49842ZM164.123 9.49842H162.123V11.4984H164.123V9.49842ZM164.123 2.65842V0.658416H162.123V2.65842H164.123ZM189.283 2.65842H191.283V0.658416H189.283V2.65842ZM189.283 9.49842V11.4984H191.283V9.49842H189.283ZM180.483 9.49842V7.49842H178.483V9.49842H180.483ZM180.483 29.3784H172.923V33.3784H180.483V29.3784ZM174.923 31.3784V9.49842H170.923V31.3784H174.923ZM172.923 7.49842H164.123V11.4984H172.923V7.49842ZM166.123 9.49842V2.65842H162.123V9.49842H166.123ZM164.123 4.65842H189.283V0.658416H164.123V4.65842ZM187.283 2.65842V9.49842H191.283V2.65842H187.283ZM189.283 7.49842H180.483V11.4984H189.283V7.49842ZM178.483 9.49842V31.3784H182.483V9.49842H178.483ZM199.628 29.7784C194.377 29.7784 190.388 25.6785 190.388 20.6184H186.388C186.388 27.8783 192.159 33.7784 199.628 33.7784V29.7784ZM190.388 20.6184C190.388 15.5583 194.377 11.4584 199.628 11.4584V7.45842C192.159 7.45842 186.388 13.3585 186.388 20.6184H190.388ZM199.628 11.4584C204.879 11.4584 208.868 15.5583 208.868 20.6184H212.868C212.868 13.3585 207.097 7.45842 199.628 7.45842V11.4584ZM208.868 20.6184C208.868 25.6785 204.879 29.7784 199.628 29.7784V33.7784C207.097 33.7784 212.868 27.8783 212.868 20.6184H208.868ZM199.628 27.6584C201.227 27.6584 202.802 27.0181 203.962 25.7451C205.122 24.471 205.748 22.6997 205.748 20.6184H201.748C201.748 21.8971 201.374 22.6459 201.004 23.0518C200.633 23.4587 200.148 23.6584 199.628 23.6584V27.6584ZM205.748 20.6184C205.748 18.5365 205.121 16.77 203.953 15.503C202.788 14.238 201.213 13.6184 199.628 13.6184V17.6184C200.163 17.6184 200.648 17.8189 201.012 18.2139C201.374 18.6068 201.748 19.3403 201.748 20.6184H205.748ZM199.628 13.6184C198.043 13.6184 196.468 14.238 195.302 15.503C194.134 16.77 193.508 18.5365 193.508 20.6184H197.508C197.508 19.3403 197.881 18.6068 198.243 18.2139C198.607 17.8189 199.093 17.6184 199.628 17.6184V13.6184ZM193.508 20.6184C193.508 22.6997 194.134 24.471 195.294 25.7451C196.453 27.0181 198.028 27.6584 199.628 27.6584V23.6584C199.107 23.6584 198.622 23.4587 198.251 23.0518C197.882 22.6459 197.508 21.8971 197.508 20.6184H193.508ZM222.925 31.3784H220.925V33.3784H222.925V31.3784ZM222.925 2.65842V0.658416H220.925V2.65842H222.925ZM230.485 9.17842V7.17842H228.485V9.17842H230.485ZM230.485 24.8584H228.485V26.8584H230.485V24.8584ZM234.125 29.3784H222.925V33.3784H234.125V29.3784ZM224.925 31.3784V2.65842H220.925V31.3784H224.925ZM222.925 4.65842H234.125V0.658416H222.925V4.65842ZM234.125 4.65842C238.229 4.65842 241.399 5.97018 243.533 8.05427C245.665 10.1364 246.925 13.1466 246.925 16.8584H250.925C250.925 12.2102 249.325 8.12045 246.327 5.19257C243.331 2.26665 239.101 0.658416 234.125 0.658416V4.65842ZM246.925 16.8584C246.925 20.5555 245.623 23.6607 243.442 25.8378C241.263 28.0125 238.089 29.3784 234.125 29.3784V33.3784C239.041 33.3784 243.267 31.6644 246.268 28.669C249.267 25.6761 250.925 21.5213 250.925 16.8584H246.925ZM228.485 9.17842V24.8584H232.485V9.17842H228.485ZM230.485 26.8584H233.685V22.8584H230.485V26.8584ZM233.685 26.8584C236.514 26.8584 239.005 26.118 240.758 24.2529C242.487 22.4122 243.165 19.8257 243.165 16.8584H239.165C239.165 19.2911 238.603 20.7047 237.842 21.5139C237.105 22.2988 235.856 22.8584 233.685 22.8584V26.8584ZM243.165 16.8584C243.165 14.0061 242.445 11.5019 240.701 9.71601C238.949 7.92189 236.482 7.17842 233.685 7.17842V11.1784C235.808 11.1784 237.081 11.7349 237.839 12.5108C238.605 13.295 239.165 14.6307 239.165 16.8584H243.165ZM233.685 7.17842H230.485V11.1784H233.685V7.17842ZM264.887 31.3784H262.887V33.3784H264.887V31.3784ZM264.887 29.2984H266.887V24.015L263.388 27.974L264.887 29.2984ZM263.967 18.7784L263.624 20.7488L265.967 21.1563V18.7784H263.967ZM257.727 17.7384V19.7384H259.488L259.711 17.9917L257.727 17.7384ZM251.567 17.7384L249.573 17.5789L249.4 19.7384H251.567V17.7384ZM270.407 31.3784V33.3784H272.407V31.3784H270.407ZM263.967 22.8584H265.967V21.2064L264.345 20.8944L263.967 22.8584ZM266.887 31.3784V29.2984H262.887V31.3784H266.887ZM263.388 27.974C262.323 29.1798 261.037 29.7784 258.727 29.7784V33.7784C261.937 33.7784 264.411 32.8571 266.386 30.6228L263.388 27.974ZM258.727 29.7784C256.88 29.7784 255.52 29.2298 254.645 28.4424C253.791 27.6729 253.247 26.5401 253.247 25.0184H249.247C249.247 27.5767 250.203 29.824 251.968 31.4144C253.714 32.9871 256.093 33.7784 258.727 33.7784V29.7784ZM253.247 25.0184C253.247 23.5463 253.797 22.5636 254.837 21.8604C255.991 21.0804 257.923 20.5384 260.807 20.5384V16.5384C257.53 16.5384 254.683 17.1364 252.597 18.5464C250.397 20.0333 249.247 22.2906 249.247 25.0184H253.247ZM260.807 20.5384C261.883 20.5384 262.844 20.6132 263.624 20.7488L264.31 16.808C263.25 16.6237 262.051 16.5384 260.807 16.5384V20.5384ZM265.967 18.7784V17.7384H261.967V18.7784H265.967ZM265.967 17.7384C265.967 16.4181 265.58 15.1087 264.58 14.1383C263.589 13.1767 262.275 12.8184 260.967 12.8184V16.8184C261.579 16.8184 261.765 16.9801 261.794 17.0086C261.814 17.0282 261.967 17.1787 261.967 17.7384H265.967ZM260.967 12.8184C259.653 12.8184 258.382 13.1892 257.387 14.0929C256.401 14.9891 255.906 16.2085 255.743 17.4852L259.711 17.9917C259.788 17.3883 259.973 17.1477 260.077 17.0539C260.172 16.9677 260.401 16.8184 260.967 16.8184V12.8184ZM257.727 15.7384H251.567V19.7384H257.727V15.7384ZM253.561 17.8979C253.723 15.8724 254.539 14.3 255.762 13.226C256.992 12.1455 258.762 11.4584 261.007 11.4584V7.45842C257.932 7.45842 255.182 8.41137 253.122 10.2208C251.055 12.0369 249.811 14.6044 249.573 17.5789L253.561 17.8979ZM261.007 11.4584C263.621 11.4584 265.433 12.1622 266.573 13.2108C267.691 14.2385 268.407 15.8191 268.407 18.0984H272.407C272.407 14.9377 271.382 12.1984 269.28 10.266C267.201 8.35461 264.313 7.45842 261.007 7.45842V11.4584ZM268.407 18.0984V31.3784H272.407V18.0984H268.407ZM270.407 29.3784H264.887V33.3784H270.407V29.3784ZM255.687 24.8184C255.687 26.0044 256.113 27.1585 257.077 27.9831C257.998 28.7716 259.177 29.0584 260.327 29.0584V25.0584C259.797 25.0584 259.655 24.9252 259.677 24.9437C259.69 24.9546 259.702 24.9732 259.706 24.9818C259.707 24.9851 259.687 24.9396 259.687 24.8184H255.687ZM260.327 29.0584C261.754 29.0584 263.151 28.7231 264.236 27.8724C265.38 26.9755 265.967 25.6664 265.967 24.2184H261.967C261.967 24.5304 261.874 24.6414 261.768 24.7245C261.603 24.8538 261.179 25.0584 260.327 25.0584V29.0584ZM265.967 24.2184V22.8584H261.967V24.2184H265.967ZM264.345 20.8944C263.199 20.6741 262.272 20.5784 261.247 20.5784V24.5784C261.982 24.5784 262.655 24.6427 263.589 24.8224L264.345 20.8944ZM261.247 20.5784C259.927 20.5784 258.598 20.7844 257.537 21.4474C256.336 22.1982 255.687 23.4086 255.687 24.8184H259.687C259.687 24.7336 259.703 24.747 259.672 24.8023C259.641 24.8595 259.612 24.8672 259.657 24.8394C259.796 24.7524 260.247 24.5784 261.247 24.5784V20.5784ZM288.719 24.6584H290.719V21.0298L287.651 22.9674L288.719 24.6584ZM288.719 30.6184L289.686 32.3689L290.719 31.7982V30.6184H288.719ZM276.159 15.8184H278.159V13.8184H276.159V15.8184ZM272.159 15.8184H270.159V17.8184H272.159V15.8184ZM272.159 9.85842V7.85842H270.159V9.85842H272.159ZM276.159 9.85842V11.8584H278.159V9.85842H276.159ZM276.159 3.53842V1.53842H274.159V3.53842H276.159ZM282.999 3.53842H284.999V1.53842H282.999V3.53842ZM282.999 9.85842H280.999V11.8584H282.999V9.85842ZM288.879 9.85842H290.879V7.85842H288.879V9.85842ZM288.879 15.8184V17.8184H290.879V15.8184H288.879ZM282.999 15.8184V13.8184H280.999V15.8184H282.999ZM286.719 24.6584V30.6184H290.719V24.6584H286.719ZM287.752 28.8679C286.579 29.5157 285.485 29.7784 283.839 29.7784V33.7784C286.033 33.7784 287.819 33.4011 289.686 32.3689L287.752 28.8679ZM283.839 29.7784C281.817 29.7784 280.461 29.185 279.609 28.3199C278.753 27.4508 278.159 26.0577 278.159 23.9784H274.159C274.159 26.8191 274.985 29.326 276.759 31.1269C278.537 32.9318 281.021 33.7784 283.839 33.7784V29.7784ZM278.159 23.9784V15.8184H274.159V23.9784H278.159ZM276.159 13.8184H272.159V17.8184H276.159V13.8184ZM274.159 15.8184V9.85842H270.159V15.8184H274.159ZM272.159 11.8584H276.159V7.85842H272.159V11.8584ZM278.159 9.85842V3.53842H274.159V9.85842H278.159ZM276.159 5.53842H282.999V1.53842H276.159V5.53842ZM280.999 3.53842V9.85842H284.999V3.53842H280.999ZM282.999 11.8584H288.879V7.85842H282.999V11.8584ZM286.879 9.85842V15.8184H290.879V9.85842H286.879ZM288.879 13.8184H282.999V17.8184H288.879V13.8184ZM280.999 15.8184V22.3784H284.999V15.8184H280.999ZM280.999 22.3784C280.999 23.6482 281.26 24.9971 282.195 26.0245C283.166 27.092 284.499 27.4184 285.759 27.4184V23.4184C285.139 23.4184 285.092 23.2648 285.153 23.3323C285.178 23.3597 284.999 23.1886 284.999 22.3784H280.999ZM285.759 27.4184C287.17 27.4184 288.641 27.073 289.787 26.3494L287.651 22.9674C287.277 23.2038 286.588 23.4184 285.759 23.4184V27.4184ZM311.865 22.3384V24.3384H313.545L313.835 22.6834L311.865 22.3384ZM297.265 22.3384V20.3384H294.983L295.282 22.6008L297.265 22.3384ZM304.905 24.0584V22.0584H303.531L303.038 23.3405L304.905 24.0584ZM311.745 24.0584L313.676 24.5767L314.352 22.0584H311.745V24.0584ZM297.345 18.0584L295.384 17.6662L294.905 20.0584H297.345V18.0584ZM304.545 18.0584V20.0584H306.62L306.543 17.9844L304.545 18.0584ZM301.265 29.7384C298.406 29.7384 296.171 28.7832 294.654 27.2547C293.136 25.7247 292.185 23.4662 292.185 20.5784H288.185C288.185 24.3706 289.453 27.6921 291.815 30.0722C294.178 32.4536 297.483 33.7384 301.265 33.7384V29.7384ZM292.185 20.5784C292.185 15.2286 295.944 11.4584 301.225 11.4584V7.45842C293.706 7.45842 288.185 13.0483 288.185 20.5784H292.185ZM301.225 11.4584C307.064 11.4584 310.927 16.0994 309.895 21.9934L313.835 22.6834C315.282 14.4175 309.625 7.45842 301.225 7.45842V11.4584ZM311.865 20.3384H297.265V24.3384H311.865V20.3384ZM295.282 22.6008C295.492 24.1904 296.005 25.6711 297.038 26.7691C298.124 27.9223 299.56 28.4184 301.105 28.4184V24.4184C300.449 24.4184 300.146 24.2345 299.951 24.0277C299.705 23.7657 299.397 23.2064 299.247 22.076L295.282 22.6008ZM301.105 28.4184C302.337 28.4184 303.528 28.1612 304.556 27.5217C305.603 26.8703 306.334 25.9131 306.771 24.7764L303.038 23.3405C302.875 23.7637 302.666 23.9866 302.443 24.1252C302.201 24.2756 301.792 24.4184 301.105 24.4184V28.4184ZM304.905 26.0584H311.745V22.0584H304.905V26.0584ZM309.813 23.5402C309.257 25.6123 308.215 27.1234 306.839 28.1289C305.456 29.1404 303.599 29.7384 301.265 29.7384V33.7384C304.29 33.7384 307.014 32.9564 309.2 31.358C311.395 29.7534 312.912 27.4245 313.676 24.5767L309.813 23.5402ZM301.065 12.4984C299.641 12.4984 298.296 12.9172 297.235 13.9352C296.218 14.9109 295.669 16.2403 295.384 17.6662L299.306 18.4507C299.501 17.4766 299.791 17.0259 300.004 16.8217C300.173 16.6596 300.449 16.4984 301.065 16.4984V12.4984ZM297.345 20.0584H304.545V16.0584H297.345V20.0584ZM306.543 17.9844C306.488 16.5013 305.983 15.1083 304.971 14.0716C303.949 13.0237 302.562 12.4984 301.065 12.4984V16.4984C301.608 16.4984 301.921 16.6732 302.108 16.8652C302.307 17.0686 302.521 17.4555 302.546 18.1324L306.543 17.9844Z" fill="#9D5E28" mask="url(#path-1-outside-1_262_1566)"/>
</svg>
