<svg width="204" height="33" viewBox="0 0 204 33" fill="none" xmlns="http://www.w3.org/2000/svg">
<rect x="0.258667" y="2.48071" width="28.4827" height="28.4827" rx="14.2413" fill="#FFCD4D"/>
<path fill-rule="evenodd" clip-rule="evenodd" d="M10.5923 11.1547C10.5923 9.75204 11.7294 8.61499 13.132 8.61499H15.867C17.2697 8.61499 18.4067 9.75204 18.4067 11.1547H10.5923ZM7.85775 14.2799C7.85775 12.8773 8.9948 11.7402 10.3974 11.7402H18.6025C20.0051 11.7402 21.1422 12.8773 21.1422 14.2799H7.85775ZM8.24853 14.8661C7.27748 14.8661 6.4903 15.6533 6.4903 16.6243C6.4903 17.5954 7.27748 18.3826 8.24853 18.3826H20.7515C21.7226 18.3826 22.5098 17.5954 22.5098 16.6243C22.5098 15.6533 21.7226 14.8661 20.7515 14.8661H8.24853ZM8.05292 19.1646C8.05292 20.5672 9.18997 21.7043 10.5926 21.7043H18.7977C20.2003 21.7043 21.3374 20.5672 21.3374 19.1646H8.05292ZM13.132 24.8295C11.7294 24.8295 10.5923 23.6925 10.5923 22.2899H18.6021C18.6021 23.6925 17.465 24.8295 16.0624 24.8295H13.132Z" fill="black"/>
<path d="M33.9273 6.4732H37.1093V14.7174H40.5227V6.4732H43.7047V26.7222H40.5227V17.6101H37.1093V26.7222H33.9273V6.4732ZM50.6739 27.0114C49.1118 27.0114 47.9162 26.5679 47.0869 25.6808C46.2577 24.7937 45.843 23.5402 45.843 21.9203V11.2751C45.843 9.65518 46.2577 8.40168 47.0869 7.51458C47.9162 6.62748 49.1118 6.18393 50.6739 6.18393C52.2359 6.18393 53.4316 6.62748 54.2608 7.51458C55.0901 8.40168 55.5047 9.65518 55.5047 11.2751V21.9203C55.5047 23.5402 55.0901 24.7937 54.2608 25.6808C53.4316 26.5679 52.2359 27.0114 50.6739 27.0114ZM50.6739 24.1187C51.7731 24.1187 52.3227 23.4534 52.3227 22.1228V11.0726C52.3227 9.74196 51.7731 9.07664 50.6739 9.07664C49.5746 9.07664 49.025 9.74196 49.025 11.0726V22.1228C49.025 23.4534 49.5746 24.1187 50.6739 24.1187ZM57.6566 6.4732H61.6485L64.7437 18.5937H64.8016V6.4732H67.6364V26.7222H64.3677L60.5493 11.9404H60.4915V26.7222H57.6566V6.4732ZM70.0015 6.4732H78.6796V9.36591H73.1834V14.7174H77.5514V17.6101H73.1834V23.8295H78.6796V26.7222H70.0015V6.4732ZM83.4318 18.1019L79.5845 6.4732H82.9689L85.1385 13.9075H85.1963L87.3659 6.4732H90.4611L86.6137 18.1019V26.7222H83.4318V18.1019ZM91.8945 6.4732H96.5807C98.1621 6.4732 99.3481 6.89747 100.139 7.746C100.929 8.59452 101.325 9.83839 101.325 11.4776V13.4736C101.325 15.1128 100.929 16.3566 100.139 17.2052C99.3481 18.0537 98.1621 18.4779 96.5807 18.4779H95.0765V26.7222H91.8945V6.4732ZM96.5807 15.5852C97.1014 15.5852 97.4871 15.4406 97.7378 15.1513C98.0078 14.8621 98.1428 14.3703 98.1428 13.676V11.2751C98.1428 10.5808 98.0078 10.0891 97.7378 9.79982C97.4871 9.51055 97.1014 9.36591 96.5807 9.36591H95.0765V15.5852H96.5807ZM107.652 27.0114C106.09 27.0114 104.895 26.5679 104.065 25.6808C103.236 24.7937 102.822 23.5402 102.822 21.9203V11.2751C102.822 9.65518 103.236 8.40168 104.065 7.51458C104.895 6.62748 106.09 6.18393 107.652 6.18393C109.214 6.18393 110.41 6.62748 111.239 7.51458C112.069 8.40168 112.483 9.65518 112.483 11.2751V21.9203C112.483 23.5402 112.069 24.7937 111.239 25.6808C110.41 26.5679 109.214 27.0114 107.652 27.0114ZM107.652 24.1187C108.752 24.1187 109.301 23.4534 109.301 22.1228V11.0726C109.301 9.74196 108.752 9.07664 107.652 9.07664C106.553 9.07664 106.003 9.74196 106.003 11.0726V22.1228C106.003 23.4534 106.553 24.1187 107.652 24.1187ZM117.01 9.36591H113.683V6.4732H123.518V9.36591H120.192V26.7222H117.01V9.36591ZM129.692 6.4732H138.11V9.36591H132.874V15.0067H136.981V17.8994H132.874V26.7222H129.692V6.4732ZM139.636 6.4732H142.817V26.7222H139.636V6.4732ZM145.201 6.4732H149.193L152.288 18.5937H152.346V6.4732H155.18V26.7222H151.912L148.093 11.9404H148.035V26.7222H145.201V6.4732ZM160.004 6.4732H164.314L167.612 26.7222H164.43L163.852 22.7013V22.7592H160.236L159.657 26.7222H156.707L160.004 6.4732ZM163.476 20.0111L162.058 10.0023H162L160.612 20.0111H163.476ZM169.156 6.4732H173.148L176.243 18.5937H176.301V6.4732H179.136V26.7222H175.867L172.049 11.9404H171.991V26.7222H169.156V6.4732ZM185.984 27.0114C184.461 27.0114 183.294 26.5775 182.484 25.7097C181.694 24.8419 181.298 23.6173 181.298 22.036V11.1594C181.298 9.57804 181.694 8.35346 182.484 7.48565C183.294 6.61784 184.461 6.18393 185.984 6.18393C187.508 6.18393 188.665 6.61784 189.456 7.48565C190.266 8.35346 190.671 9.57804 190.671 11.1594V13.3H187.662V10.9569C187.662 9.7034 187.132 9.07664 186.071 9.07664C185.011 9.07664 184.48 9.7034 184.48 10.9569V22.2674C184.48 23.5016 185.011 24.1187 186.071 24.1187C187.132 24.1187 187.662 23.5016 187.662 22.2674V19.1722H190.671V22.036C190.671 23.6173 190.266 24.8419 189.456 25.7097C188.665 26.5775 187.508 27.0114 185.984 27.0114ZM192.574 6.4732H201.252V9.36591H195.756V14.7174H200.124V17.6101H195.756V23.8295H201.252V26.7222H192.574V6.4732Z" fill="#FFCD4D"/>
</svg>
