<svg width="381" height="217" viewBox="0 0 381 217" fill="none" xmlns="http://www.w3.org/2000/svg">
<mask id="path-1-inside-1_158_5089" fill="white">
<path fill-rule="evenodd" clip-rule="evenodd" d="M194.5 9.8228C205.401 3.57303 218.033 0 231.5 0C270.457 0 302.429 29.9006 305.721 68.004C305.98 68.0013 306.24 68 306.5 68C347.645 68 381 101.355 381 142.5C381 183.645 347.645 217 306.5 217C283.065 217 262.157 206.179 248.5 189.261C234.843 206.179 213.935 217 190.5 217C167.065 217 146.157 206.179 132.5 189.261C118.843 206.179 97.9352 217 74.5 217C33.3548 217 0 183.645 0 142.5C0 101.355 33.3548 68 74.5 68C77.4559 68 80.3716 68.1721 83.2375 68.507C86.2896 30.1641 118.372 0 157.5 0C170.967 0 183.599 3.57303 194.5 9.8228Z"/>
</mask>
<path fill-rule="evenodd" clip-rule="evenodd" d="M194.5 9.8228C205.401 3.57303 218.033 0 231.5 0C270.457 0 302.429 29.9006 305.721 68.004C305.98 68.0013 306.24 68 306.5 68C347.645 68 381 101.355 381 142.5C381 183.645 347.645 217 306.5 217C283.065 217 262.157 206.179 248.5 189.261C234.843 206.179 213.935 217 190.5 217C167.065 217 146.157 206.179 132.5 189.261C118.843 206.179 97.9352 217 74.5 217C33.3548 217 0 183.645 0 142.5C0 101.355 33.3548 68 74.5 68C77.4559 68 80.3716 68.1721 83.2375 68.507C86.2896 30.1641 118.372 0 157.5 0C170.967 0 183.599 3.57303 194.5 9.8228Z" fill="white" fill-opacity="0.2"/>
<path d="M194.5 9.8228L194.003 10.6903L194.5 10.9755L194.997 10.6903L194.5 9.8228ZM305.721 68.004L304.724 68.09L304.804 69.0135L305.731 69.0039L305.721 68.004ZM248.5 189.261L249.278 188.633L248.5 187.669L247.722 188.633L248.5 189.261ZM132.5 189.261L133.278 188.633L132.5 187.669L131.722 188.633L132.5 189.261ZM83.2375 68.507L83.1215 69.5002L84.1521 69.6206L84.2344 68.5863L83.2375 68.507ZM194.997 10.6903C205.751 4.52506 218.212 1 231.5 1V-1C217.854 -1 205.051 2.62101 194.003 8.95526L194.997 10.6903ZM231.5 1C269.933 1 301.477 30.4992 304.724 68.09L306.717 67.9179C303.381 29.3021 270.98 -1 231.5 -1V1ZM305.731 69.0039C305.987 69.0013 306.243 69 306.5 69V67C306.237 67 305.973 67.0013 305.71 67.004L305.731 69.0039ZM306.5 69C347.093 69 380 101.907 380 142.5H382C382 100.803 348.197 67 306.5 67V69ZM380 142.5C380 183.093 347.093 216 306.5 216V218C348.197 218 382 184.198 382 142.5H380ZM306.5 216C283.38 216 262.753 205.326 249.278 188.633L247.722 189.89C261.56 207.032 282.75 218 306.5 218V216ZM247.722 188.633C234.247 205.326 213.62 216 190.5 216V218C214.25 218 235.44 207.032 249.278 189.89L247.722 188.633ZM190.5 216C167.38 216 146.753 205.326 133.278 188.633L131.722 189.89C145.56 207.032 166.75 218 190.5 218V216ZM131.722 188.633C118.247 205.326 97.6202 216 74.5 216V218C98.2502 218 119.44 207.032 133.278 189.89L131.722 188.633ZM74.5 216C33.9071 216 1 183.093 1 142.5H-1C-1 184.198 32.8025 218 74.5 218V216ZM1 142.5C1 101.907 33.9071 69 74.5 69V67C32.8025 67 -1 100.803 -1 142.5H1ZM74.5 69C77.417 69 80.294 69.1699 83.1215 69.5002L83.3536 67.5137C80.4492 67.1744 77.4948 67 74.5 67V69ZM84.2344 68.5863C87.2454 30.7591 118.898 1 157.5 1V-1C117.847 -1 85.3338 29.5691 82.2407 68.4276L84.2344 68.5863ZM157.5 1C170.788 1 183.249 4.52506 194.003 10.6903L194.997 8.95526C183.949 2.62101 171.146 -1 157.5 -1V1Z" fill="black" fill-opacity="0.1" mask="url(#path-1-inside-1_158_5089)"/>
</svg>
