<svg width="27" height="20" viewBox="0 0 27 20" fill="none" xmlns="http://www.w3.org/2000/svg">
<path d="M22.5092 2.36576C20.8764 1.62938 19.1261 1.0851 17.2959 0.775609C17.2796 0.77248 17.2627 0.774497 17.2476 0.78138C17.2325 0.788264 17.2199 0.799673 17.2115 0.814029C16.9874 1.20783 16.7377 1.72116 16.5627 2.1267C14.6215 1.83667 12.648 1.83667 10.7069 2.1267C10.5119 1.67726 10.2921 1.23902 10.0484 0.814029C10.0401 0.799497 10.0276 0.787829 10.0126 0.780583C9.99752 0.773337 9.9806 0.770857 9.96409 0.773475C8.13488 1.08297 6.38465 1.62725 4.75074 2.36469C4.73669 2.37059 4.72477 2.38064 4.71659 2.39351C1.39542 7.27602 0.485084 12.0379 0.932248 16.7401C0.933492 16.7516 0.937067 16.7627 0.942754 16.7728C0.948442 16.7829 0.956123 16.7918 0.965331 16.7988C2.90381 18.2101 5.06593 19.2852 7.36115 19.9791C7.37715 19.984 7.39427 19.984 7.41026 19.979C7.42625 19.9741 7.44038 19.9644 7.4508 19.9513C7.94385 19.2897 8.38354 18.5906 8.7592 17.8564C8.78162 17.8137 8.76027 17.7625 8.71545 17.7454C8.02603 17.4858 7.35804 17.1725 6.71762 16.8084C6.70611 16.8018 6.69642 16.7925 6.6894 16.7813C6.68239 16.77 6.67827 16.7572 6.67742 16.744C6.67658 16.7308 6.67903 16.7175 6.68455 16.7055C6.69008 16.6934 6.69851 16.683 6.70908 16.675C6.84355 16.5757 6.97802 16.4722 7.10609 16.3687C7.11762 16.3594 7.1315 16.3535 7.1462 16.3516C7.1609 16.3497 7.17583 16.3519 7.18933 16.358C11.3803 18.2406 15.9192 18.2406 20.061 16.358C20.0746 16.3516 20.0896 16.349 20.1045 16.3507C20.1195 16.3524 20.1336 16.3583 20.1453 16.3676C20.2734 16.4722 20.4068 16.5757 20.5423 16.675C20.553 16.6828 20.5616 16.6931 20.5673 16.7051C20.573 16.717 20.5756 16.7302 20.575 16.7434C20.5744 16.7566 20.5705 16.7695 20.5636 16.7808C20.5568 16.7922 20.5473 16.8016 20.5359 16.8084C19.8977 17.1755 19.2339 17.4861 18.537 17.7443C18.5263 17.7482 18.5166 17.7543 18.5084 17.7623C18.5003 17.7702 18.4939 17.7799 18.4898 17.7905C18.4856 17.8011 18.4838 17.8124 18.4844 17.8238C18.485 17.8352 18.488 17.8463 18.4933 17.8564C18.8775 18.5896 19.3172 19.2875 19.8006 19.9503C19.8107 19.9639 19.8247 19.974 19.8407 19.9794C19.8568 19.9847 19.8741 19.985 19.8903 19.9801C22.1894 19.2882 24.3551 18.2126 26.2957 16.7988C26.3052 16.7922 26.3131 16.7836 26.319 16.7737C26.3249 16.7637 26.3286 16.7526 26.3298 16.7411C26.8634 11.3048 25.4355 6.58126 22.5423 2.39564C22.5352 2.38204 22.5235 2.37144 22.5092 2.36576ZM9.38566 13.8767C8.12421 13.8767 7.08368 12.7359 7.08368 11.3368C7.08368 9.93659 8.10394 8.7968 9.38566 8.7968C10.677 8.7968 11.7079 9.94619 11.6876 11.3368C11.6876 12.737 10.6674 13.8767 9.38566 13.8767ZM17.8967 13.8767C16.6342 13.8767 15.5947 12.7359 15.5947 11.3368C15.5947 9.93659 16.6139 8.7968 17.8967 8.7968C19.188 8.7968 20.219 9.94619 20.1987 11.3368C20.1987 12.737 19.1891 13.8767 17.8967 13.8767Z" fill="#CB7A34"/>
</svg>
