<svg width="49" height="57" viewBox="0 0 49 57" fill="none" xmlns="http://www.w3.org/2000/svg">
<path d="M19.7294 24.2534C21.321 24.2534 22.6103 25.4472 22.5811 26.9062C22.5811 28.3652 21.3237 29.559 19.7294 29.559C18.1642 29.559 16.875 28.3652 16.875 26.9062C16.875 25.4472 18.135 24.2534 19.7294 24.2534ZM29.9373 24.2534C31.5316 24.2534 32.7916 25.4472 32.7916 26.9062C32.7916 28.3652 31.5316 29.559 29.9373 29.559C28.3721 29.559 27.0855 28.3652 27.0855 26.9062C27.0855 25.4472 28.3429 24.2534 29.9373 24.2534ZM43.1136 0.378418C46.1988 0.378418 48.7083 2.941 48.7083 6.11638V56.0868L42.843 50.7945L39.5403 47.6748L36.0466 44.3588L37.495 49.5132H6.55302C3.46784 49.5132 0.958313 46.9506 0.958313 43.7752V6.11638C0.958313 2.941 3.46784 0.378418 6.55302 0.378418H43.111H43.1136ZM32.5821 36.756C38.6118 36.5623 40.933 32.5221 40.933 32.5221C40.933 23.5531 37.0016 16.2818 37.0016 16.2818C33.0755 13.2762 29.3351 13.3585 29.3351 13.3585L28.9531 13.8041C33.5928 15.2525 35.7468 17.3429 35.7468 17.3429C33.2136 15.9157 30.4218 15.0067 27.5338 14.6689C25.7019 14.462 23.8516 14.4798 22.024 14.722C21.8595 14.722 21.7216 14.7512 21.5598 14.7777C20.6048 14.8626 18.2836 15.2234 15.3655 16.5338C14.3575 17.006 13.7553 17.3429 13.7553 17.3429C13.7553 17.3429 16.0208 15.1411 20.9311 13.6927L20.6578 13.3585C20.6578 13.3585 16.9201 13.2762 12.9913 16.2845C12.9913 16.2845 9.06255 23.5531 9.06255 32.5221C9.06255 32.5221 11.3545 36.5597 17.3843 36.756C17.3843 36.756 18.3924 35.5038 19.2147 34.4454C15.7475 33.3843 14.4397 31.1559 14.4397 31.1559C14.4397 31.1559 14.7103 31.3523 15.2011 31.6308C15.2276 31.6573 15.2541 31.6865 15.3098 31.713C15.3921 31.7714 15.4743 31.7979 15.5565 31.8536C16.2383 32.2436 16.9201 32.5487 17.5461 32.8007C18.6656 33.2463 20.0026 33.692 21.5598 33.9997C23.8924 34.457 26.2908 34.466 28.6268 34.0262C29.9874 33.7834 31.3149 33.3819 32.5821 32.8298C33.5371 32.4664 34.6008 31.9359 35.7203 31.1851C35.7203 31.1851 34.3568 33.4692 30.7808 34.5011C31.6005 35.5596 32.5847 36.756 32.5847 36.756H32.5821Z" fill="#FFCD4D"/>
</svg>
