<svg width="26" height="26" viewBox="0 0 26 26" fill="none" xmlns="http://www.w3.org/2000/svg">
<path d="M12.8653 0.878418C5.96239 0.878418 0.365295 6.47552 0.365295 13.3784C0.365295 20.2813 5.96239 25.8784 12.8653 25.8784C19.7682 25.8784 25.3653 20.2813 25.3653 13.3784C25.3653 6.47552 19.7682 0.878418 12.8653 0.878418ZM20.0082 7.9571L18.8698 9.04806C18.7693 9.1234 18.7219 9.24616 18.7414 9.36614V17.3935C18.7219 17.5163 18.7693 17.639 18.8698 17.7116L19.9858 18.8025V19.0453H14.3832V18.8137L15.5355 17.6948C15.6499 17.5804 15.6499 17.5469 15.6499 17.3767V10.8812L12.4412 19.0174H12.0087L8.27545 10.8812V16.336C8.24197 16.5648 8.32289 16.7964 8.48472 16.961L9.98583 18.7774V19.0202H5.72244V18.7774L7.22355 16.961C7.30264 16.8793 7.3615 16.7802 7.39542 16.6717C7.42934 16.5632 7.43737 16.4482 7.41887 16.336V10.0302C7.4384 9.85442 7.37143 9.68422 7.2375 9.56424L5.9038 7.9571V7.71436H10.0472L13.2448 14.7317L16.0601 7.71994H20.0082V7.9571Z" fill="#CB7A34"/>
</svg>
