<svg width="26" height="27" viewBox="0 0 26 27" fill="none" xmlns="http://www.w3.org/2000/svg">
<path fill-rule="evenodd" clip-rule="evenodd" d="M25.7833 13.3784C25.7833 20.4508 20.0492 26.1849 12.9767 26.1849C5.90431 26.1849 0.170166 20.4508 0.170166 13.3784C0.170166 6.30593 5.90431 0.571777 12.9767 0.571777C20.0492 0.571777 25.7833 6.30593 25.7833 13.3784ZM13.4357 10.0262C12.1902 10.5438 9.7004 11.6164 5.96728 13.2428C5.3611 13.484 5.04307 13.7199 5.01426 13.9504C4.96516 14.341 5.45395 14.4947 6.11776 14.7028C6.20847 14.7316 6.30239 14.7604 6.39843 14.7924C7.05264 15.0048 7.93202 15.2535 8.38879 15.2631C8.80394 15.2716 9.26711 15.1008 9.77831 14.7508C13.266 12.3955 15.0664 11.2055 15.1795 11.1799C15.2595 11.1618 15.3705 11.1383 15.4452 11.2055C15.5199 11.2717 15.5125 11.3976 15.505 11.4318C15.4559 11.6377 13.5413 13.4189 12.5488 14.341C12.2393 14.6281 12.0205 14.8319 11.9757 14.8789C11.8754 14.9824 11.7729 15.0816 11.6747 15.1766C11.0664 15.7615 10.6118 16.2011 11.7004 16.9183C12.2233 17.263 12.6416 17.548 13.0589 17.8319C13.5146 18.1424 13.9693 18.4519 14.5584 18.8382C14.7078 18.9364 14.8508 19.0378 14.9906 19.1371C15.521 19.5159 15.998 19.8553 16.5871 19.8019C16.9286 19.7699 17.283 19.4487 17.4623 18.4893C17.8859 16.2204 18.7205 11.3069 18.9137 9.28132C18.9254 9.11314 18.9183 8.94418 18.8923 8.7776C18.8768 8.64305 18.8113 8.51926 18.7088 8.43075C18.5562 8.30589 18.3192 8.27921 18.2125 8.28134C17.7312 8.28988 16.9927 8.54708 13.4357 10.0262Z" fill="#CB7A34"/>
</svg>
