<svg width="49" height="50" viewBox="0 0 49 50" fill="none" xmlns="http://www.w3.org/2000/svg">
<path d="M24.5 0.378418C10.9933 0.378418 0.041626 11.3301 0.041626 24.8368C0.041626 38.3435 10.9933 49.2952 24.5 49.2952C38.0067 49.2952 48.9584 38.3435 48.9584 24.8368C48.9584 11.3301 38.0067 0.378418 24.5 0.378418ZM36.2542 18.815C36.2706 19.0716 36.2706 19.3391 36.2706 19.6012C36.2706 27.6157 30.1669 36.8476 19.0132 36.8476C15.5738 36.8476 12.3855 35.8485 9.69941 34.1288C10.1908 34.1834 10.6603 34.2052 11.1625 34.2052C14.0015 34.2052 16.6111 33.2444 18.6911 31.6174C16.0269 31.5628 13.7885 29.8158 13.0242 27.4137C13.9578 27.5501 14.7985 27.5501 15.7594 27.3045C14.3876 27.0258 13.1546 26.2807 12.2698 25.1959C11.3851 24.1111 10.9031 22.7535 10.9059 21.3537V21.2772C11.7085 21.7304 12.653 22.0088 13.6411 22.047C12.8104 21.4934 12.1292 20.7433 11.6578 19.8634C11.1864 18.9834 10.9394 18.0007 10.9387 17.0025C10.9387 15.8724 11.2335 14.8405 11.7631 13.9452C13.2857 15.8196 15.1858 17.3526 17.3397 18.4447C19.4937 19.5367 21.8533 20.1632 24.2652 20.2836C23.4081 16.1617 26.4872 12.826 30.1888 12.826C31.9358 12.826 33.5081 13.5576 34.6164 14.7368C35.9867 14.4802 37.297 13.967 38.4653 13.2791C38.0122 14.6822 37.0622 15.8669 35.8011 16.6148C37.024 16.4838 38.2032 16.1453 39.2951 15.6704C38.4708 16.8824 37.4389 17.9579 36.2542 18.815Z" fill="#FFCD4D"/>
</svg>
