<svg width="26" height="26" viewBox="0 0 26 26" fill="none" xmlns="http://www.w3.org/2000/svg">
<path d="M12.5959 0.878418C5.69295 0.878418 0.0958557 6.47552 0.0958557 13.3784C0.0958557 20.2813 5.69295 25.8784 12.5959 25.8784C19.4988 25.8784 25.0959 20.2813 25.0959 13.3784C25.0959 6.47552 19.4988 0.878418 12.5959 0.878418ZM18.6031 10.3009C18.6115 10.432 18.6115 10.5687 18.6115 10.7026C18.6115 14.7986 15.4921 19.5168 9.79173 19.5168C8.03391 19.5168 6.40445 19.0062 5.03168 18.1273C5.2828 18.1552 5.52275 18.1664 5.77945 18.1664C7.23034 18.1664 8.56405 17.6753 9.62711 16.8438C8.2655 16.8159 7.12152 15.9231 6.7309 14.6954C7.20802 14.7651 7.63771 14.7651 8.12878 14.6396C7.42768 14.4971 6.79752 14.1164 6.34534 13.562C5.89317 13.0076 5.64688 12.3137 5.64831 11.5983V11.5592C6.05847 11.7908 6.54117 11.9331 7.04619 11.9526C6.62164 11.6697 6.27347 11.2864 6.03255 10.8366C5.79163 10.3869 5.6654 9.8847 5.66505 9.37451C5.66505 8.79694 5.81572 8.2696 6.08637 7.81201C6.86456 8.76998 7.83562 9.55348 8.93644 10.1116C10.0373 10.6697 11.2432 10.9899 12.4759 11.0514C12.0378 8.94482 13.6115 7.24003 15.5032 7.24003C16.3961 7.24003 17.1996 7.61391 17.7661 8.21659C18.4664 8.08545 19.136 7.82317 19.7331 7.47161C19.5015 8.18869 19.0161 8.79415 18.3715 9.17641C18.9965 9.10944 19.5992 8.93645 20.1572 8.69371C19.7359 9.31313 19.2086 9.86279 18.6031 10.3009Z" fill="#CB7A34"/>
</svg>
