<svg width="254" height="80" viewBox="0 0 254 80" fill="none" xmlns="http://www.w3.org/2000/svg">
    <path
        d="M62.3084 79.3764C48.2669 79.3764 36.8442 67.9538 36.8442 53.9094V25.801C36.8442 11.7594 48.2669 0.336731 62.3084 0.336731C76.35 0.336731 87.7727 11.7594 87.7727 25.801V53.9122C87.7727 67.9538 76.35 79.3764 62.3084 79.3764ZM62.3084 11.5767C54.4657 11.5767 48.0842 17.9582 48.0842 25.801V53.9122C48.0842 61.7549 54.4657 68.1392 62.3084 68.1392C70.1512 68.1392 76.5327 61.7577 76.5327 53.9122V25.801C76.5327 17.9582 70.1512 11.5767 62.3084 11.5767Z"
        fill="#CB7A34" />
    <path
        d="M123.791 79.3764C109.75 79.3764 98.327 67.9538 98.327 53.9094V25.801C98.327 11.7594 109.75 0.336731 123.791 0.336731C137.833 0.336731 149.258 11.7594 149.258 25.801V53.9122C149.255 67.9538 137.833 79.3764 123.791 79.3764ZM123.791 11.5767C115.949 11.5767 109.567 17.9582 109.567 25.801V53.9122C109.567 61.7549 115.949 68.1392 123.791 68.1392C131.634 68.1392 138.018 61.7577 138.018 53.9122V25.801C138.015 17.9582 131.634 11.5767 123.791 11.5767Z"
        fill="#CB7A34" />
    <path
        d="M17.2641 79.3764C14.1619 79.3764 11.6441 76.8587 11.6441 73.7564V27.1891L11.3154 27.7651C9.78111 30.4655 6.34729 31.4069 3.64969 29.8698C0.95209 28.3356 0.01074 24.9017 1.545 22.2041L12.3776 3.17483C13.6392 0.957741 16.2273 -0.129724 18.7001 0.522196C21.1644 1.17412 22.8813 3.40526 22.8813 5.95674V73.7592C22.8841 76.8615 20.3664 79.3764 17.2641 79.3764Z"
        fill="#CB7A34" />
    <path
        d="M186.111 45.4766C177.541 45.4766 170.572 38.505 170.572 29.9345V15.8788C170.572 7.30834 177.541 0.336731 186.111 0.336731C194.682 0.336731 201.654 7.30834 201.654 15.8788V29.9345C201.656 38.505 194.682 45.4766 186.111 45.4766ZM186.111 11.5767C183.74 11.5767 181.812 13.5072 181.812 15.8788V29.9345C181.812 32.3061 183.743 34.2366 186.111 34.2366C188.486 34.2366 190.414 32.3061 190.414 29.9345V15.8788C190.416 13.5072 188.486 11.5767 186.111 11.5767Z"
        fill="#CB7A34" />
    <path
        d="M238.169 79.3764C229.599 79.3764 222.627 72.4048 222.627 63.8343V49.7787C222.627 41.2082 229.599 34.2366 238.169 34.2366C246.74 34.2366 253.712 41.2082 253.712 49.7787V63.8343C253.712 72.4048 246.74 79.3764 238.169 79.3764ZM238.169 45.4766C235.795 45.4766 233.867 47.407 233.867 49.7787V63.8343C233.867 66.2088 235.798 68.1364 238.169 68.1364C240.541 68.1364 242.472 66.2059 242.472 63.8343V49.7787C242.472 47.407 240.541 45.4766 238.169 45.4766Z"
        fill="#CB7A34" />
    <path
        d="M191.984 79.3764C191.006 79.3764 190.02 79.1235 189.118 78.5868C186.449 77.0048 185.572 73.5541 187.16 70.8874L227.461 3.08491C229.043 0.41822 232.493 -0.464122 235.16 1.12634C237.829 2.71118 238.706 6.16186 237.119 8.82855L196.82 76.6282C195.772 78.3985 193.904 79.3764 191.984 79.3764Z"
        fill="#CB7A34" />
    <path
        d="M27.8016 79.3764H6.43159C3.32935 79.3764 0.811592 76.8587 0.811592 73.7564C0.811592 70.6542 3.32935 68.1364 6.43159 68.1364H27.8016C30.9039 68.1364 33.4216 70.6542 33.4216 73.7564C33.4216 76.8587 30.9039 79.3764 27.8016 79.3764Z"
        fill="#CB7A34" />
</svg>