<svg width="615" height="244" viewBox="0 0 615 244" fill="none" xmlns="http://www.w3.org/2000/svg">
<g id="chart">
<path id="fill" d="M24.5556 139.952C24.5556 139.952 44.4222 166.944 57.6667 166.944C70.9111 166.944 77.5333 136.096 90.7778 132.24C104.022 128.384 110.644 132.24 123.889 128.384C137.133 124.528 143.756 103.32 157 103.32C170.244 103.32 176.867 114.888 190.111 122.6C203.356 130.312 209.978 141.88 223.222 141.88C236.467 141.88 243.089 93.68 256.333 93.68C269.578 93.68 276.2 132.24 289.444 134.168C302.689 136.096 309.311 136.096 322.556 136.096C335.8 136.096 342.422 123.371 355.667 114.888C368.911 106.405 375.533 93.68 388.778 93.68C402.022 93.68 408.644 109.104 421.889 109.104C435.133 109.104 441.756 58.976 455 58.976C468.244 58.976 474.867 126.456 488.111 126.456C501.356 126.456 507.978 87.5104 521.222 72.472C534.467 57.4336 541.089 60.1328 554.333 51.264C567.578 42.3952 587.444 28.128 587.444 28.128V219C587.444 219 567.578 219 554.333 219C541.089 219 534.467 219 521.222 219C507.978 219 501.356 219 488.111 219C474.867 219 468.244 219 455 219C441.756 219 435.133 219 421.889 219C408.644 219 402.022 219 388.778 219C375.533 219 368.911 219 355.667 219C342.422 219 335.8 219 322.556 219C309.311 219 302.689 219 289.444 219C276.2 219 269.578 219 256.333 219C243.089 219 236.467 219 223.222 219C209.978 219 203.356 219 190.111 219C176.867 219 170.244 219 157 219C143.756 219 137.133 219 123.889 219C110.644 219 104.022 219 90.7778 219C77.5333 219 70.9111 219 57.6667 219C44.4222 219 24.5556 219 24.5556 219V139.952Z" fill="#FDE252" fill-opacity="0.35"/>
<path id="line" d="M24.5556 139.952C24.5556 139.952 44.4222 166.944 57.6667 166.944C70.9111 166.944 77.5333 136.096 90.7778 132.24C104.022 128.384 110.644 132.24 123.889 128.384C137.133 124.528 143.756 103.32 157 103.32C170.244 103.32 176.867 114.888 190.111 122.6C203.356 130.312 209.978 141.88 223.222 141.88C236.467 141.88 243.089 93.68 256.333 93.68C269.578 93.68 276.2 132.24 289.444 134.168C302.689 136.096 309.311 136.096 322.556 136.096C335.8 136.096 342.422 123.371 355.667 114.888C368.911 106.405 375.533 93.68 388.778 93.68C402.022 93.68 408.644 109.104 421.889 109.104C435.133 109.104 441.756 58.976 455 58.976C468.244 58.976 474.867 126.456 488.111 126.456C501.356 126.456 507.978 87.5104 521.222 72.472C534.467 57.4336 541.089 60.1328 554.333 51.264C567.578 42.3952 587.444 28.128 587.444 28.128" stroke="#E99558" stroke-width="2" stroke-linecap="round" stroke-linejoin="round"/>
<g id="dots">
<path id="Vector" d="M24 144C22.9393 144 21.922 143.579 21.1719 142.829C20.4218 142.079 20.0003 141.062 20 140.001C19.9997 138.94 20.4208 137.923 21.1705 137.173C21.9203 136.422 22.9373 136.001 23.998 136C25.0587 135.999 26.0762 136.42 26.8267 137.17C27.5771 137.919 27.9992 138.936 28 139.997C28.0008 141.058 27.5803 142.075 26.8309 142.826C26.0815 143.577 25.0647 143.999 24.004 144H24Z" fill="#B17500"/>
<path id="Vector_2" d="M57 171C55.9393 171 54.922 170.579 54.1719 169.829C53.4218 169.079 53.0003 168.062 53 167.001C52.9997 165.94 53.4208 164.923 54.1705 164.173C54.9203 163.422 55.9373 163.001 56.998 163C58.0587 162.999 59.0762 163.42 59.8267 164.17C60.5772 164.919 60.9992 165.936 61 166.997C61.0008 168.058 60.5803 169.075 59.8309 169.826C59.0815 170.577 58.0647 170.999 57.004 171H57Z" fill="#B17500"/>
<path id="Vector_3" d="M90 136C88.9393 136 87.922 135.579 87.1719 134.829C86.4218 134.079 86.0003 133.062 86 132.001C85.9997 130.94 86.4208 129.923 87.1705 129.173C87.9203 128.422 88.9373 128.001 89.998 128C91.0587 127.999 92.0762 128.42 92.8267 129.17C93.5772 129.919 93.9992 130.936 94 131.997C94.0008 133.058 93.5803 134.075 92.8309 134.826C92.0815 135.577 91.0647 135.999 90.004 136H90Z" fill="#B17500"/>
<path id="Vector_4" d="M123 132C121.939 132 120.922 131.579 120.172 130.829C119.422 130.079 119 129.062 119 128.001C119 126.94 119.421 125.923 120.171 125.173C120.92 124.422 121.937 124.001 122.998 124C124.059 123.999 125.076 124.42 125.827 125.17C126.577 125.919 126.999 126.936 127 127.997C127.001 129.058 126.58 130.075 125.831 130.826C125.082 131.577 124.065 131.999 123.004 132H123Z" fill="#B17500"/>
<path id="Vector_5" d="M157 107C155.939 107 154.922 106.579 154.172 105.829C153.422 105.079 153 104.062 153 103.001C153 101.94 153.421 100.923 154.171 100.173C154.92 99.4223 155.937 99.0005 156.998 99C158.059 98.9995 159.076 99.4203 159.827 100.17C160.577 100.919 160.999 101.936 161 102.997C161.001 104.058 160.58 105.075 159.831 105.826C159.082 106.577 158.065 106.999 157.004 107H157Z" fill="#B17500"/>
<path id="Vector_6" d="M190 127C188.939 127 187.922 126.579 187.172 125.829C186.422 125.079 186 124.062 186 123.001C186 121.94 186.421 120.923 187.171 120.173C187.92 119.422 188.937 119.001 189.998 119C191.059 118.999 192.076 119.42 192.827 120.17C193.577 120.919 193.999 121.936 194 122.997C194.001 124.058 193.58 125.075 192.831 125.826C192.082 126.577 191.065 126.999 190.004 127H190Z" fill="#B17500"/>
<path id="Vector_7" d="M223 146C221.939 146 220.922 145.579 220.172 144.829C219.422 144.079 219 143.062 219 142.001C219 140.94 219.421 139.923 220.171 139.173C220.92 138.422 221.937 138.001 222.998 138C224.059 137.999 225.076 138.42 225.827 139.17C226.577 139.919 226.999 140.936 227 141.997C227.001 143.058 226.58 144.075 225.831 144.826C225.082 145.577 224.065 145.999 223.004 146H223Z" fill="#B17500"/>
<path id="Vector_8" d="M256 98C254.939 98 253.922 97.5787 253.172 96.8288C252.422 96.0789 252 95.0617 252 94.001C252 92.9403 252.421 91.9229 253.171 91.1726C253.92 90.4223 254.937 90.0005 255.998 90C257.059 89.9995 258.076 90.4203 258.827 91.1698C259.577 91.9194 259.999 92.9363 260 93.997C260.001 95.0577 259.58 96.0753 258.831 96.826C258.082 97.5766 257.065 97.9989 256.004 98H256Z" fill="#B17500"/>
<path id="Vector_9" d="M289 138C287.939 138 286.922 137.579 286.172 136.829C285.422 136.079 285 135.062 285 134.001C285 132.94 285.421 131.923 286.171 131.173C286.92 130.422 287.937 130.001 288.998 130C290.059 129.999 291.076 130.42 291.827 131.17C292.577 131.919 292.999 132.936 293 133.997C293.001 135.058 292.58 136.075 291.831 136.826C291.082 137.577 290.065 137.999 289.004 138H289Z" fill="#B17500"/>
<path id="Vector_10" d="M322 140C320.939 140 319.922 139.579 319.172 138.829C318.422 138.079 318 137.062 318 136.001C318 134.94 318.421 133.923 319.171 133.173C319.92 132.422 320.937 132.001 321.998 132C323.059 131.999 324.076 132.42 324.827 133.17C325.577 133.919 325.999 134.936 326 135.997C326.001 137.058 325.58 138.075 324.831 138.826C324.082 139.577 323.065 139.999 322.004 140H322Z" fill="#B17500"/>
<path id="Vector_11" d="M355 119C353.939 119 352.922 118.579 352.172 117.829C351.422 117.079 351 116.062 351 115.001C351 113.94 351.421 112.923 352.171 112.173C352.92 111.422 353.937 111.001 354.998 111C356.059 110.999 357.076 111.42 357.827 112.17C358.577 112.919 358.999 113.936 359 114.997C359.001 116.058 358.58 117.075 357.831 117.826C357.082 118.577 356.065 118.999 355.004 119H355Z" fill="#B17500"/>
<path id="Vector_12" d="M388 98C386.939 98 385.922 97.5787 385.172 96.8288C384.422 96.0789 384 95.0617 384 94.001C384 92.9403 384.421 91.9229 385.171 91.1726C385.92 90.4223 386.937 90.0005 387.998 90C389.059 89.9995 390.076 90.4203 390.827 91.1698C391.577 91.9194 391.999 92.9363 392 93.997C392.001 95.0577 391.58 96.0753 390.831 96.826C390.082 97.5766 389.065 97.9989 388.004 98H388Z" fill="#B17500"/>
<path id="Vector_13" d="M421 113C419.939 113 418.922 112.579 418.172 111.829C417.422 111.079 417 110.062 417 109.001C417 107.94 417.421 106.923 418.171 106.173C418.92 105.422 419.937 105.001 420.998 105C422.059 104.999 423.076 105.42 423.827 106.17C424.577 106.919 424.999 107.936 425 108.997C425.001 110.058 424.58 111.075 423.831 111.826C423.082 112.577 422.065 112.999 421.004 113H421Z" fill="#B17500"/>
<path id="Vector_14" d="M455 63C453.939 63 452.922 62.5787 452.172 61.8288C451.422 61.0789 451 60.0617 451 59.001C451 57.9403 451.421 56.9229 452.171 56.1726C452.92 55.4223 453.937 55.0005 454.998 55C456.059 54.9995 457.076 55.4203 457.827 56.1698C458.577 56.9194 458.999 57.9363 459 58.997C459.001 60.0577 458.58 61.0753 457.831 61.826C457.082 62.5766 456.065 62.9989 455.004 63H455Z" fill="#B17500"/>
<path id="Vector_15" d="M488 130C486.939 130 485.922 129.579 485.172 128.829C484.422 128.079 484 127.062 484 126.001C484 124.94 484.421 123.923 485.171 123.173C485.92 122.422 486.937 122.001 487.998 122C489.059 121.999 490.076 122.42 490.827 123.17C491.577 123.919 491.999 124.936 492 125.997C492.001 127.058 491.58 128.075 490.831 128.826C490.082 129.577 489.065 129.999 488.004 130H488Z" fill="#B17500"/>
<path id="Vector_16" d="M521 76C519.939 76 518.922 75.5787 518.172 74.8288C517.422 74.0789 517 73.0617 517 72.001C517 70.9403 517.421 69.9229 518.171 69.1726C518.92 68.4223 519.937 68.0005 520.998 68C522.059 67.9995 523.076 68.4203 523.827 69.1698C524.577 69.9194 524.999 70.9363 525 71.997C525.001 73.0577 524.58 74.0753 523.831 74.826C523.082 75.5766 522.065 75.9989 521.004 76H521Z" fill="#B17500"/>
<path id="Vector_17" d="M554 55C552.939 55 551.922 54.5787 551.172 53.8288C550.422 53.0789 550 52.0617 550 51.001C550 49.9403 550.421 48.9229 551.171 48.1726C551.92 47.4223 552.937 47.0005 553.998 47C555.059 46.9995 556.076 47.4203 556.827 48.1698C557.577 48.9194 557.999 49.9363 558 50.997C558.001 52.0577 557.58 53.0753 556.831 53.826C556.082 54.5766 555.065 54.9989 554.004 55H554Z" fill="#B17500"/>
<path id="Vector_18" d="M587 32C585.939 32 584.922 31.5787 584.172 30.8288C583.422 30.0789 583 29.0617 583 28.001C583 26.9403 583.421 25.9229 584.171 25.1726C584.92 24.4223 585.937 24.0005 586.998 24C588.059 23.9995 589.076 24.4203 589.827 25.1698C590.577 25.9194 590.999 26.9363 591 27.997C591.001 29.0577 590.58 30.0753 589.831 30.826C589.082 31.5766 588.065 31.9989 587.004 32L587 32Z" fill="#B17500"/>
</g>
</g>
</svg>
