<svg width="36" height="20" viewBox="0 0 36 20" fill="none" xmlns="http://www.w3.org/2000/svg">
<path d="M17.2442 1.39935C17.643 0.939136 18.357 0.939134 18.7558 1.39935L23.8305 7.25631C24.4004 7.91396 25.2277 8.2918 26.0979 8.2918H33.4848C34.6516 8.2918 34.8735 9.9499 33.7477 10.2566L32.43 10.6156C30.2981 11.1965 29.5044 13.8047 30.9513 15.4746L31.7497 16.3961C32.3967 17.1428 31.6843 18.2755 30.7311 18.0158L18.7886 14.762C18.2723 14.6213 17.7277 14.6213 17.2114 14.762L5.2689 18.0158C4.3157 18.2755 3.60331 17.1428 4.25026 16.3961L5.04867 15.4746C6.49562 13.8047 5.7019 11.1965 3.56997 10.6156L2.2523 10.2566C1.12652 9.9499 1.34834 8.2918 2.51518 8.2918H9.90215C10.7723 8.2918 11.5996 7.91396 12.1695 7.25631L17.2442 1.39935Z" fill="#F5F5F5" stroke="black" stroke-width="2"/>
</svg>
