<svg width="62" height="58" fill="none" xmlns="http://www.w3.org/2000/svg" viewBox="0 0 62 58"><path d="M59.581 41.966h-3.819V28.867a1.91 1.91 0 0 0-1.91-1.91H32.927V15.846h3.818a1.91 1.91 0 0 0 1.91-1.91V2.48a1.91 1.91 0 0 0-1.91-1.91H25.288a1.91 1.91 0 0 0-1.642 1.91v11.456a1.91 1.91 0 0 0 1.91 1.91h3.818v11.113H8.37a1.91 1.91 0 0 0-1.91 1.91v13.098H2.643a1.91 1.91 0 0 0-1.91 1.91v11.456a1.91 1.91 0 0 0 1.91 1.909H14.1a1.91 1.91 0 0 0 1.909-1.91V43.876a1.91 1.91 0 0 0-1.91-1.91H10.28V30.777h19.094v11.19h-3.819a1.909 1.909 0 0 0-1.91 1.91v11.456a1.91 1.91 0 0 0 1.91 1.909h11.457a1.91 1.91 0 0 0 1.91-1.91V43.876a1.91 1.91 0 0 0-1.91-1.91h-3.82V30.777h19.095v11.19h-3.819a1.91 1.91 0 0 0-1.91 1.91v11.456a1.91 1.91 0 0 0 1.91 1.909h11.457a1.909 1.909 0 0 0 1.91-1.91V43.876a1.91 1.91 0 0 0-2.254-1.91ZM27.464 4.388h7.638v7.638h-7.637V4.388ZM12.19 53.422H4.552v-7.637h7.637v7.637Zm22.913 0h-7.637v-7.637h7.637v7.637Zm22.913 0h-7.637v-7.637h7.637v7.637Z" fill="#FFCD4D"/></svg>