<svg width="59" height="60" fill="none" xmlns="http://www.w3.org/2000/svg" viewBox="0 0 59 60"><path d="m13.854 27.786 13.544 7.82v15.64l-13.544 7.82L.31 51.246v-15.64l13.544-7.82Zm31.28 0 13.544 7.82v15.64l-13.544 7.82-13.544-7.82v-15.64l13.544-7.82Zm-31.28 4.516-9.634 5.56V48.99l9.634 5.56 9.634-5.56V37.862l-9.634-5.56Zm31.28 0-9.634 5.56V48.99l9.634 5.56 9.634-5.56V37.862l-9.634-5.56ZM29.494.416l13.544 7.82v15.64l-13.544 7.82-13.544-7.82V8.236L29.494.416Zm0 4.516-9.634 5.56V21.62l9.634 5.56 9.634-5.56V10.492l-9.634-5.56Z" fill="#FFCD4D"/></svg>